0
SECTION
2
ENTITIES
0
LINE
8
OUTLINE
10
-83.5608
20
-104.4397
30
0
11
83.5592
21
-104.4397
31
0
0
LINE
8
OUTLINE
10
83.5592
20
-104.4397
30
0
11
83.5592
21
104.4403
31
0
0
LINE
8
OUTLINE
10
83.5592
20
104.4403
30
0
11
-83.5608
21
104.4403
31
0
0
LINE
8
OUTLINE
10
-83.5608
20
104.4403
30
0
11
-83.5608
21
-104.4397
31
0
0
LINE
8
BEZEL
10
-77.0731
20
-101.3629
30
0
11
74.5349
21
-101.3629
31
0
0
LINE
8
BEZEL
10
74.5349
20
-101.3629
30
0
11
74.5349
21
99.6471
31
0
0
LINE
8
BEZEL
10
74.5349
20
99.6471
30
0
11
-77.0731
21
99.6471
31
0
0
LINE
8
BEZEL
10
-77.0731
20
99.6471
30
0
11
-77.0731
21
-101.3629
31
0
0
LINE
8
ACTIVE
10
-75.0325
20
-99.1892
30
0
11
72.4235
21
-99.1892
31
0
0
LINE
8
ACTIVE
10
72.4235
20
-99.1892
30
0
11
72.4235
21
97.4188
31
0
0
LINE
8
ACTIVE
10
72.4235
20
97.4188
30
0
11
-75.0325
21
97.4188
31
0
0
LINE
8
ACTIVE
10
-75.0325
20
97.4188
30
0
11
-75.0325
21
-99.1892
31
0
0
CIRCLE
8
HOLES
10
-85.6877
20
99.4934
30
0
40
1.1936
0
POINT
8
HOLE_CENTERS
10
-85.6877
20
99.4934
30
0
0
LINE
8
HOLE_CENTERS
10
-87.1877
20
99.4934
30
0
11
-84.1877
21
99.4934
31
0
0
LINE
8
HOLE_CENTERS
10
-85.6877
20
97.9934
30
0
11
-85.6877
21
100.9934
31
0
0
LINE
8
EARS
10
-86.1139
20
101.3736
30
0
11
-83.6591
21
101.3736
31
0
0
LINE
8
EARS
10
-83.6591
20
101.3736
30
0
11
-83.5773
21
101.2916
31
0
0
LINE
8
EARS
10
-83.5773
20
101.2916
30
0
11
-83.5773
21
95.0603
31
0
0
LINE
8
EARS
10
-83.5773
20
95.0603
30
0
11
-83.6591
21
94.9784
31
0
0
LINE
8
EARS
10
-83.6591
20
94.9784
30
0
11
-83.9537
21
95.0111
31
0
0
LINE
8
EARS
10
-83.9537
20
95.0111
30
0
11
-87.2431
21
98.3072
31
0
0
LINE
8
EARS
10
-87.2431
20
98.3072
30
0
11
-87.5049
21
98.7663
31
0
0
LINE
8
EARS
10
-87.5049
20
98.7663
30
0
11
-87.6031
21
99.0943
31
0
0
LINE
8
EARS
10
-87.6031
20
99.0943
30
0
11
-87.6358
21
99.6846
31
0
0
LINE
8
EARS
10
-87.6358
20
99.6846
30
0
11
-87.5704
21
100.0454
31
0
0
LINE
8
EARS
10
-87.5704
20
100.0454
30
0
11
-87.3413
21
100.5701
31
0
0
LINE
8
EARS
10
-87.3413
20
100.5701
30
0
11
-87.1776
21
100.7997
31
0
0
LINE
8
EARS
10
-87.1776
20
100.7997
30
0
11
-86.8994
21
101.0457
31
0
0
LINE
8
EARS
10
-86.8994
20
101.0457
30
0
11
-86.5394
21
101.2424
31
0
0
LINE
8
EARS
10
-86.5394
20
101.2424
30
0
11
-86.1139
21
101.3736
31
0
0
CIRCLE
8
HOLES
10
78.1112
20
106.5826
30
0
40
1.2007
0
POINT
8
HOLE_CENTERS
10
78.1112
20
106.5826
30
0
0
LINE
8
HOLE_CENTERS
10
76.6112
20
106.5826
30
0
11
79.6112
21
106.5826
31
0
0
LINE
8
HOLE_CENTERS
10
78.1112
20
105.0826
30
0
11
78.1112
21
108.0826
31
0
0
LINE
8
EARS
10
77.8644
20
108.5232
30
0
11
78.4862
21
108.4904
31
0
0
LINE
8
EARS
10
78.4862
20
108.4904
30
0
11
78.9772
21
108.3264
31
0
0
LINE
8
EARS
10
78.9772
20
108.3264
30
0
11
79.4354
21
108.0313
31
0
0
LINE
8
EARS
10
79.4354
20
108.0313
30
0
11
79.7463
21
107.6213
31
0
0
LINE
8
EARS
10
79.7463
20
107.6213
30
0
11
79.9100
21
107.2278
31
0
0
LINE
8
EARS
10
79.9100
20
107.2278
30
0
11
79.9427
21
106.8670
31
0
0
LINE
8
EARS
10
79.9427
20
106.8670
30
0
11
80.0409
21
106.6046
31
0
0
LINE
8
EARS
10
80.0409
20
106.6046
30
0
11
80.0409
21
104.5385
31
0
0
LINE
8
EARS
10
80.0409
20
104.5385
30
0
11
79.9591
21
104.4565
31
0
0
LINE
8
EARS
10
79.9591
20
104.4565
30
0
11
73.6749
21
104.4565
31
0
0
LINE
8
EARS
10
73.6749
20
104.4565
30
0
11
73.5931
21
104.5385
31
0
0
LINE
8
EARS
10
73.5931
20
104.5385
30
0
11
73.5931
21
104.8336
31
0
0
LINE
8
EARS
10
73.5931
20
104.8336
30
0
11
76.7843
21
108.0313
31
0
0
LINE
8
EARS
10
76.7843
20
108.0313
30
0
11
77.3407
21
108.3920
31
0
0
LINE
8
EARS
10
77.3407
20
108.3920
30
0
11
77.8644
21
108.5232
31
0
0
CIRCLE
8
HOLES
10
-78.5330
20
-105.4302
30
0
40
1.1991
0
POINT
8
HOLE_CENTERS
10
-78.5330
20
-105.4302
30
0
0
LINE
8
HOLE_CENTERS
10
-80.0330
20
-105.4302
30
0
11
-77.0330
21
-105.4302
31
0
0
LINE
8
HOLE_CENTERS
10
-78.5330
20
-106.9302
30
0
11
-78.5330
21
-103.9302
31
0
0
LINE
8
EARS
10
-81.1389
20
-104.4560
30
0
11
-76.7203
21
-104.4560
31
0
0
LINE
8
EARS
10
-76.7203
20
-104.4560
30
0
11
-76.6385
21
-104.5380
31
0
0
LINE
8
EARS
10
-76.6385
20
-104.5380
30
0
11
-76.6385
21
-105.5546
31
0
0
LINE
8
EARS
10
-76.6385
20
-105.5546
30
0
11
-76.8349
21
-106.3090
31
0
0
LINE
8
EARS
10
-76.8349
20
-106.3090
30
0
11
-76.9985
21
-106.6041
31
0
0
LINE
8
EARS
10
-76.9985
20
-106.6041
30
0
11
-77.3095
21
-106.9157
31
0
0
LINE
8
EARS
10
-77.3095
20
-106.9157
30
0
11
-77.8986
21
-107.2109
31
0
0
LINE
8
EARS
10
-77.8986
20
-107.2109
30
0
11
-78.4223
21
-107.3092
31
0
0
LINE
8
EARS
10
-78.4223
20
-107.3092
30
0
11
-78.7169
21
-107.3092
31
0
0
LINE
8
EARS
10
-78.7169
20
-107.3092
30
0
11
-79.4042
21
-107.1453
31
0
0
LINE
8
EARS
10
-79.4042
20
-107.1453
30
0
11
-79.8297
21
-106.8829
31
0
0
LINE
8
EARS
10
-79.8297
20
-106.8829
30
0
11
-80.2716
21
-106.3090
31
0
0
LINE
8
EARS
10
-80.2716
20
-106.3090
30
0
11
-81.2207
21
-104.5380
31
0
0
LINE
8
EARS
10
-81.2207
20
-104.5380
30
0
11
-81.1389
21
-104.4560
31
0
0
CIRCLE
8
HOLES
10
78.4861
20
-107.3170
30
0
40
1.1967
0
POINT
8
HOLE_CENTERS
10
78.4861
20
-107.3170
30
0
0
LINE
8
HOLE_CENTERS
10
76.9861
20
-107.3170
30
0
11
79.9861
21
-107.3170
31
0
0
LINE
8
HOLE_CENTERS
10
78.4861
20
-108.8170
30
0
11
78.4861
21
-105.8170
31
0
0
LINE
8
EARS
10
73.3149
20
-104.4560
30
0
11
80.3191
21
-104.4560
31
0
0
LINE
8
EARS
10
80.3191
20
-104.4560
30
0
11
80.4009
21
-104.5380
31
0
0
LINE
8
EARS
10
80.4009
20
-104.5380
30
0
11
80.4009
21
-107.5552
31
0
0
LINE
8
EARS
10
80.4009
20
-107.5552
30
0
11
80.1718
21
-108.2111
31
0
0
LINE
8
EARS
10
80.1718
20
-108.2111
30
0
11
79.7954
21
-108.7195
31
0
0
LINE
8
EARS
10
79.7954
20
-108.7195
30
0
11
79.4681
21
-108.9491
31
0
0
LINE
8
EARS
10
79.4681
20
-108.9491
30
0
11
79.1081
21
-109.1130
31
0
0
LINE
8
EARS
10
79.1081
20
-109.1130
30
0
11
78.6171
21
-109.2114
31
0
0
LINE
8
EARS
10
78.6171
20
-109.2114
30
0
11
78.3226
21
-109.2114
31
0
0
LINE
8
EARS
10
78.3226
20
-109.2114
30
0
11
77.9298
21
-109.1458
31
0
0
LINE
8
EARS
10
77.9298
20
-109.1458
30
0
11
77.4716
21
-108.9491
31
0
0
LINE
8
EARS
10
77.4716
20
-108.9491
30
0
11
76.9479
21
-108.4899
31
0
0
LINE
8
EARS
10
76.9479
20
-108.4899
30
0
11
73.2985
21
-104.8659
31
0
0
LINE
8
EARS
10
73.2985
20
-104.8659
30
0
11
73.2330
21
-104.7347
31
0
0
LINE
8
EARS
10
73.2330
20
-104.7347
30
0
11
73.2330
21
-104.5380
31
0
0
LINE
8
EARS
10
73.2330
20
-104.5380
30
0
11
73.3149
21
-104.4560
31
0
0
ENDSEC
0
EOF
