0
SECTION
2
ENTITIES
0
LINE
8
OUTLINE
10
83.5600
20
103.9400
30
0
11
83.5470
21
104.0510
31
0
0
LINE
8
OUTLINE
10
83.5470
20
104.0510
30
0
11
83.5100
21
104.1570
31
0
0
LINE
8
OUTLINE
10
83.5100
20
104.1570
30
0
11
83.4510
21
104.2520
31
0
0
LINE
8
OUTLINE
10
83.4510
20
104.2520
30
0
11
83.3720
21
104.3310
31
0
0
LINE
8
OUTLINE
10
83.3720
20
104.3310
30
0
11
83.2770
21
104.3900
31
0
0
LINE
8
OUTLINE
10
83.2770
20
104.3900
30
0
11
83.1710
21
104.4270
31
0
0
LINE
8
OUTLINE
10
83.1710
20
104.4270
30
0
11
83.0600
21
104.4400
31
0
0
LINE
8
OUTLINE
10
83.0600
20
104.4400
30
0
11
-83.0600
21
104.4400
31
0
0
LINE
8
OUTLINE
10
-83.0600
20
104.4400
30
0
11
-83.1710
21
104.4270
31
0
0
LINE
8
OUTLINE
10
-83.1710
20
104.4270
30
0
11
-83.2770
21
104.3900
31
0
0
LINE
8
OUTLINE
10
-83.2770
20
104.3900
30
0
11
-83.3720
21
104.3310
31
0
0
LINE
8
OUTLINE
10
-83.3720
20
104.3310
30
0
11
-83.4510
21
104.2520
31
0
0
LINE
8
OUTLINE
10
-83.4510
20
104.2520
30
0
11
-83.5100
21
104.1570
31
0
0
LINE
8
OUTLINE
10
-83.5100
20
104.1570
30
0
11
-83.5470
21
104.0510
31
0
0
LINE
8
OUTLINE
10
-83.5470
20
104.0510
30
0
11
-83.5600
21
103.9400
31
0
0
LINE
8
OUTLINE
10
-83.5600
20
103.9400
30
0
11
-83.5600
21
-102.9800
31
0
0
LINE
8
OUTLINE
10
-83.5600
20
-102.9800
30
0
11
-83.5470
21
-103.0910
31
0
0
LINE
8
OUTLINE
10
-83.5470
20
-103.0910
30
0
11
-83.5100
21
-103.1970
31
0
0
LINE
8
OUTLINE
10
-83.5100
20
-103.1970
30
0
11
-83.4510
21
-103.2920
31
0
0
LINE
8
OUTLINE
10
-83.4510
20
-103.2920
30
0
11
-83.3720
21
-103.3710
31
0
0
LINE
8
OUTLINE
10
-83.3720
20
-103.3710
30
0
11
-83.2770
21
-103.4300
31
0
0
LINE
8
OUTLINE
10
-83.2770
20
-103.4300
30
0
11
-83.1710
21
-103.4670
31
0
0
LINE
8
OUTLINE
10
-83.1710
20
-103.4670
30
0
11
-83.0600
21
-103.4800
31
0
0
LINE
8
OUTLINE
10
-83.0600
20
-103.4800
30
0
11
-65.8000
21
-103.4800
31
0
0
LINE
8
OUTLINE
10
-65.8000
20
-103.4800
30
0
11
-62.7000
21
-104.4400
31
0
0
LINE
8
OUTLINE
10
-62.7000
20
-104.4400
30
0
11
83.0600
21
-104.4400
31
0
0
LINE
8
OUTLINE
10
83.0600
20
-104.4400
30
0
11
83.1710
21
-104.4270
31
0
0
LINE
8
OUTLINE
10
83.1710
20
-104.4270
30
0
11
83.2770
21
-104.3900
31
0
0
LINE
8
OUTLINE
10
83.2770
20
-104.3900
30
0
11
83.3720
21
-104.3310
31
0
0
LINE
8
OUTLINE
10
83.3720
20
-104.3310
30
0
11
83.4510
21
-104.2520
31
0
0
LINE
8
OUTLINE
10
83.4510
20
-104.2520
30
0
11
83.5100
21
-104.1570
31
0
0
LINE
8
OUTLINE
10
83.5100
20
-104.1570
30
0
11
83.5470
21
-104.0510
31
0
0
LINE
8
OUTLINE
10
83.5470
20
-104.0510
30
0
11
83.5600
21
-103.9400
31
0
0
LINE
8
OUTLINE
10
83.5600
20
-103.9400
30
0
11
83.5600
21
103.9400
31
0
0
LINE
8
BEZEL
10
-77.0740
20
-101.3650
30
0
11
74.5340
21
-101.3650
31
0
0
LINE
8
BEZEL
10
74.5340
20
-101.3650
30
0
11
74.5340
21
99.6450
31
0
0
LINE
8
BEZEL
10
74.5340
20
99.6450
30
0
11
-77.0740
21
99.6450
31
0
0
LINE
8
BEZEL
10
-77.0740
20
99.6450
30
0
11
-77.0740
21
-101.3650
31
0
0
LINE
8
ACTIVE
10
-75.0280
20
-99.1940
30
0
11
72.4280
21
-99.1940
31
0
0
LINE
8
ACTIVE
10
72.4280
20
-99.1940
30
0
11
72.4280
21
97.4140
31
0
0
LINE
8
ACTIVE
10
72.4280
20
97.4140
30
0
11
-75.0280
21
97.4140
31
0
0
LINE
8
ACTIVE
10
-75.0280
20
97.4140
30
0
11
-75.0280
21
-99.1940
31
0
0
LINE
8
EARS
10
-83.5600
20
101.6390
30
0
11
-84.0370
21
101.6390
31
0
0
LINE
8
EARS
10
-84.0370
20
101.6390
30
0
11
-84.1050
21
101.5700
31
0
0
LINE
8
EARS
10
-84.1050
20
101.5700
30
0
11
-84.1740
21
101.5700
31
0
0
LINE
8
EARS
10
-84.1740
20
101.5700
30
0
11
-84.2420
21
101.5700
31
0
0
LINE
8
EARS
10
-84.2420
20
101.5700
30
0
11
-84.3100
21
101.5700
31
0
0
LINE
8
EARS
10
-84.3100
20
101.5700
30
0
11
-84.3780
21
101.5700
31
0
0
LINE
8
EARS
10
-84.3780
20
101.5700
30
0
11
-84.4460
21
101.5700
31
0
0
LINE
8
EARS
10
-84.4460
20
101.5700
30
0
11
-84.5150
21
101.5700
31
0
0
LINE
8
EARS
10
-84.5150
20
101.5700
30
0
11
-84.5830
21
101.5700
31
0
0
LINE
8
EARS
10
-84.5830
20
101.5700
30
0
11
-84.6510
21
101.5700
31
0
0
LINE
8
EARS
10
-84.6510
20
101.5700
30
0
11
-84.7190
21
101.5700
31
0
0
LINE
8
EARS
10
-84.7190
20
101.5700
30
0
11
-84.7870
21
101.5700
31
0
0
LINE
8
EARS
10
-84.7870
20
101.5700
30
0
11
-84.8560
21
101.5700
31
0
0
LINE
8
EARS
10
-84.8560
20
101.5700
30
0
11
-84.9240
21
101.5700
31
0
0
LINE
8
EARS
10
-84.9240
20
101.5700
30
0
11
-84.9920
21
101.5700
31
0
0
LINE
8
EARS
10
-84.9920
20
101.5700
30
0
11
-85.0600
21
101.5700
31
0
0
LINE
8
EARS
10
-85.0600
20
101.5700
30
0
11
-85.1280
21
101.5700
31
0
0
LINE
8
EARS
10
-85.1280
20
101.5700
30
0
11
-85.1960
21
101.5700
31
0
0
LINE
8
EARS
10
-85.1960
20
101.5700
30
0
11
-85.2650
21
101.5700
31
0
0
LINE
8
EARS
10
-85.2650
20
101.5700
30
0
11
-85.3330
21
101.5700
31
0
0
LINE
8
EARS
10
-85.3330
20
101.5700
30
0
11
-85.4010
21
101.5700
31
0
0
LINE
8
EARS
10
-85.4010
20
101.5700
30
0
11
-85.4690
21
101.5700
31
0
0
LINE
8
EARS
10
-85.4690
20
101.5700
30
0
11
-85.5370
21
101.5700
31
0
0
LINE
8
EARS
10
-85.5370
20
101.5700
30
0
11
-85.6060
21
101.5700
31
0
0
LINE
8
EARS
10
-85.6060
20
101.5700
30
0
11
-85.6740
21
101.5700
31
0
0
LINE
8
EARS
10
-85.6740
20
101.5700
30
0
11
-85.7420
21
101.5700
31
0
0
LINE
8
EARS
10
-85.7420
20
101.5700
30
0
11
-85.8100
21
101.5700
31
0
0
LINE
8
EARS
10
-85.8100
20
101.5700
30
0
11
-85.8780
21
101.5700
31
0
0
LINE
8
EARS
10
-85.8780
20
101.5700
30
0
11
-85.9460
21
101.5700
31
0
0
LINE
8
EARS
10
-85.9460
20
101.5700
30
0
11
-86.0150
21
101.5020
31
0
0
LINE
8
EARS
10
-86.0150
20
101.5020
30
0
11
-86.0830
21
101.5020
31
0
0
LINE
8
EARS
10
-86.0830
20
101.5020
30
0
11
-86.1510
21
101.5020
31
0
0
LINE
8
EARS
10
-86.1510
20
101.5020
30
0
11
-86.2190
21
101.5020
31
0
0
LINE
8
EARS
10
-86.2190
20
101.5020
30
0
11
-86.2870
21
101.5020
31
0
0
LINE
8
EARS
10
-86.2870
20
101.5020
30
0
11
-86.3560
21
101.4340
31
0
0
LINE
8
EARS
10
-86.3560
20
101.4340
30
0
11
-86.4240
21
101.4340
31
0
0
LINE
8
EARS
10
-86.4240
20
101.4340
30
0
11
-86.4920
21
101.4340
31
0
0
LINE
8
EARS
10
-86.4920
20
101.4340
30
0
11
-86.5600
21
101.3650
31
0
0
LINE
8
EARS
10
-86.5600
20
101.3650
30
0
11
-86.6280
21
101.3650
31
0
0
LINE
8
EARS
10
-86.6280
20
101.3650
30
0
11
-86.6960
21
101.2970
31
0
0
LINE
8
EARS
10
-86.6960
20
101.2970
30
0
11
-86.7650
21
101.2970
31
0
0
LINE
8
EARS
10
-86.7650
20
101.2970
30
0
11
-86.8330
21
101.2290
31
0
0
LINE
8
EARS
10
-86.8330
20
101.2290
30
0
11
-86.9010
21
101.1600
31
0
0
LINE
8
EARS
10
-86.9010
20
101.1600
30
0
11
-86.9690
21
101.1600
31
0
0
LINE
8
EARS
10
-86.9690
20
101.1600
30
0
11
-87.0370
21
101.0920
31
0
0
LINE
8
EARS
10
-87.0370
20
101.0920
30
0
11
-87.1060
21
101.0240
31
0
0
LINE
8
EARS
10
-87.1060
20
101.0240
30
0
11
-87.1740
21
100.9550
31
0
0
LINE
8
EARS
10
-87.1740
20
100.9550
30
0
11
-87.2420
21
100.8870
31
0
0
LINE
8
EARS
10
-87.2420
20
100.8870
30
0
11
-87.3100
21
100.8190
31
0
0
LINE
8
EARS
10
-87.3100
20
100.8190
30
0
11
-87.3780
21
100.7500
31
0
0
LINE
8
EARS
10
-87.3780
20
100.7500
30
0
11
-87.3780
21
100.6820
31
0
0
LINE
8
EARS
10
-87.3780
20
100.6820
30
0
11
-87.4470
21
100.6140
31
0
0
LINE
8
EARS
10
-87.4470
20
100.6140
30
0
11
-87.5150
21
100.5450
31
0
0
LINE
8
EARS
10
-87.5150
20
100.5450
30
0
11
-87.5150
21
100.4770
31
0
0
LINE
8
EARS
10
-87.5150
20
100.4770
30
0
11
-87.5830
21
100.4090
31
0
0
LINE
8
EARS
10
-87.5830
20
100.4090
30
0
11
-87.5830
21
100.3400
31
0
0
LINE
8
EARS
10
-87.5830
20
100.3400
30
0
11
-87.6510
21
100.2720
31
0
0
LINE
8
EARS
10
-87.6510
20
100.2720
30
0
11
-87.6510
21
100.2040
31
0
0
LINE
8
EARS
10
-87.6510
20
100.2040
30
0
11
-87.6510
21
100.1350
31
0
0
LINE
8
EARS
10
-87.6510
20
100.1350
30
0
11
-87.7190
21
100.0670
31
0
0
LINE
8
EARS
10
-87.7190
20
100.0670
30
0
11
-87.7190
21
99.9990
31
0
0
LINE
8
EARS
10
-87.7190
20
99.9990
30
0
11
-87.7190
21
99.9300
31
0
0
LINE
8
EARS
10
-87.7190
20
99.9300
30
0
11
-87.7870
21
99.8620
31
0
0
LINE
8
EARS
10
-87.7870
20
99.8620
30
0
11
-87.7870
21
99.7940
31
0
0
LINE
8
EARS
10
-87.7870
20
99.7940
30
0
11
-87.7870
21
99.7250
31
0
0
LINE
8
EARS
10
-87.7870
20
99.7250
30
0
11
-87.7870
21
99.6570
31
0
0
LINE
8
EARS
10
-87.7870
20
99.6570
30
0
11
-87.7870
21
99.5890
31
0
0
LINE
8
EARS
10
-87.7870
20
99.5890
30
0
11
-87.7870
21
99.5200
31
0
0
LINE
8
EARS
10
-87.7870
20
99.5200
30
0
11
-87.7870
21
99.4520
31
0
0
LINE
8
EARS
10
-87.7870
20
99.4520
30
0
11
-87.7870
21
99.3840
31
0
0
LINE
8
EARS
10
-87.7870
20
99.3840
30
0
11
-87.7870
21
99.3150
31
0
0
LINE
8
EARS
10
-87.7870
20
99.3150
30
0
11
-87.7870
21
99.2470
31
0
0
LINE
8
EARS
10
-87.7870
20
99.2470
30
0
11
-87.7870
21
99.1790
31
0
0
LINE
8
EARS
10
-87.7870
20
99.1790
30
0
11
-87.7190
21
99.1100
31
0
0
LINE
8
EARS
10
-87.7190
20
99.1100
30
0
11
-87.7190
21
99.0420
31
0
0
LINE
8
EARS
10
-87.7190
20
99.0420
30
0
11
-87.7190
21
98.9740
31
0
0
LINE
8
EARS
10
-87.7190
20
98.9740
30
0
11
-87.7190
21
98.9050
31
0
0
LINE
8
EARS
10
-87.7190
20
98.9050
30
0
11
-87.6510
21
98.8370
31
0
0
LINE
8
EARS
10
-87.6510
20
98.8370
30
0
11
-87.6510
21
98.7690
31
0
0
LINE
8
EARS
10
-87.6510
20
98.7690
30
0
11
-87.6510
21
98.7000
31
0
0
LINE
8
EARS
10
-87.6510
20
98.7000
30
0
11
-87.5830
21
98.6320
31
0
0
LINE
8
EARS
10
-87.5830
20
98.6320
30
0
11
-87.5830
21
98.5640
31
0
0
LINE
8
EARS
10
-87.5830
20
98.5640
30
0
11
-87.5150
21
98.4950
31
0
0
LINE
8
EARS
10
-87.5150
20
98.4950
30
0
11
-87.4470
21
98.4270
31
0
0
LINE
8
EARS
10
-87.4470
20
98.4270
30
0
11
-87.4470
21
98.3590
31
0
0
LINE
8
EARS
10
-87.4470
20
98.3590
30
0
11
-87.3780
21
98.2900
31
0
0
LINE
8
EARS
10
-87.3780
20
98.2900
30
0
11
-87.3100
21
98.2220
31
0
0
LINE
8
EARS
10
-87.3100
20
98.2220
30
0
11
-87.2420
21
98.1540
31
0
0
LINE
8
EARS
10
-87.2420
20
98.1540
30
0
11
-87.1740
21
98.0850
31
0
0
LINE
8
EARS
10
-87.1740
20
98.0850
30
0
11
-87.1060
21
98.0170
31
0
0
LINE
8
EARS
10
-87.1060
20
98.0170
30
0
11
-87.0370
21
97.9490
31
0
0
LINE
8
EARS
10
-87.0370
20
97.9490
30
0
11
-86.9690
21
97.8800
31
0
0
LINE
8
EARS
10
-86.9690
20
97.8800
30
0
11
-86.9010
21
97.8120
31
0
0
LINE
8
EARS
10
-86.9010
20
97.8120
30
0
11
-86.8330
21
97.7440
31
0
0
LINE
8
EARS
10
-86.8330
20
97.7440
30
0
11
-86.7650
21
97.6750
31
0
0
LINE
8
EARS
10
-86.7650
20
97.6750
30
0
11
-86.6960
21
97.6070
31
0
0
LINE
8
EARS
10
-86.6960
20
97.6070
30
0
11
-86.6280
21
97.5390
31
0
0
LINE
8
EARS
10
-86.6280
20
97.5390
30
0
11
-86.5600
21
97.4710
31
0
0
LINE
8
EARS
10
-86.5600
20
97.4710
30
0
11
-86.4920
21
97.4020
31
0
0
LINE
8
EARS
10
-86.4920
20
97.4020
30
0
11
-86.4240
21
97.3340
31
0
0
LINE
8
EARS
10
-86.4240
20
97.3340
30
0
11
-86.3560
21
97.2660
31
0
0
LINE
8
EARS
10
-86.3560
20
97.2660
30
0
11
-86.2870
21
97.1970
31
0
0
LINE
8
EARS
10
-86.2870
20
97.1970
30
0
11
-86.2190
21
97.1290
31
0
0
LINE
8
EARS
10
-86.2190
20
97.1290
30
0
11
-86.1510
21
97.0610
31
0
0
LINE
8
EARS
10
-86.1510
20
97.0610
30
0
11
-86.0830
21
96.9920
31
0
0
LINE
8
EARS
10
-86.0830
20
96.9920
30
0
11
-86.0150
21
96.9240
31
0
0
LINE
8
EARS
10
-86.0150
20
96.9240
30
0
11
-85.9460
21
96.8560
31
0
0
LINE
8
EARS
10
-85.9460
20
96.8560
30
0
11
-85.8780
21
96.7870
31
0
0
LINE
8
EARS
10
-85.8780
20
96.7870
30
0
11
-85.8100
21
96.7190
31
0
0
LINE
8
EARS
10
-85.8100
20
96.7190
30
0
11
-85.7420
21
96.6510
31
0
0
LINE
8
EARS
10
-85.7420
20
96.6510
30
0
11
-85.6740
21
96.5820
31
0
0
LINE
8
EARS
10
-85.6740
20
96.5820
30
0
11
-85.6060
21
96.5140
31
0
0
LINE
8
EARS
10
-85.6060
20
96.5140
30
0
11
-85.5370
21
96.4460
31
0
0
LINE
8
EARS
10
-85.5370
20
96.4460
30
0
11
-85.4690
21
96.3770
31
0
0
LINE
8
EARS
10
-85.4690
20
96.3770
30
0
11
-85.4010
21
96.3090
31
0
0
LINE
8
EARS
10
-85.4010
20
96.3090
30
0
11
-85.3330
21
96.2410
31
0
0
LINE
8
EARS
10
-85.3330
20
96.2410
30
0
11
-85.2650
21
96.1720
31
0
0
LINE
8
EARS
10
-85.2650
20
96.1720
30
0
11
-85.1960
21
96.1040
31
0
0
LINE
8
EARS
10
-85.1960
20
96.1040
30
0
11
-85.1280
21
96.0360
31
0
0
LINE
8
EARS
10
-85.1280
20
96.0360
30
0
11
-85.0600
21
95.9670
31
0
0
LINE
8
EARS
10
-85.0600
20
95.9670
30
0
11
-84.9920
21
95.8990
31
0
0
LINE
8
EARS
10
-84.9920
20
95.8990
30
0
11
-84.9240
21
95.8310
31
0
0
LINE
8
EARS
10
-84.9240
20
95.8310
30
0
11
-84.8560
21
95.7620
31
0
0
LINE
8
EARS
10
-84.8560
20
95.7620
30
0
11
-84.7870
21
95.6940
31
0
0
LINE
8
EARS
10
-84.7870
20
95.6940
30
0
11
-84.7190
21
95.6260
31
0
0
LINE
8
EARS
10
-84.7190
20
95.6260
30
0
11
-84.6510
21
95.5570
31
0
0
LINE
8
EARS
10
-84.6510
20
95.5570
30
0
11
-84.5830
21
95.4890
31
0
0
LINE
8
EARS
10
-84.5830
20
95.4890
30
0
11
-84.5150
21
95.4210
31
0
0
LINE
8
EARS
10
-84.5150
20
95.4210
30
0
11
-84.4460
21
95.3520
31
0
0
LINE
8
EARS
10
-84.4460
20
95.3520
30
0
11
-84.3780
21
95.2840
31
0
0
LINE
8
EARS
10
-84.3780
20
95.2840
30
0
11
-84.3100
21
95.2160
31
0
0
LINE
8
EARS
10
-84.3100
20
95.2160
30
0
11
-84.2420
21
95.1470
31
0
0
LINE
8
EARS
10
-84.2420
20
95.1470
30
0
11
-84.1740
21
95.0790
31
0
0
LINE
8
EARS
10
-84.1740
20
95.0790
30
0
11
-84.1050
21
95.0110
31
0
0
LINE
8
EARS
10
-84.1050
20
95.0110
30
0
11
-84.0370
21
94.9420
31
0
0
LINE
8
EARS
10
-84.0370
20
94.9420
30
0
11
-83.5600
21
94.8740
31
0
0
LINE
8
EARS
10
-83.5600
20
94.8740
30
0
11
-83.5600
21
101.6390
31
0
0
LINE
8
EARS
10
-81.2420
20
-103.4800
30
0
11
-81.1740
21
-104.9180
31
0
0
LINE
8
EARS
10
-81.1740
20
-104.9180
30
0
11
-81.1050
21
-104.9870
31
0
0
LINE
8
EARS
10
-81.1050
20
-104.9870
30
0
11
-81.1050
21
-105.0550
31
0
0
LINE
8
EARS
10
-81.1050
20
-105.0550
30
0
11
-81.0370
21
-105.1230
31
0
0
LINE
8
EARS
10
-81.0370
20
-105.1230
30
0
11
-81.0370
21
-105.1920
31
0
0
LINE
8
EARS
10
-81.0370
20
-105.1920
30
0
11
-80.9690
21
-105.2600
31
0
0
LINE
8
EARS
10
-80.9690
20
-105.2600
30
0
11
-80.9690
21
-105.3280
31
0
0
LINE
8
EARS
10
-80.9690
20
-105.3280
30
0
11
-80.9010
21
-105.3970
31
0
0
LINE
8
EARS
10
-80.9010
20
-105.3970
30
0
11
-80.9010
21
-105.4650
31
0
0
LINE
8
EARS
10
-80.9010
20
-105.4650
30
0
11
-80.8330
21
-105.5330
31
0
0
LINE
8
EARS
10
-80.8330
20
-105.5330
30
0
11
-80.8330
21
-105.6020
31
0
0
LINE
8
EARS
10
-80.8330
20
-105.6020
30
0
11
-80.7640
21
-105.6700
31
0
0
LINE
8
EARS
10
-80.7640
20
-105.6700
30
0
11
-80.6960
21
-105.7380
31
0
0
LINE
8
EARS
10
-80.6960
20
-105.7380
30
0
11
-80.6960
21
-105.8070
31
0
0
LINE
8
EARS
10
-80.6960
20
-105.8070
30
0
11
-80.6280
21
-105.8750
31
0
0
LINE
8
EARS
10
-80.6280
20
-105.8750
30
0
11
-80.6280
21
-105.9430
31
0
0
LINE
8
EARS
10
-80.6280
20
-105.9430
30
0
11
-80.5600
21
-106.0120
31
0
0
LINE
8
EARS
10
-80.5600
20
-106.0120
30
0
11
-80.5600
21
-106.0800
31
0
0
LINE
8
EARS
10
-80.5600
20
-106.0800
30
0
11
-80.4920
21
-106.1480
31
0
0
LINE
8
EARS
10
-80.4920
20
-106.1480
30
0
11
-80.4920
21
-106.2170
31
0
0
LINE
8
EARS
10
-80.4920
20
-106.2170
30
0
11
-80.4240
21
-106.2850
31
0
0
LINE
8
EARS
10
-80.4240
20
-106.2850
30
0
11
-80.4240
21
-106.3530
31
0
0
LINE
8
EARS
10
-80.4240
20
-106.3530
30
0
11
-80.3550
21
-106.4220
31
0
0
LINE
8
EARS
10
-80.3550
20
-106.4220
30
0
11
-80.2870
21
-106.4900
31
0
0
LINE
8
EARS
10
-80.2870
20
-106.4900
30
0
11
-80.2870
21
-106.5580
31
0
0
LINE
8
EARS
10
-80.2870
20
-106.5580
30
0
11
-80.2190
21
-106.6270
31
0
0
LINE
8
EARS
10
-80.2190
20
-106.6270
30
0
11
-80.1510
21
-106.6950
31
0
0
LINE
8
EARS
10
-80.1510
20
-106.6950
30
0
11
-80.0830
21
-106.7630
31
0
0
LINE
8
EARS
10
-80.0830
20
-106.7630
30
0
11
-80.0830
21
-106.8310
31
0
0
LINE
8
EARS
10
-80.0830
20
-106.8310
30
0
11
-80.0140
21
-106.9000
31
0
0
LINE
8
EARS
10
-80.0140
20
-106.9000
30
0
11
-79.9460
21
-106.9680
31
0
0
LINE
8
EARS
10
-79.9460
20
-106.9680
30
0
11
-79.8780
21
-106.9680
31
0
0
LINE
8
EARS
10
-79.8780
20
-106.9680
30
0
11
-79.8100
21
-107.0360
31
0
0
LINE
8
EARS
10
-79.8100
20
-107.0360
30
0
11
-79.7420
21
-107.1050
31
0
0
LINE
8
EARS
10
-79.7420
20
-107.1050
30
0
11
-79.6730
21
-107.1730
31
0
0
LINE
8
EARS
10
-79.6730
20
-107.1730
30
0
11
-79.6050
21
-107.1730
31
0
0
LINE
8
EARS
10
-79.6050
20
-107.1730
30
0
11
-79.5370
21
-107.2410
31
0
0
LINE
8
EARS
10
-79.5370
20
-107.2410
30
0
11
-79.4690
21
-107.2410
31
0
0
LINE
8
EARS
10
-79.4690
20
-107.2410
30
0
11
-79.4010
21
-107.3100
31
0
0
LINE
8
EARS
10
-79.4010
20
-107.3100
30
0
11
-79.3330
21
-107.3100
31
0
0
LINE
8
EARS
10
-79.3330
20
-107.3100
30
0
11
-79.2640
21
-107.3780
31
0
0
LINE
8
EARS
10
-79.2640
20
-107.3780
30
0
11
-79.1960
21
-107.3780
31
0
0
LINE
8
EARS
10
-79.1960
20
-107.3780
30
0
11
-79.1280
21
-107.3780
31
0
0
LINE
8
EARS
10
-79.1280
20
-107.3780
30
0
11
-79.0600
21
-107.3780
31
0
0
LINE
8
EARS
10
-79.0600
20
-107.3780
30
0
11
-78.9920
21
-107.4460
31
0
0
LINE
8
EARS
10
-78.9920
20
-107.4460
30
0
11
-78.9230
21
-107.4460
31
0
0
LINE
8
EARS
10
-78.9230
20
-107.4460
30
0
11
-78.8550
21
-107.4460
31
0
0
LINE
8
EARS
10
-78.8550
20
-107.4460
30
0
11
-78.7870
21
-107.4460
31
0
0
LINE
8
EARS
10
-78.7870
20
-107.4460
30
0
11
-78.7190
21
-107.4460
31
0
0
LINE
8
EARS
10
-78.7190
20
-107.4460
30
0
11
-78.6510
21
-107.4460
31
0
0
LINE
8
EARS
10
-78.6510
20
-107.4460
30
0
11
-78.5830
21
-107.4460
31
0
0
LINE
8
EARS
10
-78.5830
20
-107.4460
30
0
11
-78.5140
21
-107.4460
31
0
0
LINE
8
EARS
10
-78.5140
20
-107.4460
30
0
11
-78.4460
21
-107.4460
31
0
0
LINE
8
EARS
10
-78.4460
20
-107.4460
30
0
11
-78.3780
21
-107.4460
31
0
0
LINE
8
EARS
10
-78.3780
20
-107.4460
30
0
11
-78.3100
21
-107.4460
31
0
0
LINE
8
EARS
10
-78.3100
20
-107.4460
30
0
11
-78.2420
21
-107.4460
31
0
0
LINE
8
EARS
10
-78.2420
20
-107.4460
30
0
11
-78.1730
21
-107.4460
31
0
0
LINE
8
EARS
10
-78.1730
20
-107.4460
30
0
11
-78.1050
21
-107.3780
31
0
0
LINE
8
EARS
10
-78.1050
20
-107.3780
30
0
11
-78.0370
21
-107.3780
31
0
0
LINE
8
EARS
10
-78.0370
20
-107.3780
30
0
11
-77.9690
21
-107.3780
31
0
0
LINE
8
EARS
10
-77.9690
20
-107.3780
30
0
11
-77.9010
21
-107.3780
31
0
0
LINE
8
EARS
10
-77.9010
20
-107.3780
30
0
11
-77.8330
21
-107.3100
31
0
0
LINE
8
EARS
10
-77.8330
20
-107.3100
30
0
11
-77.7640
21
-107.3100
31
0
0
LINE
8
EARS
10
-77.7640
20
-107.3100
30
0
11
-77.6960
21
-107.2410
31
0
0
LINE
8
EARS
10
-77.6960
20
-107.2410
30
0
11
-77.6280
21
-107.2410
31
0
0
LINE
8
EARS
10
-77.6280
20
-107.2410
30
0
11
-77.5600
21
-107.2410
31
0
0
LINE
8
EARS
10
-77.5600
20
-107.2410
30
0
11
-77.4920
21
-107.1730
31
0
0
LINE
8
EARS
10
-77.4920
20
-107.1730
30
0
11
-77.4230
21
-107.1050
31
0
0
LINE
8
EARS
10
-77.4230
20
-107.1050
30
0
11
-77.3550
21
-107.1050
31
0
0
LINE
8
EARS
10
-77.3550
20
-107.1050
30
0
11
-77.2870
21
-107.0360
31
0
0
LINE
8
EARS
10
-77.2870
20
-107.0360
30
0
11
-77.2190
21
-106.9680
31
0
0
LINE
8
EARS
10
-77.2190
20
-106.9680
30
0
11
-77.1510
21
-106.9000
31
0
0
LINE
8
EARS
10
-77.1510
20
-106.9000
30
0
11
-77.0820
21
-106.8310
31
0
0
LINE
8
EARS
10
-77.0820
20
-106.8310
30
0
11
-77.0140
21
-106.7630
31
0
0
LINE
8
EARS
10
-77.0140
20
-106.7630
30
0
11
-76.9460
21
-106.6950
31
0
0
LINE
8
EARS
10
-76.9460
20
-106.6950
30
0
11
-76.8780
21
-106.6270
31
0
0
LINE
8
EARS
10
-76.8780
20
-106.6270
30
0
11
-76.8100
21
-106.5580
31
0
0
LINE
8
EARS
10
-76.8100
20
-106.5580
30
0
11
-76.8100
21
-106.4900
31
0
0
LINE
8
EARS
10
-76.8100
20
-106.4900
30
0
11
-76.7420
21
-106.4220
31
0
0
LINE
8
EARS
10
-76.7420
20
-106.4220
30
0
11
-76.7420
21
-106.3530
31
0
0
LINE
8
EARS
10
-76.7420
20
-106.3530
30
0
11
-76.6730
21
-106.2850
31
0
0
LINE
8
EARS
10
-76.6730
20
-106.2850
30
0
11
-76.6730
21
-106.2170
31
0
0
LINE
8
EARS
10
-76.6730
20
-106.2170
30
0
11
-76.6730
21
-106.1480
31
0
0
LINE
8
EARS
10
-76.6730
20
-106.1480
30
0
11
-76.6050
21
-106.0800
31
0
0
LINE
8
EARS
10
-76.6050
20
-106.0800
30
0
11
-76.6050
21
-106.0120
31
0
0
LINE
8
EARS
10
-76.6050
20
-106.0120
30
0
11
-76.6050
21
-105.9430
31
0
0
LINE
8
EARS
10
-76.6050
20
-105.9430
30
0
11
-76.6050
21
-105.8750
31
0
0
LINE
8
EARS
10
-76.6050
20
-105.8750
30
0
11
-76.5370
21
-105.8070
31
0
0
LINE
8
EARS
10
-76.5370
20
-105.8070
30
0
11
-76.5370
21
-105.7380
31
0
0
LINE
8
EARS
10
-76.5370
20
-105.7380
30
0
11
-76.5370
21
-105.6700
31
0
0
LINE
8
EARS
10
-76.5370
20
-105.6700
30
0
11
-76.5370
21
-105.6020
31
0
0
LINE
8
EARS
10
-76.5370
20
-105.6020
30
0
11
-76.5370
21
-105.5330
31
0
0
LINE
8
EARS
10
-76.5370
20
-105.5330
30
0
11
-76.4690
21
-105.4650
31
0
0
LINE
8
EARS
10
-76.4690
20
-105.4650
30
0
11
-76.4690
21
-105.3970
31
0
0
LINE
8
EARS
10
-76.4690
20
-105.3970
30
0
11
-76.4690
21
-105.3280
31
0
0
LINE
8
EARS
10
-76.4690
20
-105.3280
30
0
11
-76.4690
21
-105.2600
31
0
0
LINE
8
EARS
10
-76.4690
20
-105.2600
30
0
11
-76.4690
21
-105.1920
31
0
0
LINE
8
EARS
10
-76.4690
20
-105.1920
30
0
11
-76.4690
21
-105.1230
31
0
0
LINE
8
EARS
10
-76.4690
20
-105.1230
30
0
11
-76.4690
21
-105.0550
31
0
0
LINE
8
EARS
10
-76.4690
20
-105.0550
30
0
11
-76.4690
21
-104.9870
31
0
0
LINE
8
EARS
10
-76.4690
20
-104.9870
30
0
11
-76.4690
21
-104.9180
31
0
0
LINE
8
EARS
10
-76.4690
20
-104.9180
30
0
11
-76.4690
21
-103.4800
31
0
0
LINE
8
EARS
10
-76.4690
20
-103.4800
30
0
11
-81.2420
21
-103.4800
31
0
0
LINE
8
EARS
10
73.1280
20
-104.4400
30
0
11
73.1280
21
-104.9180
31
0
0
LINE
8
EARS
10
73.1280
20
-104.9180
30
0
11
73.1960
21
-104.9870
31
0
0
LINE
8
EARS
10
73.1960
20
-104.9870
30
0
11
73.2640
21
-105.0550
31
0
0
LINE
8
EARS
10
73.2640
20
-105.0550
30
0
11
73.3320
21
-105.1230
31
0
0
LINE
8
EARS
10
73.3320
20
-105.1230
30
0
11
73.4010
21
-105.1920
31
0
0
LINE
8
EARS
10
73.4010
20
-105.1920
30
0
11
73.4690
21
-105.2600
31
0
0
LINE
8
EARS
10
73.4690
20
-105.2600
30
0
11
73.5370
21
-105.3280
31
0
0
LINE
8
EARS
10
73.5370
20
-105.3280
30
0
11
73.6050
21
-105.3280
31
0
0
LINE
8
EARS
10
73.6050
20
-105.3280
30
0
11
73.6730
21
-105.3970
31
0
0
LINE
8
EARS
10
73.6730
20
-105.3970
30
0
11
73.7410
21
-105.4650
31
0
0
LINE
8
EARS
10
73.7410
20
-105.4650
30
0
11
73.8100
21
-105.5330
31
0
0
LINE
8
EARS
10
73.8100
20
-105.5330
30
0
11
73.8780
21
-105.6020
31
0
0
LINE
8
EARS
10
73.8780
20
-105.6020
30
0
11
73.9460
21
-105.6700
31
0
0
LINE
8
EARS
10
73.9460
20
-105.6700
30
0
11
74.0140
21
-105.7380
31
0
0
LINE
8
EARS
10
74.0140
20
-105.7380
30
0
11
74.0820
21
-105.8070
31
0
0
LINE
8
EARS
10
74.0820
20
-105.8070
30
0
11
74.1510
21
-105.8750
31
0
0
LINE
8
EARS
10
74.1510
20
-105.8750
30
0
11
74.2190
21
-105.9430
31
0
0
LINE
8
EARS
10
74.2190
20
-105.9430
30
0
11
74.2870
21
-106.0120
31
0
0
LINE
8
EARS
10
74.2870
20
-106.0120
30
0
11
74.3550
21
-106.0800
31
0
0
LINE
8
EARS
10
74.3550
20
-106.0800
30
0
11
74.4230
21
-106.1480
31
0
0
LINE
8
EARS
10
74.4230
20
-106.1480
30
0
11
74.4910
21
-106.2170
31
0
0
LINE
8
EARS
10
74.4910
20
-106.2170
30
0
11
74.5600
21
-106.2850
31
0
0
LINE
8
EARS
10
74.5600
20
-106.2850
30
0
11
74.6280
21
-106.3530
31
0
0
LINE
8
EARS
10
74.6280
20
-106.3530
30
0
11
74.6960
21
-106.4220
31
0
0
LINE
8
EARS
10
74.6960
20
-106.4220
30
0
11
74.7640
21
-106.4900
31
0
0
LINE
8
EARS
10
74.7640
20
-106.4900
30
0
11
74.8320
21
-106.5580
31
0
0
LINE
8
EARS
10
74.8320
20
-106.5580
30
0
11
74.9010
21
-106.6270
31
0
0
LINE
8
EARS
10
74.9010
20
-106.6270
30
0
11
74.9690
21
-106.6950
31
0
0
LINE
8
EARS
10
74.9690
20
-106.6950
30
0
11
75.0370
21
-106.7630
31
0
0
LINE
8
EARS
10
75.0370
20
-106.7630
30
0
11
75.1050
21
-106.8310
31
0
0
LINE
8
EARS
10
75.1050
20
-106.8310
30
0
11
75.1730
21
-106.9000
31
0
0
LINE
8
EARS
10
75.1730
20
-106.9000
30
0
11
75.2420
21
-106.9680
31
0
0
LINE
8
EARS
10
75.2420
20
-106.9680
30
0
11
75.3100
21
-107.0360
31
0
0
LINE
8
EARS
10
75.3100
20
-107.0360
30
0
11
75.3780
21
-107.1050
31
0
0
LINE
8
EARS
10
75.3780
20
-107.1050
30
0
11
75.4460
21
-107.1730
31
0
0
LINE
8
EARS
10
75.4460
20
-107.1730
30
0
11
75.5140
21
-107.2410
31
0
0
LINE
8
EARS
10
75.5140
20
-107.2410
30
0
11
75.5820
21
-107.3100
31
0
0
LINE
8
EARS
10
75.5820
20
-107.3100
30
0
11
75.6510
21
-107.3780
31
0
0
LINE
8
EARS
10
75.6510
20
-107.3780
30
0
11
75.7190
21
-107.4460
31
0
0
LINE
8
EARS
10
75.7190
20
-107.4460
30
0
11
75.7870
21
-107.5150
31
0
0
LINE
8
EARS
10
75.7870
20
-107.5150
30
0
11
75.8550
21
-107.5830
31
0
0
LINE
8
EARS
10
75.8550
20
-107.5830
30
0
11
75.9230
21
-107.6510
31
0
0
LINE
8
EARS
10
75.9230
20
-107.6510
30
0
11
75.9920
21
-107.7200
31
0
0
LINE
8
EARS
10
75.9920
20
-107.7200
30
0
11
76.0600
21
-107.7880
31
0
0
LINE
8
EARS
10
76.0600
20
-107.7880
30
0
11
76.1280
21
-107.8560
31
0
0
LINE
8
EARS
10
76.1280
20
-107.8560
30
0
11
76.1960
21
-107.9250
31
0
0
LINE
8
EARS
10
76.1960
20
-107.9250
30
0
11
76.2640
21
-107.9930
31
0
0
LINE
8
EARS
10
76.2640
20
-107.9930
30
0
11
76.3320
21
-108.0610
31
0
0
LINE
8
EARS
10
76.3320
20
-108.0610
30
0
11
76.4010
21
-108.1300
31
0
0
LINE
8
EARS
10
76.4010
20
-108.1300
30
0
11
76.4690
21
-108.1980
31
0
0
LINE
8
EARS
10
76.4690
20
-108.1980
30
0
11
76.5370
21
-108.2660
31
0
0
LINE
8
EARS
10
76.5370
20
-108.2660
30
0
11
76.6050
21
-108.3350
31
0
0
LINE
8
EARS
10
76.6050
20
-108.3350
30
0
11
76.6730
21
-108.4030
31
0
0
LINE
8
EARS
10
76.6730
20
-108.4030
30
0
11
76.7420
21
-108.4710
31
0
0
LINE
8
EARS
10
76.7420
20
-108.4710
30
0
11
76.8100
21
-108.5400
31
0
0
LINE
8
EARS
10
76.8100
20
-108.5400
30
0
11
76.8780
21
-108.6080
31
0
0
LINE
8
EARS
10
76.8780
20
-108.6080
30
0
11
76.9460
21
-108.6760
31
0
0
LINE
8
EARS
10
76.9460
20
-108.6760
30
0
11
77.0140
21
-108.7450
31
0
0
LINE
8
EARS
10
77.0140
20
-108.7450
30
0
11
77.0820
21
-108.8130
31
0
0
LINE
8
EARS
10
77.0820
20
-108.8130
30
0
11
77.1510
21
-108.8810
31
0
0
LINE
8
EARS
10
77.1510
20
-108.8810
30
0
11
77.2190
21
-108.9500
31
0
0
LINE
8
EARS
10
77.2190
20
-108.9500
30
0
11
77.2870
21
-109.0180
31
0
0
LINE
8
EARS
10
77.2870
20
-109.0180
30
0
11
77.3550
21
-109.0180
31
0
0
LINE
8
EARS
10
77.3550
20
-109.0180
30
0
11
77.4230
21
-109.0860
31
0
0
LINE
8
EARS
10
77.4230
20
-109.0860
30
0
11
77.4920
21
-109.0860
31
0
0
LINE
8
EARS
10
77.4920
20
-109.0860
30
0
11
77.5600
21
-109.1550
31
0
0
LINE
8
EARS
10
77.5600
20
-109.1550
30
0
11
77.6280
21
-109.1550
31
0
0
LINE
8
EARS
10
77.6280
20
-109.1550
30
0
11
77.6960
21
-109.2230
31
0
0
LINE
8
EARS
10
77.6960
20
-109.2230
30
0
11
77.7640
21
-109.2230
31
0
0
LINE
8
EARS
10
77.7640
20
-109.2230
30
0
11
77.8330
21
-109.2910
31
0
0
LINE
8
EARS
10
77.8330
20
-109.2910
30
0
11
77.9010
21
-109.2910
31
0
0
LINE
8
EARS
10
77.9010
20
-109.2910
30
0
11
77.9690
21
-109.2910
31
0
0
LINE
8
EARS
10
77.9690
20
-109.2910
30
0
11
78.0370
21
-109.2910
31
0
0
LINE
8
EARS
10
78.0370
20
-109.2910
30
0
11
78.1050
21
-109.3600
31
0
0
LINE
8
EARS
10
78.1050
20
-109.3600
30
0
11
78.1730
21
-109.3600
31
0
0
LINE
8
EARS
10
78.1730
20
-109.3600
30
0
11
78.2420
21
-109.3600
31
0
0
LINE
8
EARS
10
78.2420
20
-109.3600
30
0
11
78.3100
21
-109.3600
31
0
0
LINE
8
EARS
10
78.3100
20
-109.3600
30
0
11
78.3780
21
-109.3600
31
0
0
LINE
8
EARS
10
78.3780
20
-109.3600
30
0
11
78.4460
21
-109.3600
31
0
0
LINE
8
EARS
10
78.4460
20
-109.3600
30
0
11
78.5140
21
-109.3600
31
0
0
LINE
8
EARS
10
78.5140
20
-109.3600
30
0
11
78.5830
21
-109.3600
31
0
0
LINE
8
EARS
10
78.5830
20
-109.3600
30
0
11
78.6510
21
-109.3600
31
0
0
LINE
8
EARS
10
78.6510
20
-109.3600
30
0
11
78.7190
21
-109.3600
31
0
0
LINE
8
EARS
10
78.7190
20
-109.3600
30
0
11
78.7870
21
-109.3600
31
0
0
LINE
8
EARS
10
78.7870
20
-109.3600
30
0
11
78.8550
21
-109.2910
31
0
0
LINE
8
EARS
10
78.8550
20
-109.2910
30
0
11
78.9230
21
-109.2910
31
0
0
LINE
8
EARS
10
78.9230
20
-109.2910
30
0
11
78.9920
21
-109.2910
31
0
0
LINE
8
EARS
10
78.9920
20
-109.2910
30
0
11
79.0600
21
-109.2910
31
0
0
LINE
8
EARS
10
79.0600
20
-109.2910
30
0
11
79.1280
21
-109.2230
31
0
0
LINE
8
EARS
10
79.1280
20
-109.2230
30
0
11
79.1960
21
-109.2230
31
0
0
LINE
8
EARS
10
79.1960
20
-109.2230
30
0
11
79.2640
21
-109.1550
31
0
0
LINE
8
EARS
10
79.2640
20
-109.1550
30
0
11
79.3330
21
-109.1550
31
0
0
LINE
8
EARS
10
79.3330
20
-109.1550
30
0
11
79.4010
21
-109.0860
31
0
0
LINE
8
EARS
10
79.4010
20
-109.0860
30
0
11
79.4690
21
-109.0860
31
0
0
LINE
8
EARS
10
79.4690
20
-109.0860
30
0
11
79.5370
21
-109.0180
31
0
0
LINE
8
EARS
10
79.5370
20
-109.0180
30
0
11
79.6050
21
-109.0180
31
0
0
LINE
8
EARS
10
79.6050
20
-109.0180
30
0
11
79.6730
21
-108.9500
31
0
0
LINE
8
EARS
10
79.6730
20
-108.9500
30
0
11
79.7420
21
-108.8810
31
0
0
LINE
8
EARS
10
79.7420
20
-108.8810
30
0
11
79.8100
21
-108.8130
31
0
0
LINE
8
EARS
10
79.8100
20
-108.8130
30
0
11
79.8780
21
-108.7450
31
0
0
LINE
8
EARS
10
79.8780
20
-108.7450
30
0
11
79.9460
21
-108.6760
31
0
0
LINE
8
EARS
10
79.9460
20
-108.6760
30
0
11
80.0140
21
-108.6080
31
0
0
LINE
8
EARS
10
80.0140
20
-108.6080
30
0
11
80.0830
21
-108.5400
31
0
0
LINE
8
EARS
10
80.0830
20
-108.5400
30
0
11
80.1510
21
-108.4710
31
0
0
LINE
8
EARS
10
80.1510
20
-108.4710
30
0
11
80.1510
21
-108.4030
31
0
0
LINE
8
EARS
10
80.1510
20
-108.4030
30
0
11
80.2190
21
-108.3350
31
0
0
LINE
8
EARS
10
80.2190
20
-108.3350
30
0
11
80.2870
21
-108.2660
31
0
0
LINE
8
EARS
10
80.2870
20
-108.2660
30
0
11
80.2870
21
-108.1980
31
0
0
LINE
8
EARS
10
80.2870
20
-108.1980
30
0
11
80.3550
21
-108.1300
31
0
0
LINE
8
EARS
10
80.3550
20
-108.1300
30
0
11
80.3550
21
-108.0610
31
0
0
LINE
8
EARS
10
80.3550
20
-108.0610
30
0
11
80.3550
21
-107.9930
31
0
0
LINE
8
EARS
10
80.3550
20
-107.9930
30
0
11
80.4240
21
-107.9250
31
0
0
LINE
8
EARS
10
80.4240
20
-107.9250
30
0
11
80.4240
21
-107.8560
31
0
0
LINE
8
EARS
10
80.4240
20
-107.8560
30
0
11
80.4920
21
-107.7880
31
0
0
LINE
8
EARS
10
80.4920
20
-107.7880
30
0
11
80.4920
21
-107.7200
31
0
0
LINE
8
EARS
10
80.4920
20
-107.7200
30
0
11
80.4920
21
-107.6510
31
0
0
LINE
8
EARS
10
80.4920
20
-107.6510
30
0
11
80.4920
21
-107.5830
31
0
0
LINE
8
EARS
10
80.4920
20
-107.5830
30
0
11
80.4920
21
-107.5150
31
0
0
LINE
8
EARS
10
80.4920
20
-107.5150
30
0
11
80.4920
21
-107.4460
31
0
0
LINE
8
EARS
10
80.4920
20
-107.4460
30
0
11
80.4920
21
-107.3780
31
0
0
LINE
8
EARS
10
80.4920
20
-107.3780
30
0
11
80.4920
21
-107.3100
31
0
0
LINE
8
EARS
10
80.4920
20
-107.3100
30
0
11
80.4920
21
-107.2410
31
0
0
LINE
8
EARS
10
80.4920
20
-107.2410
30
0
11
80.4920
21
-107.1730
31
0
0
LINE
8
EARS
10
80.4920
20
-107.1730
30
0
11
80.4920
21
-107.1050
31
0
0
LINE
8
EARS
10
80.4920
20
-107.1050
30
0
11
80.4920
21
-107.0360
31
0
0
LINE
8
EARS
10
80.4920
20
-107.0360
30
0
11
80.4920
21
-106.9680
31
0
0
LINE
8
EARS
10
80.4920
20
-106.9680
30
0
11
80.4920
21
-106.9000
31
0
0
LINE
8
EARS
10
80.4920
20
-106.9000
30
0
11
80.4920
21
-106.8310
31
0
0
LINE
8
EARS
10
80.4920
20
-106.8310
30
0
11
80.4920
21
-106.7630
31
0
0
LINE
8
EARS
10
80.4920
20
-106.7630
30
0
11
80.4920
21
-106.6950
31
0
0
LINE
8
EARS
10
80.4920
20
-106.6950
30
0
11
80.4920
21
-106.6270
31
0
0
LINE
8
EARS
10
80.4920
20
-106.6270
30
0
11
80.4920
21
-106.5580
31
0
0
LINE
8
EARS
10
80.4920
20
-106.5580
30
0
11
80.4920
21
-106.4900
31
0
0
LINE
8
EARS
10
80.4920
20
-106.4900
30
0
11
80.4920
21
-106.4220
31
0
0
LINE
8
EARS
10
80.4920
20
-106.4220
30
0
11
80.4920
21
-106.3530
31
0
0
LINE
8
EARS
10
80.4920
20
-106.3530
30
0
11
80.4920
21
-106.2850
31
0
0
LINE
8
EARS
10
80.4920
20
-106.2850
30
0
11
80.4920
21
-106.2170
31
0
0
LINE
8
EARS
10
80.4920
20
-106.2170
30
0
11
80.4920
21
-106.1480
31
0
0
LINE
8
EARS
10
80.4920
20
-106.1480
30
0
11
80.4920
21
-106.0800
31
0
0
LINE
8
EARS
10
80.4920
20
-106.0800
30
0
11
80.4920
21
-106.0120
31
0
0
LINE
8
EARS
10
80.4920
20
-106.0120
30
0
11
80.4920
21
-105.9430
31
0
0
LINE
8
EARS
10
80.4920
20
-105.9430
30
0
11
80.4920
21
-105.8750
31
0
0
LINE
8
EARS
10
80.4920
20
-105.8750
30
0
11
80.4920
21
-105.8070
31
0
0
LINE
8
EARS
10
80.4920
20
-105.8070
30
0
11
80.4920
21
-105.7380
31
0
0
LINE
8
EARS
10
80.4920
20
-105.7380
30
0
11
80.4920
21
-105.6700
31
0
0
LINE
8
EARS
10
80.4920
20
-105.6700
30
0
11
80.4920
21
-105.6020
31
0
0
LINE
8
EARS
10
80.4920
20
-105.6020
30
0
11
80.4920
21
-105.5330
31
0
0
LINE
8
EARS
10
80.4920
20
-105.5330
30
0
11
80.4920
21
-105.4650
31
0
0
LINE
8
EARS
10
80.4920
20
-105.4650
30
0
11
80.4920
21
-105.3970
31
0
0
LINE
8
EARS
10
80.4920
20
-105.3970
30
0
11
80.4920
21
-105.3280
31
0
0
LINE
8
EARS
10
80.4920
20
-105.3280
30
0
11
80.4920
21
-105.2600
31
0
0
LINE
8
EARS
10
80.4920
20
-105.2600
30
0
11
80.4920
21
-105.1920
31
0
0
LINE
8
EARS
10
80.4920
20
-105.1920
30
0
11
80.4920
21
-105.1230
31
0
0
LINE
8
EARS
10
80.4920
20
-105.1230
30
0
11
80.4920
21
-105.0550
31
0
0
LINE
8
EARS
10
80.4920
20
-105.0550
30
0
11
80.4920
21
-104.9870
31
0
0
LINE
8
EARS
10
80.4920
20
-104.9870
30
0
11
80.4920
21
-104.9180
31
0
0
LINE
8
EARS
10
80.4920
20
-104.9180
30
0
11
80.4920
21
-104.4400
31
0
0
LINE
8
EARS
10
80.4920
20
-104.4400
30
0
11
73.1280
21
-104.4400
31
0
0
LINE
8
EARS
10
80.1510
20
104.4400
30
0
11
80.1510
21
104.9180
31
0
0
LINE
8
EARS
10
80.1510
20
104.9180
30
0
11
80.1510
21
104.9870
31
0
0
LINE
8
EARS
10
80.1510
20
104.9870
30
0
11
80.1510
21
105.0550
31
0
0
LINE
8
EARS
10
80.1510
20
105.0550
30
0
11
80.1510
21
105.1230
31
0
0
LINE
8
EARS
10
80.1510
20
105.1230
30
0
11
80.1510
21
105.1920
31
0
0
LINE
8
EARS
10
80.1510
20
105.1920
30
0
11
80.1510
21
105.2600
31
0
0
LINE
8
EARS
10
80.1510
20
105.2600
30
0
11
80.1510
21
105.3280
31
0
0
LINE
8
EARS
10
80.1510
20
105.3280
30
0
11
80.1510
21
105.3970
31
0
0
LINE
8
EARS
10
80.1510
20
105.3970
30
0
11
80.1510
21
105.4650
31
0
0
LINE
8
EARS
10
80.1510
20
105.4650
30
0
11
80.1510
21
105.5330
31
0
0
LINE
8
EARS
10
80.1510
20
105.5330
30
0
11
80.1510
21
105.6020
31
0
0
LINE
8
EARS
10
80.1510
20
105.6020
30
0
11
80.1510
21
105.6700
31
0
0
LINE
8
EARS
10
80.1510
20
105.6700
30
0
11
80.1510
21
105.7380
31
0
0
LINE
8
EARS
10
80.1510
20
105.7380
30
0
11
80.1510
21
105.8070
31
0
0
LINE
8
EARS
10
80.1510
20
105.8070
30
0
11
80.1510
21
105.8750
31
0
0
LINE
8
EARS
10
80.1510
20
105.8750
30
0
11
80.1510
21
105.9430
31
0
0
LINE
8
EARS
10
80.1510
20
105.9430
30
0
11
80.1510
21
106.0120
31
0
0
LINE
8
EARS
10
80.1510
20
106.0120
30
0
11
80.1510
21
106.0800
31
0
0
LINE
8
EARS
10
80.1510
20
106.0800
30
0
11
80.1510
21
106.1480
31
0
0
LINE
8
EARS
10
80.1510
20
106.1480
30
0
11
80.1510
21
106.2170
31
0
0
LINE
8
EARS
10
80.1510
20
106.2170
30
0
11
80.1510
21
106.2850
31
0
0
LINE
8
EARS
10
80.1510
20
106.2850
30
0
11
80.1510
21
106.3530
31
0
0
LINE
8
EARS
10
80.1510
20
106.3530
30
0
11
80.1510
21
106.4220
31
0
0
LINE
8
EARS
10
80.1510
20
106.4220
30
0
11
80.1510
21
106.4900
31
0
0
LINE
8
EARS
10
80.1510
20
106.4900
30
0
11
80.1510
21
106.5580
31
0
0
LINE
8
EARS
10
80.1510
20
106.5580
30
0
11
80.1510
21
106.6270
31
0
0
LINE
8
EARS
10
80.1510
20
106.6270
30
0
11
80.1510
21
106.6950
31
0
0
LINE
8
EARS
10
80.1510
20
106.6950
30
0
11
80.0830
21
106.7630
31
0
0
LINE
8
EARS
10
80.0830
20
106.7630
30
0
11
80.0830
21
106.8310
31
0
0
LINE
8
EARS
10
80.0830
20
106.8310
30
0
11
80.0830
21
106.9000
31
0
0
LINE
8
EARS
10
80.0830
20
106.9000
30
0
11
80.0830
21
106.9680
31
0
0
LINE
8
EARS
10
80.0830
20
106.9680
30
0
11
80.0830
21
107.0360
31
0
0
LINE
8
EARS
10
80.0830
20
107.0360
30
0
11
80.0830
21
107.1050
31
0
0
LINE
8
EARS
10
80.0830
20
107.1050
30
0
11
80.0140
21
107.1730
31
0
0
LINE
8
EARS
10
80.0140
20
107.1730
30
0
11
80.0140
21
107.2410
31
0
0
LINE
8
EARS
10
80.0140
20
107.2410
30
0
11
80.0140
21
107.3100
31
0
0
LINE
8
EARS
10
80.0140
20
107.3100
30
0
11
79.9460
21
107.3780
31
0
0
LINE
8
EARS
10
79.9460
20
107.3780
30
0
11
79.9460
21
107.4460
31
0
0
LINE
8
EARS
10
79.9460
20
107.4460
30
0
11
79.9460
21
107.5150
31
0
0
LINE
8
EARS
10
79.9460
20
107.5150
30
0
11
79.8780
21
107.5830
31
0
0
LINE
8
EARS
10
79.8780
20
107.5830
30
0
11
79.8780
21
107.6510
31
0
0
LINE
8
EARS
10
79.8780
20
107.6510
30
0
11
79.8100
21
107.7200
31
0
0
LINE
8
EARS
10
79.8100
20
107.7200
30
0
11
79.7420
21
107.7880
31
0
0
LINE
8
EARS
10
79.7420
20
107.7880
30
0
11
79.7420
21
107.8560
31
0
0
LINE
8
EARS
10
79.7420
20
107.8560
30
0
11
79.6730
21
107.9250
31
0
0
LINE
8
EARS
10
79.6730
20
107.9250
30
0
11
79.6050
21
107.9930
31
0
0
LINE
8
EARS
10
79.6050
20
107.9930
30
0
11
79.5370
21
108.0610
31
0
0
LINE
8
EARS
10
79.5370
20
108.0610
30
0
11
79.4690
21
108.1300
31
0
0
LINE
8
EARS
10
79.4690
20
108.1300
30
0
11
79.4010
21
108.1980
31
0
0
LINE
8
EARS
10
79.4010
20
108.1980
30
0
11
79.3330
21
108.2660
31
0
0
LINE
8
EARS
10
79.3330
20
108.2660
30
0
11
79.2640
21
108.2660
31
0
0
LINE
8
EARS
10
79.2640
20
108.2660
30
0
11
79.1960
21
108.3350
31
0
0
LINE
8
EARS
10
79.1960
20
108.3350
30
0
11
79.1280
21
108.4030
31
0
0
LINE
8
EARS
10
79.1280
20
108.4030
30
0
11
79.0600
21
108.4030
31
0
0
LINE
8
EARS
10
79.0600
20
108.4030
30
0
11
78.9920
21
108.4710
31
0
0
LINE
8
EARS
10
78.9920
20
108.4710
30
0
11
78.9230
21
108.4710
31
0
0
LINE
8
EARS
10
78.9230
20
108.4710
30
0
11
78.8550
21
108.4710
31
0
0
LINE
8
EARS
10
78.8550
20
108.4710
30
0
11
78.7870
21
108.5400
31
0
0
LINE
8
EARS
10
78.7870
20
108.5400
30
0
11
78.7190
21
108.5400
31
0
0
LINE
8
EARS
10
78.7190
20
108.5400
30
0
11
78.6510
21
108.6080
31
0
0
LINE
8
EARS
10
78.6510
20
108.6080
30
0
11
78.5830
21
108.6080
31
0
0
LINE
8
EARS
10
78.5830
20
108.6080
30
0
11
78.5140
21
108.6080
31
0
0
LINE
8
EARS
10
78.5140
20
108.6080
30
0
11
78.4460
21
108.6080
31
0
0
LINE
8
EARS
10
78.4460
20
108.6080
30
0
11
78.3780
21
108.6080
31
0
0
LINE
8
EARS
10
78.3780
20
108.6080
30
0
11
78.3100
21
108.6760
31
0
0
LINE
8
EARS
10
78.3100
20
108.6760
30
0
11
78.2420
21
108.6760
31
0
0
LINE
8
EARS
10
78.2420
20
108.6760
30
0
11
78.1730
21
108.6760
31
0
0
LINE
8
EARS
10
78.1730
20
108.6760
30
0
11
78.1050
21
108.6760
31
0
0
LINE
8
EARS
10
78.1050
20
108.6760
30
0
11
78.0370
21
108.6760
31
0
0
LINE
8
EARS
10
78.0370
20
108.6760
30
0
11
77.9690
21
108.6760
31
0
0
LINE
8
EARS
10
77.9690
20
108.6760
30
0
11
77.9010
21
108.6760
31
0
0
LINE
8
EARS
10
77.9010
20
108.6760
30
0
11
77.8330
21
108.6760
31
0
0
LINE
8
EARS
10
77.8330
20
108.6760
30
0
11
77.7640
21
108.6760
31
0
0
LINE
8
EARS
10
77.7640
20
108.6760
30
0
11
77.6960
21
108.6080
31
0
0
LINE
8
EARS
10
77.6960
20
108.6080
30
0
11
77.6280
21
108.6080
31
0
0
LINE
8
EARS
10
77.6280
20
108.6080
30
0
11
77.5600
21
108.6080
31
0
0
LINE
8
EARS
10
77.5600
20
108.6080
30
0
11
77.4920
21
108.6080
31
0
0
LINE
8
EARS
10
77.4920
20
108.6080
30
0
11
77.4230
21
108.5400
31
0
0
LINE
8
EARS
10
77.4230
20
108.5400
30
0
11
77.3550
21
108.5400
31
0
0
LINE
8
EARS
10
77.3550
20
108.5400
30
0
11
77.2870
21
108.5400
31
0
0
LINE
8
EARS
10
77.2870
20
108.5400
30
0
11
77.2190
21
108.4710
31
0
0
LINE
8
EARS
10
77.2190
20
108.4710
30
0
11
77.1510
21
108.4710
31
0
0
LINE
8
EARS
10
77.1510
20
108.4710
30
0
11
77.0820
21
108.4030
31
0
0
LINE
8
EARS
10
77.0820
20
108.4030
30
0
11
77.0140
21
108.3350
31
0
0
LINE
8
EARS
10
77.0140
20
108.3350
30
0
11
76.9460
21
108.3350
31
0
0
LINE
8
EARS
10
76.9460
20
108.3350
30
0
11
76.8780
21
108.2660
31
0
0
LINE
8
EARS
10
76.8780
20
108.2660
30
0
11
76.8100
21
108.1980
31
0
0
LINE
8
EARS
10
76.8100
20
108.1980
30
0
11
76.7420
21
108.1300
31
0
0
LINE
8
EARS
10
76.7420
20
108.1300
30
0
11
76.6730
21
108.0610
31
0
0
LINE
8
EARS
10
76.6730
20
108.0610
30
0
11
76.6050
21
108.0610
31
0
0
LINE
8
EARS
10
76.6050
20
108.0610
30
0
11
76.5370
21
107.9930
31
0
0
LINE
8
EARS
10
76.5370
20
107.9930
30
0
11
76.4690
21
107.9250
31
0
0
LINE
8
EARS
10
76.4690
20
107.9250
30
0
11
76.4010
21
107.8560
31
0
0
LINE
8
EARS
10
76.4010
20
107.8560
30
0
11
76.3320
21
107.7880
31
0
0
LINE
8
EARS
10
76.3320
20
107.7880
30
0
11
76.2640
21
107.7200
31
0
0
LINE
8
EARS
10
76.2640
20
107.7200
30
0
11
76.1960
21
107.6510
31
0
0
LINE
8
EARS
10
76.1960
20
107.6510
30
0
11
76.1280
21
107.5830
31
0
0
LINE
8
EARS
10
76.1280
20
107.5830
30
0
11
76.0600
21
107.5150
31
0
0
LINE
8
EARS
10
76.0600
20
107.5150
30
0
11
75.9920
21
107.4460
31
0
0
LINE
8
EARS
10
75.9920
20
107.4460
30
0
11
75.9230
21
107.3780
31
0
0
LINE
8
EARS
10
75.9230
20
107.3780
30
0
11
75.8550
21
107.3100
31
0
0
LINE
8
EARS
10
75.8550
20
107.3100
30
0
11
75.7870
21
107.2410
31
0
0
LINE
8
EARS
10
75.7870
20
107.2410
30
0
11
75.7190
21
107.1730
31
0
0
LINE
8
EARS
10
75.7190
20
107.1730
30
0
11
75.6510
21
107.1050
31
0
0
LINE
8
EARS
10
75.6510
20
107.1050
30
0
11
75.5820
21
107.0360
31
0
0
LINE
8
EARS
10
75.5820
20
107.0360
30
0
11
75.5140
21
106.9680
31
0
0
LINE
8
EARS
10
75.5140
20
106.9680
30
0
11
75.4460
21
106.9000
31
0
0
LINE
8
EARS
10
75.4460
20
106.9000
30
0
11
75.3780
21
106.8310
31
0
0
LINE
8
EARS
10
75.3780
20
106.8310
30
0
11
75.3100
21
106.7630
31
0
0
LINE
8
EARS
10
75.3100
20
106.7630
30
0
11
75.2420
21
106.6950
31
0
0
LINE
8
EARS
10
75.2420
20
106.6950
30
0
11
75.1730
21
106.6270
31
0
0
LINE
8
EARS
10
75.1730
20
106.6270
30
0
11
75.1050
21
106.5580
31
0
0
LINE
8
EARS
10
75.1050
20
106.5580
30
0
11
75.0370
21
106.4900
31
0
0
LINE
8
EARS
10
75.0370
20
106.4900
30
0
11
74.9690
21
106.4220
31
0
0
LINE
8
EARS
10
74.9690
20
106.4220
30
0
11
74.9010
21
106.3530
31
0
0
LINE
8
EARS
10
74.9010
20
106.3530
30
0
11
74.8320
21
106.2850
31
0
0
LINE
8
EARS
10
74.8320
20
106.2850
30
0
11
74.7640
21
106.2170
31
0
0
LINE
8
EARS
10
74.7640
20
106.2170
30
0
11
74.6960
21
106.1480
31
0
0
LINE
8
EARS
10
74.6960
20
106.1480
30
0
11
74.6280
21
106.0800
31
0
0
LINE
8
EARS
10
74.6280
20
106.0800
30
0
11
74.5600
21
106.0120
31
0
0
LINE
8
EARS
10
74.5600
20
106.0120
30
0
11
74.4910
21
105.9430
31
0
0
LINE
8
EARS
10
74.4910
20
105.9430
30
0
11
74.4230
21
105.8750
31
0
0
LINE
8
EARS
10
74.4230
20
105.8750
30
0
11
74.3550
21
105.8070
31
0
0
LINE
8
EARS
10
74.3550
20
105.8070
30
0
11
74.2870
21
105.7380
31
0
0
LINE
8
EARS
10
74.2870
20
105.7380
30
0
11
74.2190
21
105.6700
31
0
0
LINE
8
EARS
10
74.2190
20
105.6700
30
0
11
74.1510
21
105.6020
31
0
0
LINE
8
EARS
10
74.1510
20
105.6020
30
0
11
74.0820
21
105.5330
31
0
0
LINE
8
EARS
10
74.0820
20
105.5330
30
0
11
74.0140
21
105.4650
31
0
0
LINE
8
EARS
10
74.0140
20
105.4650
30
0
11
73.9460
21
105.3970
31
0
0
LINE
8
EARS
10
73.9460
20
105.3970
30
0
11
73.8780
21
105.3280
31
0
0
LINE
8
EARS
10
73.8780
20
105.3280
30
0
11
73.8100
21
105.2600
31
0
0
LINE
8
EARS
10
73.8100
20
105.2600
30
0
11
73.7410
21
105.1920
31
0
0
LINE
8
EARS
10
73.7410
20
105.1920
30
0
11
73.6730
21
105.1230
31
0
0
LINE
8
EARS
10
73.6730
20
105.1230
30
0
11
73.6050
21
105.0550
31
0
0
LINE
8
EARS
10
73.6050
20
105.0550
30
0
11
73.5370
21
104.9870
31
0
0
LINE
8
EARS
10
73.5370
20
104.9870
30
0
11
73.4690
21
104.9180
31
0
0
LINE
8
EARS
10
73.4690
20
104.9180
30
0
11
73.4690
21
104.4400
31
0
0
LINE
8
EARS
10
73.4690
20
104.4400
30
0
11
80.1510
21
104.4400
31
0
0
CIRCLE
8
HOLES
10
-85.7080
20
99.5550
30
0
40
1.2000
0
POINT
8
HOLE_CENTERS
10
-85.7080
20
99.5550
30
0
0
CIRCLE
8
HOLES
10
-78.5480
20
-105.4990
30
0
40
1.2000
0
POINT
8
HOLE_CENTERS
10
-78.5480
20
-105.4990
30
0
0
CIRCLE
8
HOLES
10
78.4800
20
-107.3440
30
0
40
1.2000
0
POINT
8
HOLE_CENTERS
10
78.4800
20
-107.3440
30
0
0
CIRCLE
8
HOLES
10
78.0710
20
106.5920
30
0
40
1.2000
0
POINT
8
HOLE_CENTERS
10
78.0710
20
106.5920
30
0
0
LINE
8
CONNECTOR
10
58.0000
20
26.0000
30
0
11
83.5600
21
26.0000
31
0
0
LINE
8
CONNECTOR
10
83.5600
20
26.0000
30
0
11
83.5600
21
44.0000
31
0
0
LINE
8
CONNECTOR
10
83.5600
20
44.0000
30
0
11
58.0000
21
44.0000
31
0
0
LINE
8
CONNECTOR
10
58.0000
20
44.0000
30
0
11
58.0000
21
26.0000
31
0
0
ENDSEC
0
EOF
