0
SECTION
2
ENTITIES
0
LINE
8
OUTLINE
10
-83.5608
20
-104.4397
30
0
11
83.5592
21
-104.4397
31
0
0
LINE
8
OUTLINE
10
83.5592
20
-104.4397
30
0
11
83.5592
21
104.4403
31
0
0
LINE
8
OUTLINE
10
83.5592
20
104.4403
30
0
11
-83.5608
21
104.4403
31
0
0
LINE
8
OUTLINE
10
-83.5608
20
104.4403
30
0
11
-83.5608
21
-104.4397
31
0
0
LINE
8
BEZEL
10
-77.0731
20
-101.3629
30
0
11
74.5349
21
-101.3629
31
0
0
LINE
8
BEZEL
10
74.5349
20
-101.3629
30
0
11
74.5349
21
99.6471
31
0
0
LINE
8
BEZEL
10
74.5349
20
99.6471
30
0
11
-77.0731
21
99.6471
31
0
0
LINE
8
BEZEL
10
-77.0731
20
99.6471
30
0
11
-77.0731
21
-101.3629
31
0
0
LINE
8
ACTIVE
10
-75.0325
20
-99.1892
30
0
11
72.4235
21
-99.1892
31
0
0
LINE
8
ACTIVE
10
72.4235
20
-99.1892
30
0
11
72.4235
21
97.4188
31
0
0
LINE
8
ACTIVE
10
72.4235
20
97.4188
30
0
11
-75.0325
21
97.4188
31
0
0
LINE
8
ACTIVE
10
-75.0325
20
97.4188
30
0
11
-75.0325
21
-99.1892
31
0
0
CIRCLE
8
HOLES
10
-85.6877
20
99.4934
30
0
40
1.1936
0
POINT
8
HOLE_CENTERS
10
-85.6877
20
99.4934
30
0
0
LINE
8
HOLE_CENTERS
10
-87.1877
20
99.4934
30
0
11
-84.1877
21
99.4934
31
0
0
LINE
8
HOLE_CENTERS
10
-85.6877
20
97.9934
30
0
11
-85.6877
21
100.9934
31
0
0
LINE
8
EARS
10
-86.1139
20
101.6360
30
0
11
-82.5600
21
101.6360
31
0
0
LINE
8
EARS
10
-82.5600
20
101.6360
30
0
11
-82.5600
21
101.4228
31
0
0
LINE
8
EARS
10
-82.5600
20
101.4228
30
0
11
-82.5600
21
94.9292
31
0
0
LINE
8
EARS
10
-82.5600
20
94.9292
30
0
11
-82.5600
21
94.7160
31
0
0
LINE
8
EARS
10
-82.5600
20
94.7160
30
0
11
-82.5600
21
94.7488
31
0
0
LINE
8
EARS
10
-82.5600
20
94.7488
30
0
11
-87.5049
21
98.3072
31
0
0
LINE
8
EARS
10
-87.5049
20
98.3072
30
0
11
-87.7668
21
98.7663
31
0
0
LINE
8
EARS
10
-87.7668
20
98.7663
30
0
11
-87.8977
21
99.6846
31
0
0
LINE
8
EARS
10
-87.8977
20
99.6846
30
0
11
-87.6031
21
100.5701
31
0
0
LINE
8
EARS
10
-87.6031
20
100.5701
30
0
11
-86.8994
21
101.3080
31
0
0
LINE
8
EARS
10
-86.8994
20
101.3080
30
0
11
-86.1139
21
101.6360
31
0
0
CIRCLE
8
HOLES
10
78.1112
20
106.5826
30
0
40
1.2007
0
POINT
8
HOLE_CENTERS
10
78.1112
20
106.5826
30
0
0
LINE
8
HOLE_CENTERS
10
76.6112
20
106.5826
30
0
11
79.6112
21
106.5826
31
0
0
LINE
8
HOLE_CENTERS
10
78.1112
20
105.0826
30
0
11
78.1112
21
108.0826
31
0
0
LINE
8
EARS
10
77.8644
20
108.7856
30
0
11
78.4862
21
108.7528
31
0
0
LINE
8
EARS
10
78.4862
20
108.7528
30
0
11
79.1081
21
108.5232
31
0
0
LINE
8
EARS
10
79.1081
20
108.5232
30
0
11
79.4354
21
108.2937
31
0
0
LINE
8
EARS
10
79.4354
20
108.2937
30
0
11
80.0082
21
107.6213
31
0
0
LINE
8
EARS
10
80.0082
20
107.6213
30
0
11
80.3027
21
106.6046
31
0
0
LINE
8
EARS
10
80.3027
20
106.6046
30
0
11
80.3027
21
103.4400
31
0
0
LINE
8
EARS
10
80.3027
20
103.4400
30
0
11
80.0900
21
103.4400
31
0
0
LINE
8
EARS
10
80.0900
20
103.4400
30
0
11
73.5440
21
103.4400
31
0
0
LINE
8
EARS
10
73.5440
20
103.4400
30
0
11
73.3312
21
103.4400
31
0
0
LINE
8
EARS
10
73.3312
20
103.4400
30
0
11
73.3312
21
103.4400
31
0
0
LINE
8
EARS
10
73.3312
20
103.4400
30
0
11
76.7843
21
108.2937
31
0
0
LINE
8
EARS
10
76.7843
20
108.2937
30
0
11
77.3407
21
108.6544
31
0
0
LINE
8
EARS
10
77.3407
20
108.6544
30
0
11
77.8644
21
108.7856
31
0
0
CIRCLE
8
HOLES
10
-78.5330
20
-105.4302
30
0
40
1.1991
0
POINT
8
HOLE_CENTERS
10
-78.5330
20
-105.4302
30
0
0
LINE
8
HOLE_CENTERS
10
-80.0330
20
-105.4302
30
0
11
-77.0330
21
-105.4302
31
0
0
LINE
8
HOLE_CENTERS
10
-78.5330
20
-106.9302
30
0
11
-78.5330
21
-103.9302
31
0
0
LINE
8
EARS
10
-81.2044
20
-103.4400
30
0
11
-76.5894
21
-103.4400
31
0
0
LINE
8
EARS
10
-76.5894
20
-103.4400
30
0
11
-76.3767
21
-103.4400
31
0
0
LINE
8
EARS
10
-76.3767
20
-103.4400
30
0
11
-76.3767
21
-105.5546
31
0
0
LINE
8
EARS
10
-76.3767
20
-105.5546
30
0
11
-76.5076
21
-106.1450
31
0
0
LINE
8
EARS
10
-76.5076
20
-106.1450
30
0
11
-76.8676
21
-106.7681
31
0
0
LINE
8
EARS
10
-76.8676
20
-106.7681
30
0
11
-77.3095
21
-107.1781
31
0
0
LINE
8
EARS
10
-77.3095
20
-107.1781
30
0
11
-77.8004
21
-107.4404
31
0
0
LINE
8
EARS
10
-77.8004
20
-107.4404
30
0
11
-78.4223
21
-107.5716
31
0
0
LINE
8
EARS
10
-78.4223
20
-107.5716
30
0
11
-79.2406
21
-107.4732
31
0
0
LINE
8
EARS
10
-79.2406
20
-107.4732
30
0
11
-79.8297
21
-107.1453
31
0
0
LINE
8
EARS
10
-79.8297
20
-107.1453
30
0
11
-80.5334
21
-106.3090
31
0
0
LINE
8
EARS
10
-80.5334
20
-106.3090
30
0
11
-81.4171
21
-103.4400
31
0
0
LINE
8
EARS
10
-81.4171
20
-103.4400
30
0
11
-81.2044
21
-103.4400
31
0
0
CIRCLE
8
HOLES
10
78.4861
20
-107.3170
30
0
40
1.1967
0
POINT
8
HOLE_CENTERS
10
78.4861
20
-107.3170
30
0
0
LINE
8
HOLE_CENTERS
10
76.9861
20
-107.3170
30
0
11
79.9861
21
-107.3170
31
0
0
LINE
8
HOLE_CENTERS
10
78.4861
20
-108.8170
30
0
11
78.4861
21
-105.8170
31
0
0
LINE
8
EARS
10
73.1839
20
-103.4400
30
0
11
80.4500
21
-103.4400
31
0
0
LINE
8
EARS
10
80.4500
20
-103.4400
30
0
11
80.6628
21
-103.4400
31
0
0
LINE
8
EARS
10
80.6628
20
-103.4400
30
0
11
80.6628
21
-107.5552
31
0
0
LINE
8
EARS
10
80.6628
20
-107.5552
30
0
11
80.4337
21
-108.2111
31
0
0
LINE
8
EARS
10
80.4337
20
-108.2111
30
0
11
79.7954
21
-108.9819
31
0
0
LINE
8
EARS
10
79.7954
20
-108.9819
30
0
11
79.1081
21
-109.3754
31
0
0
LINE
8
EARS
10
79.1081
20
-109.3754
30
0
11
78.3226
21
-109.4738
31
0
0
LINE
8
EARS
10
78.3226
20
-109.4738
30
0
11
77.4716
21
-109.2114
31
0
0
LINE
8
EARS
10
77.4716
20
-109.2114
30
0
11
73.0366
21
-103.4400
31
0
0
LINE
8
EARS
10
73.0366
20
-103.4400
30
0
11
72.9712
21
-103.4400
31
0
0
LINE
8
EARS
10
72.9712
20
-103.4400
30
0
11
73.1839
21
-103.4400
31
0
0
ENDSEC
0
EOF
