0
SECTION
2
ENTITIES
0
LINE
8
OUTLINE
10
167.1200
20
0.5000
30
0
11
167.1138
21
0.4218
31
0
0
LINE
8
OUTLINE
10
167.1138
20
0.4218
30
0
11
167.0955
21
0.3455
31
0
0
LINE
8
OUTLINE
10
167.0955
20
0.3455
30
0
11
167.0655
21
0.2730
31
0
0
LINE
8
OUTLINE
10
167.0655
20
0.2730
30
0
11
167.0245
21
0.2061
31
0
0
LINE
8
OUTLINE
10
167.0245
20
0.2061
30
0
11
166.9736
21
0.1464
31
0
0
LINE
8
OUTLINE
10
166.9736
20
0.1464
30
0
11
166.9139
21
0.0955
31
0
0
LINE
8
OUTLINE
10
166.9139
20
0.0955
30
0
11
166.8470
21
0.0545
31
0
0
LINE
8
OUTLINE
10
166.8470
20
0.0545
30
0
11
166.7745
21
0.0245
31
0
0
LINE
8
OUTLINE
10
166.7745
20
0.0245
30
0
11
166.6982
21
0.0062
31
0
0
LINE
8
OUTLINE
10
166.6982
20
0.0062
30
0
11
166.6200
21
0.0000
31
0
0
LINE
8
OUTLINE
10
166.6200
20
0.0000
30
0
11
0.5000
21
0.0000
31
0
0
LINE
8
OUTLINE
10
0.5000
20
0.0000
30
0
11
0.4218
21
0.0062
31
0
0
LINE
8
OUTLINE
10
0.4218
20
0.0062
30
0
11
0.3455
21
0.0245
31
0
0
LINE
8
OUTLINE
10
0.3455
20
0.0245
30
0
11
0.2730
21
0.0545
31
0
0
LINE
8
OUTLINE
10
0.2730
20
0.0545
30
0
11
0.2061
21
0.0955
31
0
0
LINE
8
OUTLINE
10
0.2061
20
0.0955
30
0
11
0.1464
21
0.1464
31
0
0
LINE
8
OUTLINE
10
0.1464
20
0.1464
30
0
11
0.0955
21
0.2061
31
0
0
LINE
8
OUTLINE
10
0.0955
20
0.2061
30
0
11
0.0545
21
0.2730
31
0
0
LINE
8
OUTLINE
10
0.0545
20
0.2730
30
0
11
0.0245
21
0.3455
31
0
0
LINE
8
OUTLINE
10
0.0245
20
0.3455
30
0
11
0.0062
21
0.4218
31
0
0
LINE
8
OUTLINE
10
0.0062
20
0.4218
30
0
11
0.0000
21
0.5000
31
0
0
LINE
8
OUTLINE
10
0.0000
20
0.5000
30
0
11
0.0000
21
207.4300
31
0
0
LINE
8
OUTLINE
10
0.0000
20
207.4300
30
0
11
0.0062
21
207.5082
31
0
0
LINE
8
OUTLINE
10
0.0062
20
207.5082
30
0
11
0.0245
21
207.5845
31
0
0
LINE
8
OUTLINE
10
0.0245
20
207.5845
30
0
11
0.0545
21
207.6570
31
0
0
LINE
8
OUTLINE
10
0.0545
20
207.6570
30
0
11
0.0955
21
207.7239
31
0
0
LINE
8
OUTLINE
10
0.0955
20
207.7239
30
0
11
0.1464
21
207.7836
31
0
0
LINE
8
OUTLINE
10
0.1464
20
207.7836
30
0
11
0.2061
21
207.8345
31
0
0
LINE
8
OUTLINE
10
0.2061
20
207.8345
30
0
11
0.2730
21
207.8755
31
0
0
LINE
8
OUTLINE
10
0.2730
20
207.8755
30
0
11
0.3455
21
207.9055
31
0
0
LINE
8
OUTLINE
10
0.3455
20
207.9055
30
0
11
0.4218
21
207.9238
31
0
0
LINE
8
OUTLINE
10
0.4218
20
207.9238
30
0
11
0.5000
21
207.9300
31
0
0
LINE
8
OUTLINE
10
0.5000
20
207.9300
30
0
11
17.5600
21
207.9300
31
0
0
LINE
8
OUTLINE
10
17.5600
20
207.9300
30
0
11
19.7600
21
208.8800
31
0
0
LINE
8
OUTLINE
10
19.7600
20
208.8800
30
0
11
166.6200
21
208.8800
31
0
0
LINE
8
OUTLINE
10
166.6200
20
208.8800
30
0
11
166.6982
21
208.8738
31
0
0
LINE
8
OUTLINE
10
166.6982
20
208.8738
30
0
11
166.7745
21
208.8555
31
0
0
LINE
8
OUTLINE
10
166.7745
20
208.8555
30
0
11
166.8470
21
208.8255
31
0
0
LINE
8
OUTLINE
10
166.8470
20
208.8255
30
0
11
166.9139
21
208.7845
31
0
0
LINE
8
OUTLINE
10
166.9139
20
208.7845
30
0
11
166.9736
21
208.7336
31
0
0
LINE
8
OUTLINE
10
166.9736
20
208.7336
30
0
11
167.0245
21
208.6739
31
0
0
LINE
8
OUTLINE
10
167.0245
20
208.6739
30
0
11
167.0655
21
208.6070
31
0
0
LINE
8
OUTLINE
10
167.0655
20
208.6070
30
0
11
167.0955
21
208.5345
31
0
0
LINE
8
OUTLINE
10
167.0955
20
208.5345
30
0
11
167.1138
21
208.4582
31
0
0
LINE
8
OUTLINE
10
167.1138
20
208.4582
30
0
11
167.1200
21
208.3800
31
0
0
LINE
8
OUTLINE
10
167.1200
20
208.3800
30
0
11
167.1200
21
0.5000
31
0
0
LINE
8
BEZEL
10
6.4869
20
205.8029
30
0
11
158.0949
21
205.8029
31
0
0
LINE
8
BEZEL
10
158.0949
20
205.8029
30
0
11
158.0949
21
4.7929
31
0
0
LINE
8
BEZEL
10
158.0949
20
4.7929
30
0
11
6.4869
21
4.7929
31
0
0
LINE
8
BEZEL
10
6.4869
20
4.7929
30
0
11
6.4869
21
205.8029
31
0
0
LINE
8
ACTIVE
10
8.5275
20
203.6292
30
0
11
155.9835
21
203.6292
31
0
0
LINE
8
ACTIVE
10
155.9835
20
203.6292
30
0
11
155.9835
21
7.0212
31
0
0
LINE
8
ACTIVE
10
155.9835
20
7.0212
30
0
11
8.5275
21
7.0212
31
0
0
LINE
8
ACTIVE
10
8.5275
20
7.0212
30
0
11
8.5275
21
203.6292
31
0
0
CIRCLE
8
HOLES
10
-2.1277
20
4.9466
30
0
40
1.1936
0
POINT
8
HOLE_CENTERS
10
-2.1277
20
4.9466
30
0
0
LINE
8
HOLE_CENTERS
10
-3.6277
20
4.9466
30
0
11
-0.6277
21
4.9466
31
0
0
LINE
8
HOLE_CENTERS
10
-2.1277
20
3.4466
30
0
11
-2.1277
21
6.4466
31
0
0
LINE
8
EARS
10
-2.5539
20
3.0664
30
0
11
-0.0991
21
3.0664
31
0
0
LINE
8
EARS
10
-0.0991
20
3.0664
30
0
11
-0.0173
21
3.1484
31
0
0
LINE
8
EARS
10
-0.0173
20
3.1484
30
0
11
-0.0173
21
9.3797
31
0
0
LINE
8
EARS
10
-0.0173
20
9.3797
30
0
11
-0.0991
21
9.4616
31
0
0
LINE
8
EARS
10
-0.0991
20
9.4616
30
0
11
-0.3937
21
9.4289
31
0
0
LINE
8
EARS
10
-0.3937
20
9.4289
30
0
11
-3.6831
21
6.1328
31
0
0
LINE
8
EARS
10
-3.6831
20
6.1328
30
0
11
-3.9449
21
5.6737
31
0
0
LINE
8
EARS
10
-3.9449
20
5.6737
30
0
11
-4.0431
21
5.3457
31
0
0
LINE
8
EARS
10
-4.0431
20
5.3457
30
0
11
-4.0758
21
4.7554
31
0
0
LINE
8
EARS
10
-4.0758
20
4.7554
30
0
11
-4.0104
21
4.3946
31
0
0
LINE
8
EARS
10
-4.0104
20
4.3946
30
0
11
-3.7813
21
3.8699
31
0
0
LINE
8
EARS
10
-3.7813
20
3.8699
30
0
11
-3.6176
21
3.6403
31
0
0
LINE
8
EARS
10
-3.6176
20
3.6403
30
0
11
-3.3394
21
3.3943
31
0
0
LINE
8
EARS
10
-3.3394
20
3.3943
30
0
11
-2.9794
21
3.1976
31
0
0
LINE
8
EARS
10
-2.9794
20
3.1976
30
0
11
-2.5539
21
3.0664
31
0
0
CIRCLE
8
HOLES
10
161.6712
20
-2.1426
30
0
40
1.2007
0
POINT
8
HOLE_CENTERS
10
161.6712
20
-2.1426
30
0
0
LINE
8
HOLE_CENTERS
10
160.1712
20
-2.1426
30
0
11
163.1712
21
-2.1426
31
0
0
LINE
8
HOLE_CENTERS
10
161.6712
20
-3.6426
30
0
11
161.6712
21
-0.6426
31
0
0
LINE
8
EARS
10
161.4244
20
-4.0832
30
0
11
162.0462
21
-4.0504
31
0
0
LINE
8
EARS
10
162.0462
20
-4.0504
30
0
11
162.5372
21
-3.8864
31
0
0
LINE
8
EARS
10
162.5372
20
-3.8864
30
0
11
162.9954
21
-3.5913
31
0
0
LINE
8
EARS
10
162.9954
20
-3.5913
30
0
11
163.3063
21
-3.1813
31
0
0
LINE
8
EARS
10
163.3063
20
-3.1813
30
0
11
163.4700
21
-2.7878
31
0
0
LINE
8
EARS
10
163.4700
20
-2.7878
30
0
11
163.5027
21
-2.4270
31
0
0
LINE
8
EARS
10
163.5027
20
-2.4270
30
0
11
163.6009
21
-2.1646
31
0
0
LINE
8
EARS
10
163.6009
20
-2.1646
30
0
11
163.6009
21
-0.0985
31
0
0
LINE
8
EARS
10
163.6009
20
-0.0985
30
0
11
163.5191
21
-0.0165
31
0
0
LINE
8
EARS
10
163.5191
20
-0.0165
30
0
11
157.2349
21
-0.0165
31
0
0
LINE
8
EARS
10
157.2349
20
-0.0165
30
0
11
157.1531
21
-0.0985
31
0
0
LINE
8
EARS
10
157.1531
20
-0.0985
30
0
11
157.1531
21
-0.3936
31
0
0
LINE
8
EARS
10
157.1531
20
-0.3936
30
0
11
160.3443
21
-3.5913
31
0
0
LINE
8
EARS
10
160.3443
20
-3.5913
30
0
11
160.9007
21
-3.9520
31
0
0
LINE
8
EARS
10
160.9007
20
-3.9520
30
0
11
161.4244
21
-4.0832
31
0
0
CIRCLE
8
HOLES
10
5.0270
20
209.8702
30
0
40
1.1991
0
POINT
8
HOLE_CENTERS
10
5.0270
20
209.8702
30
0
0
LINE
8
HOLE_CENTERS
10
3.5270
20
209.8702
30
0
11
6.5270
21
209.8702
31
0
0
LINE
8
HOLE_CENTERS
10
5.0270
20
208.3702
30
0
11
5.0270
21
211.3702
31
0
0
LINE
8
EARS
10
1.9138
20
207.9367
30
0
11
7.0361
21
207.9367
31
0
0
LINE
8
EARS
10
7.0361
20
207.9367
30
0
11
7.0442
21
209.8963
31
0
0
LINE
8
EARS
10
7.0442
20
209.8963
30
0
11
6.9788
21
210.1094
31
0
0
LINE
8
EARS
10
6.9788
20
210.1094
30
0
11
6.9133
21
210.5194
31
0
0
LINE
8
EARS
10
6.9133
20
210.5194
30
0
11
6.7169
21
210.9621
31
0
0
LINE
8
EARS
10
6.7169
20
210.9621
30
0
11
6.5369
21
211.2081
31
0
0
LINE
8
EARS
10
6.5369
20
211.2081
30
0
11
6.2014
21
211.4951
31
0
0
LINE
8
EARS
10
6.2014
20
211.4951
30
0
11
5.9396
21
211.6427
31
0
0
LINE
8
EARS
10
5.9396
20
211.6427
30
0
11
5.5305
21
211.7902
31
0
0
LINE
8
EARS
10
5.5305
20
211.7902
30
0
11
5.2523
21
211.8394
31
0
0
LINE
8
EARS
10
5.2523
20
211.8394
30
0
11
4.7449
21
211.8394
31
0
0
LINE
8
EARS
10
4.7449
20
211.8394
30
0
11
4.4176
21
211.7738
31
0
0
LINE
8
EARS
10
4.4176
20
211.7738
30
0
11
3.9594
21
211.5771
31
0
0
LINE
8
EARS
10
3.9594
20
211.5771
30
0
11
3.7467
21
211.4295
31
0
0
LINE
8
EARS
10
3.7467
20
211.4295
30
0
11
3.5094
21
211.1917
31
0
0
LINE
8
EARS
10
3.5094
20
211.1917
30
0
11
3.2312
21
210.7982
31
0
0
LINE
8
EARS
10
3.2312
20
210.7982
30
0
11
1.9383
21
208.3876
31
0
0
LINE
8
EARS
10
1.9383
20
208.3876
30
0
11
1.9383
21
207.9777
31
0
0
LINE
8
EARS
10
1.9383
20
207.9777
30
0
11
1.9138
21
207.9367
31
0
0
CIRCLE
8
HOLES
10
162.0461
20
211.7570
30
0
40
1.1967
0
POINT
8
HOLE_CENTERS
10
162.0461
20
211.7570
30
0
0
LINE
8
HOLE_CENTERS
10
160.5461
20
211.7570
30
0
11
163.5461
21
211.7570
31
0
0
LINE
8
HOLE_CENTERS
10
162.0461
20
210.2570
30
0
11
162.0461
21
213.2570
31
0
0
LINE
8
EARS
10
156.6948
20
208.8878
30
0
11
164.0755
21
208.8878
31
0
0
LINE
8
EARS
10
164.0755
20
208.8878
30
0
11
164.0509
21
208.9288
31
0
0
LINE
8
EARS
10
164.0509
20
208.9288
30
0
11
164.0509
21
212.0280
31
0
0
LINE
8
EARS
10
164.0509
20
212.0280
30
0
11
163.9691
21
212.3396
31
0
0
LINE
8
EARS
10
163.9691
20
212.3396
30
0
11
163.7891
21
212.7331
31
0
0
LINE
8
EARS
10
163.7891
20
212.7331
30
0
11
163.5436
21
213.0775
31
0
0
LINE
8
EARS
10
163.5436
20
213.0775
30
0
11
163.2900
21
213.3153
31
0
0
LINE
8
EARS
10
163.2900
20
213.3153
30
0
11
163.0772
21
213.4629
31
0
0
LINE
8
EARS
10
163.0772
20
213.4629
30
0
11
162.7827
21
213.6104
31
0
0
LINE
8
EARS
10
162.7827
20
213.6104
30
0
11
162.5863
21
213.6760
31
0
0
LINE
8
EARS
10
162.5863
20
213.6760
30
0
11
162.2753
21
213.7416
31
0
0
LINE
8
EARS
10
162.2753
20
213.7416
30
0
11
161.7844
21
213.7416
31
0
0
LINE
8
EARS
10
161.7844
20
213.7416
30
0
11
161.4734
21
213.6760
31
0
0
LINE
8
EARS
10
161.4734
20
213.6760
30
0
11
161.1134
21
213.5284
31
0
0
LINE
8
EARS
10
161.1134
20
213.5284
30
0
11
160.7861
21
213.3153
31
0
0
LINE
8
EARS
10
160.7861
20
213.3153
30
0
11
160.7125
21
213.2087
31
0
0
LINE
8
EARS
10
160.7125
20
213.2087
30
0
11
160.2952
21
212.7905
31
0
0
LINE
8
EARS
10
160.2952
20
212.7905
30
0
11
156.7848
21
209.3387
31
0
0
LINE
8
EARS
10
156.7848
20
209.3387
30
0
11
156.7848
21
209.2567
31
0
0
LINE
8
EARS
10
156.7848
20
209.2567
30
0
11
156.7194
21
209.1911
31
0
0
LINE
8
EARS
10
156.7194
20
209.1911
30
0
11
156.7194
21
208.9288
31
0
0
LINE
8
EARS
10
156.7194
20
208.9288
30
0
11
156.6948
21
208.8878
31
0
0
LINE
8
CONNECTOR
10
141.5600
20
78.4400
30
0
11
167.1200
21
78.4400
31
0
0
LINE
8
CONNECTOR
10
167.1200
20
78.4400
30
0
11
167.1200
21
60.4400
31
0
0
LINE
8
CONNECTOR
10
167.1200
20
60.4400
30
0
11
141.5600
21
60.4400
31
0
0
LINE
8
CONNECTOR
10
141.5600
20
60.4400
30
0
11
141.5600
21
78.4400
31
0
0
ENDSEC
0
EOF
