0
SECTION
2
ENTITIES
0
LINE
8
OUTLINE
10
167.1200
20
2.3000
30
0
11
167.1055
21
2.0425
31
0
0
LINE
8
OUTLINE
10
167.1055
20
2.0425
30
0
11
167.0623
21
1.7882
31
0
0
LINE
8
OUTLINE
10
167.0623
20
1.7882
30
0
11
166.9909
21
1.5404
31
0
0
LINE
8
OUTLINE
10
166.9909
20
1.5404
30
0
11
166.8922
21
1.3021
31
0
0
LINE
8
OUTLINE
10
166.8922
20
1.3021
30
0
11
166.7675
21
1.0763
31
0
0
LINE
8
OUTLINE
10
166.7675
20
1.0763
30
0
11
166.6182
21
0.8660
31
0
0
LINE
8
OUTLINE
10
166.6182
20
0.8660
30
0
11
166.4463
21
0.6737
31
0
0
LINE
8
OUTLINE
10
166.4463
20
0.6737
30
0
11
166.2540
21
0.5018
31
0
0
LINE
8
OUTLINE
10
166.2540
20
0.5018
30
0
11
166.0437
21
0.3525
31
0
0
LINE
8
OUTLINE
10
166.0437
20
0.3525
30
0
11
165.8179
21
0.2278
31
0
0
LINE
8
OUTLINE
10
165.8179
20
0.2278
30
0
11
165.5796
21
0.1291
31
0
0
LINE
8
OUTLINE
10
165.5796
20
0.1291
30
0
11
165.3318
21
0.0577
31
0
0
LINE
8
OUTLINE
10
165.3318
20
0.0577
30
0
11
165.0775
21
0.0145
31
0
0
LINE
8
OUTLINE
10
165.0775
20
0.0145
30
0
11
164.8200
21
0.0000
31
0
0
LINE
8
OUTLINE
10
164.8200
20
0.0000
30
0
11
2.3000
21
0.0000
31
0
0
LINE
8
OUTLINE
10
2.3000
20
0.0000
30
0
11
2.0425
21
0.0145
31
0
0
LINE
8
OUTLINE
10
2.0425
20
0.0145
30
0
11
1.7882
21
0.0577
31
0
0
LINE
8
OUTLINE
10
1.7882
20
0.0577
30
0
11
1.5404
21
0.1291
31
0
0
LINE
8
OUTLINE
10
1.5404
20
0.1291
30
0
11
1.3021
21
0.2278
31
0
0
LINE
8
OUTLINE
10
1.3021
20
0.2278
30
0
11
1.0763
21
0.3525
31
0
0
LINE
8
OUTLINE
10
1.0763
20
0.3525
30
0
11
0.8660
21
0.5018
31
0
0
LINE
8
OUTLINE
10
0.8660
20
0.5018
30
0
11
0.6737
21
0.6737
31
0
0
LINE
8
OUTLINE
10
0.6737
20
0.6737
30
0
11
0.5018
21
0.8660
31
0
0
LINE
8
OUTLINE
10
0.5018
20
0.8660
30
0
11
0.3525
21
1.0763
31
0
0
LINE
8
OUTLINE
10
0.3525
20
1.0763
30
0
11
0.2278
21
1.3021
31
0
0
LINE
8
OUTLINE
10
0.2278
20
1.3021
30
0
11
0.1291
21
1.5404
31
0
0
LINE
8
OUTLINE
10
0.1291
20
1.5404
30
0
11
0.0577
21
1.7882
31
0
0
LINE
8
OUTLINE
10
0.0577
20
1.7882
30
0
11
0.0145
21
2.0425
31
0
0
LINE
8
OUTLINE
10
0.0145
20
2.0425
30
0
11
0.0000
21
2.3000
31
0
0
LINE
8
OUTLINE
10
0.0000
20
2.3000
30
0
11
0.0000
21
206.5800
31
0
0
LINE
8
OUTLINE
10
0.0000
20
206.5800
30
0
11
0.0145
21
206.8375
31
0
0
LINE
8
OUTLINE
10
0.0145
20
206.8375
30
0
11
0.0577
21
207.0918
31
0
0
LINE
8
OUTLINE
10
0.0577
20
207.0918
30
0
11
0.1291
21
207.3396
31
0
0
LINE
8
OUTLINE
10
0.1291
20
207.3396
30
0
11
0.2278
21
207.5779
31
0
0
LINE
8
OUTLINE
10
0.2278
20
207.5779
30
0
11
0.3525
21
207.8037
31
0
0
LINE
8
OUTLINE
10
0.3525
20
207.8037
30
0
11
0.5018
21
208.0140
31
0
0
LINE
8
OUTLINE
10
0.5018
20
208.0140
30
0
11
0.6737
21
208.2063
31
0
0
LINE
8
OUTLINE
10
0.6737
20
208.2063
30
0
11
0.8660
21
208.3782
31
0
0
LINE
8
OUTLINE
10
0.8660
20
208.3782
30
0
11
1.0763
21
208.5275
31
0
0
LINE
8
OUTLINE
10
1.0763
20
208.5275
30
0
11
1.3021
21
208.6522
31
0
0
LINE
8
OUTLINE
10
1.3021
20
208.6522
30
0
11
1.5404
21
208.7509
31
0
0
LINE
8
OUTLINE
10
1.5404
20
208.7509
30
0
11
1.7882
21
208.8223
31
0
0
LINE
8
OUTLINE
10
1.7882
20
208.8223
30
0
11
2.0425
21
208.8655
31
0
0
LINE
8
OUTLINE
10
2.0425
20
208.8655
30
0
11
2.3000
21
208.8800
31
0
0
LINE
8
OUTLINE
10
2.3000
20
208.8800
30
0
11
164.8200
21
208.8800
31
0
0
LINE
8
OUTLINE
10
164.8200
20
208.8800
30
0
11
165.0775
21
208.8655
31
0
0
LINE
8
OUTLINE
10
165.0775
20
208.8655
30
0
11
165.3318
21
208.8223
31
0
0
LINE
8
OUTLINE
10
165.3318
20
208.8223
30
0
11
165.5796
21
208.7509
31
0
0
LINE
8
OUTLINE
10
165.5796
20
208.7509
30
0
11
165.8179
21
208.6522
31
0
0
LINE
8
OUTLINE
10
165.8179
20
208.6522
30
0
11
166.0437
21
208.5275
31
0
0
LINE
8
OUTLINE
10
166.0437
20
208.5275
30
0
11
166.2540
21
208.3782
31
0
0
LINE
8
OUTLINE
10
166.2540
20
208.3782
30
0
11
166.4463
21
208.2063
31
0
0
LINE
8
OUTLINE
10
166.4463
20
208.2063
30
0
11
166.6182
21
208.0140
31
0
0
LINE
8
OUTLINE
10
166.6182
20
208.0140
30
0
11
166.7675
21
207.8037
31
0
0
LINE
8
OUTLINE
10
166.7675
20
207.8037
30
0
11
166.8922
21
207.5779
31
0
0
LINE
8
OUTLINE
10
166.8922
20
207.5779
30
0
11
166.9909
21
207.3396
31
0
0
LINE
8
OUTLINE
10
166.9909
20
207.3396
30
0
11
167.0623
21
207.0918
31
0
0
LINE
8
OUTLINE
10
167.0623
20
207.0918
30
0
11
167.1055
21
206.8375
31
0
0
LINE
8
OUTLINE
10
167.1055
20
206.8375
30
0
11
167.1200
21
206.5800
31
0
0
LINE
8
OUTLINE
10
167.1200
20
206.5800
30
0
11
167.1200
21
2.3000
31
0
0
LINE
8
BEZEL
10
6.4869
20
205.8029
30
0
11
158.0949
21
205.8029
31
0
0
LINE
8
BEZEL
10
158.0949
20
205.8029
30
0
11
158.0949
21
4.7929
31
0
0
LINE
8
BEZEL
10
158.0949
20
4.7929
30
0
11
6.4869
21
4.7929
31
0
0
LINE
8
BEZEL
10
6.4869
20
4.7929
30
0
11
6.4869
21
205.8029
31
0
0
LINE
8
ACTIVE
10
8.5275
20
203.6292
30
0
11
155.9835
21
203.6292
31
0
0
LINE
8
ACTIVE
10
155.9835
20
203.6292
30
0
11
155.9835
21
7.0212
31
0
0
LINE
8
ACTIVE
10
155.9835
20
7.0212
30
0
11
8.5275
21
7.0212
31
0
0
LINE
8
ACTIVE
10
8.5275
20
7.0212
30
0
11
8.5275
21
203.6292
31
0
0
CIRCLE
8
HOLES
10
-2.1277
20
4.9466
30
0
40
1.1936
0
POINT
8
HOLE_CENTERS
10
-2.1277
20
4.9466
30
0
0
LINE
8
HOLE_CENTERS
10
-3.6277
20
4.9466
30
0
11
-0.6277
21
4.9466
31
0
0
LINE
8
HOLE_CENTERS
10
-2.1277
20
3.4466
30
0
11
-2.1277
21
6.4466
31
0
0
LINE
8
EARS
10
-2.5539
20
3.0664
30
0
11
-0.0991
21
3.0664
31
0
0
LINE
8
EARS
10
-0.0991
20
3.0664
30
0
11
-0.0173
21
3.1484
31
0
0
LINE
8
EARS
10
-0.0173
20
3.1484
30
0
11
-0.0173
21
9.3797
31
0
0
LINE
8
EARS
10
-0.0173
20
9.3797
30
0
11
-0.0991
21
9.4616
31
0
0
LINE
8
EARS
10
-0.0991
20
9.4616
30
0
11
-0.3937
21
9.4289
31
0
0
LINE
8
EARS
10
-0.3937
20
9.4289
30
0
11
-3.6831
21
6.1328
31
0
0
LINE
8
EARS
10
-3.6831
20
6.1328
30
0
11
-3.9449
21
5.6737
31
0
0
LINE
8
EARS
10
-3.9449
20
5.6737
30
0
11
-4.0431
21
5.3457
31
0
0
LINE
8
EARS
10
-4.0431
20
5.3457
30
0
11
-4.0758
21
4.7554
31
0
0
LINE
8
EARS
10
-4.0758
20
4.7554
30
0
11
-4.0104
21
4.3946
31
0
0
LINE
8
EARS
10
-4.0104
20
4.3946
30
0
11
-3.7813
21
3.8699
31
0
0
LINE
8
EARS
10
-3.7813
20
3.8699
30
0
11
-3.6176
21
3.6403
31
0
0
LINE
8
EARS
10
-3.6176
20
3.6403
30
0
11
-3.3394
21
3.3943
31
0
0
LINE
8
EARS
10
-3.3394
20
3.3943
30
0
11
-2.9794
21
3.1976
31
0
0
LINE
8
EARS
10
-2.9794
20
3.1976
30
0
11
-2.5539
21
3.0664
31
0
0
CIRCLE
8
HOLES
10
161.6712
20
-2.1426
30
0
40
1.2007
0
POINT
8
HOLE_CENTERS
10
161.6712
20
-2.1426
30
0
0
LINE
8
HOLE_CENTERS
10
160.1712
20
-2.1426
30
0
11
163.1712
21
-2.1426
31
0
0
LINE
8
HOLE_CENTERS
10
161.6712
20
-3.6426
30
0
11
161.6712
21
-0.6426
31
0
0
LINE
8
EARS
10
161.4244
20
-4.0832
30
0
11
162.0462
21
-4.0504
31
0
0
LINE
8
EARS
10
162.0462
20
-4.0504
30
0
11
162.5372
21
-3.8864
31
0
0
LINE
8
EARS
10
162.5372
20
-3.8864
30
0
11
162.9954
21
-3.5913
31
0
0
LINE
8
EARS
10
162.9954
20
-3.5913
30
0
11
163.3063
21
-3.1813
31
0
0
LINE
8
EARS
10
163.3063
20
-3.1813
30
0
11
163.4700
21
-2.7878
31
0
0
LINE
8
EARS
10
163.4700
20
-2.7878
30
0
11
163.5027
21
-2.4270
31
0
0
LINE
8
EARS
10
163.5027
20
-2.4270
30
0
11
163.6009
21
-2.1646
31
0
0
LINE
8
EARS
10
163.6009
20
-2.1646
30
0
11
163.6009
21
-0.0985
31
0
0
LINE
8
EARS
10
163.6009
20
-0.0985
30
0
11
163.5191
21
-0.0165
31
0
0
LINE
8
EARS
10
163.5191
20
-0.0165
30
0
11
157.2349
21
-0.0165
31
0
0
LINE
8
EARS
10
157.2349
20
-0.0165
30
0
11
157.1531
21
-0.0985
31
0
0
LINE
8
EARS
10
157.1531
20
-0.0985
30
0
11
157.1531
21
-0.3936
31
0
0
LINE
8
EARS
10
157.1531
20
-0.3936
30
0
11
160.3443
21
-3.5913
31
0
0
LINE
8
EARS
10
160.3443
20
-3.5913
30
0
11
160.9007
21
-3.9520
31
0
0
LINE
8
EARS
10
160.9007
20
-3.9520
30
0
11
161.4244
21
-4.0832
31
0
0
CIRCLE
8
HOLES
10
5.0270
20
209.8702
30
0
40
1.1991
0
POINT
8
HOLE_CENTERS
10
5.0270
20
209.8702
30
0
0
LINE
8
HOLE_CENTERS
10
3.5270
20
209.8702
30
0
11
6.5270
21
209.8702
31
0
0
LINE
8
HOLE_CENTERS
10
5.0270
20
208.3702
30
0
11
5.0270
21
211.3702
31
0
0
LINE
8
EARS
10
2.2247
20
208.8878
30
0
11
7.0361
21
208.8878
31
0
0
LINE
8
EARS
10
7.0361
20
208.8878
30
0
11
7.0442
21
209.8963
31
0
0
LINE
8
EARS
10
7.0442
20
209.8963
30
0
11
6.9788
21
210.1094
31
0
0
LINE
8
EARS
10
6.9788
20
210.1094
30
0
11
6.9624
21
210.3062
31
0
0
LINE
8
EARS
10
6.9624
20
210.3062
30
0
11
6.8806
21
210.6178
31
0
0
LINE
8
EARS
10
6.8806
20
210.6178
30
0
11
6.7169
21
210.9621
31
0
0
LINE
8
EARS
10
6.7169
20
210.9621
30
0
11
6.5369
21
211.2081
31
0
0
LINE
8
EARS
10
6.5369
20
211.2081
30
0
11
6.2014
21
211.4951
31
0
0
LINE
8
EARS
10
6.2014
20
211.4951
30
0
11
5.8250
21
211.6919
31
0
0
LINE
8
EARS
10
5.8250
20
211.6919
30
0
11
5.5305
21
211.7902
31
0
0
LINE
8
EARS
10
5.5305
20
211.7902
30
0
11
5.2523
21
211.8394
31
0
0
LINE
8
EARS
10
5.2523
20
211.8394
30
0
11
4.7449
21
211.8394
31
0
0
LINE
8
EARS
10
4.7449
20
211.8394
30
0
11
4.2704
21
211.7247
31
0
0
LINE
8
EARS
10
4.2704
20
211.7247
30
0
11
3.9594
21
211.5771
31
0
0
LINE
8
EARS
10
3.9594
20
211.5771
30
0
11
3.8121
21
211.4787
31
0
0
LINE
8
EARS
10
3.8121
20
211.4787
30
0
11
3.4603
21
211.1261
31
0
0
LINE
8
EARS
10
3.4603
20
211.1261
30
0
11
3.2312
21
210.7982
31
0
0
LINE
8
EARS
10
3.2312
20
210.7982
30
0
11
2.2493
21
208.9780
31
0
0
LINE
8
EARS
10
2.2493
20
208.9780
30
0
11
2.2247
21
208.8878
31
0
0
CIRCLE
8
HOLES
10
162.0461
20
211.7570
30
0
40
1.1967
0
POINT
8
HOLE_CENTERS
10
162.0461
20
211.7570
30
0
0
LINE
8
HOLE_CENTERS
10
160.5461
20
211.7570
30
0
11
163.5461
21
211.7570
31
0
0
LINE
8
HOLE_CENTERS
10
162.0461
20
210.2570
30
0
11
162.0461
21
213.2570
31
0
0
LINE
8
EARS
10
156.6948
20
208.8878
30
0
11
164.0755
21
208.8878
31
0
0
LINE
8
EARS
10
164.0755
20
208.8878
30
0
11
164.0509
21
208.9288
31
0
0
LINE
8
EARS
10
164.0509
20
208.9288
30
0
11
164.0509
21
212.0280
31
0
0
LINE
8
EARS
10
164.0509
20
212.0280
30
0
11
163.9691
21
212.3396
31
0
0
LINE
8
EARS
10
163.9691
20
212.3396
30
0
11
163.7891
21
212.7331
31
0
0
LINE
8
EARS
10
163.7891
20
212.7331
30
0
11
163.5436
21
213.0775
31
0
0
LINE
8
EARS
10
163.5436
20
213.0775
30
0
11
163.2900
21
213.3153
31
0
0
LINE
8
EARS
10
163.2900
20
213.3153
30
0
11
163.0772
21
213.4629
31
0
0
LINE
8
EARS
10
163.0772
20
213.4629
30
0
11
162.7827
21
213.6104
31
0
0
LINE
8
EARS
10
162.7827
20
213.6104
30
0
11
162.5863
21
213.6760
31
0
0
LINE
8
EARS
10
162.5863
20
213.6760
30
0
11
162.2753
21
213.7416
31
0
0
LINE
8
EARS
10
162.2753
20
213.7416
30
0
11
161.7844
21
213.7416
31
0
0
LINE
8
EARS
10
161.7844
20
213.7416
30
0
11
161.4734
21
213.6760
31
0
0
LINE
8
EARS
10
161.4734
20
213.6760
30
0
11
161.1134
21
213.5284
31
0
0
LINE
8
EARS
10
161.1134
20
213.5284
30
0
11
160.7861
21
213.3153
31
0
0
LINE
8
EARS
10
160.7861
20
213.3153
30
0
11
160.7125
21
213.2087
31
0
0
LINE
8
EARS
10
160.7125
20
213.2087
30
0
11
160.2952
21
212.7905
31
0
0
LINE
8
EARS
10
160.2952
20
212.7905
30
0
11
156.7848
21
209.3387
31
0
0
LINE
8
EARS
10
156.7848
20
209.3387
30
0
11
156.7848
21
209.2567
31
0
0
LINE
8
EARS
10
156.7848
20
209.2567
30
0
11
156.7194
21
209.1911
31
0
0
LINE
8
EARS
10
156.7194
20
209.1911
30
0
11
156.7194
21
208.9288
31
0
0
LINE
8
EARS
10
156.7194
20
208.9288
30
0
11
156.6948
21
208.8878
31
0
0
LINE
8
CONNECTOR
10
141.5600
20
78.4400
30
0
11
167.1200
21
78.4400
31
0
0
LINE
8
CONNECTOR
10
167.1200
20
78.4400
30
0
11
167.1200
21
60.4400
31
0
0
LINE
8
CONNECTOR
10
167.1200
20
60.4400
30
0
11
141.5600
21
60.4400
31
0
0
LINE
8
CONNECTOR
10
141.5600
20
60.4400
30
0
11
141.5600
21
78.4400
31
0
0
ENDSEC
0
EOF
