0
SECTION
2
ENTITIES
0
LINE
8
OUTLINE
10
-83.5608
20
-104.4397
30
0
11
83.5592
21
-104.4397
31
0
0
LINE
8
OUTLINE
10
83.5592
20
-104.4397
30
0
11
83.5592
21
104.4403
31
0
0
LINE
8
OUTLINE
10
83.5592
20
104.4403
30
0
11
-83.5608
21
104.4403
31
0
0
LINE
8
OUTLINE
10
-83.5608
20
104.4403
30
0
11
-83.5608
21
-104.4397
31
0
0
LINE
8
BEZEL
10
-77.0731
20
-101.3629
30
0
11
74.5349
21
-101.3629
31
0
0
LINE
8
BEZEL
10
74.5349
20
-101.3629
30
0
11
74.5349
21
99.6471
31
0
0
LINE
8
BEZEL
10
74.5349
20
99.6471
30
0
11
-77.0731
21
99.6471
31
0
0
LINE
8
BEZEL
10
-77.0731
20
99.6471
30
0
11
-77.0731
21
-101.3629
31
0
0
LINE
8
ACTIVE
10
-75.0325
20
-99.1892
30
0
11
72.4235
21
-99.1892
31
0
0
LINE
8
ACTIVE
10
72.4235
20
-99.1892
30
0
11
72.4235
21
97.4188
31
0
0
LINE
8
ACTIVE
10
72.4235
20
97.4188
30
0
11
-75.0325
21
97.4188
31
0
0
LINE
8
ACTIVE
10
-75.0325
20
97.4188
30
0
11
-75.0325
21
-99.1892
31
0
0
CIRCLE
8
HOLES
10
-85.6877
20
99.4934
30
0
40
1.1936
0
POINT
8
HOLE_CENTERS
10
-85.6877
20
99.4934
30
0
0
LINE
8
HOLE_CENTERS
10
-87.1877
20
99.4934
30
0
11
-84.1877
21
99.4934
31
0
0
LINE
8
HOLE_CENTERS
10
-85.6877
20
97.9934
30
0
11
-85.6877
21
100.9934
31
0
0
LINE
8
EARS
10
-86.1139
20
101.3736
30
0
11
-83.6591
21
101.3736
31
0
0
LINE
8
EARS
10
-83.6591
20
101.3736
30
0
11
-83.5773
21
101.2916
31
0
0
LINE
8
EARS
10
-83.5773
20
101.2916
30
0
11
-83.5773
21
95.0603
31
0
0
LINE
8
EARS
10
-83.5773
20
95.0603
30
0
11
-83.6591
21
94.9784
31
0
0
LINE
8
EARS
10
-83.6591
20
94.9784
30
0
11
-83.9537
21
95.0111
31
0
0
LINE
8
EARS
10
-83.9537
20
95.0111
30
0
11
-87.2431
21
98.3072
31
0
0
LINE
8
EARS
10
-87.2431
20
98.3072
30
0
11
-87.5049
21
98.7663
31
0
0
LINE
8
EARS
10
-87.5049
20
98.7663
30
0
11
-87.6031
21
99.0943
31
0
0
LINE
8
EARS
10
-87.6031
20
99.0943
30
0
11
-87.6358
21
99.6846
31
0
0
LINE
8
EARS
10
-87.6358
20
99.6846
30
0
11
-87.5704
21
100.0454
31
0
0
LINE
8
EARS
10
-87.5704
20
100.0454
30
0
11
-87.3413
21
100.5701
31
0
0
LINE
8
EARS
10
-87.3413
20
100.5701
30
0
11
-87.1776
21
100.7997
31
0
0
LINE
8
EARS
10
-87.1776
20
100.7997
30
0
11
-86.8994
21
101.0457
31
0
0
LINE
8
EARS
10
-86.8994
20
101.0457
30
0
11
-86.5394
21
101.2424
31
0
0
LINE
8
EARS
10
-86.5394
20
101.2424
30
0
11
-86.1139
21
101.3736
31
0
0
CIRCLE
8
HOLES
10
78.1112
20
106.5826
30
0
40
1.2007
0
POINT
8
HOLE_CENTERS
10
78.1112
20
106.5826
30
0
0
LINE
8
HOLE_CENTERS
10
76.6112
20
106.5826
30
0
11
79.6112
21
106.5826
31
0
0
LINE
8
HOLE_CENTERS
10
78.1112
20
105.0826
30
0
11
78.1112
21
108.0826
31
0
0
LINE
8
EARS
10
77.8644
20
108.5232
30
0
11
78.4862
21
108.4904
31
0
0
LINE
8
EARS
10
78.4862
20
108.4904
30
0
11
78.9772
21
108.3264
31
0
0
LINE
8
EARS
10
78.9772
20
108.3264
30
0
11
79.4354
21
108.0313
31
0
0
LINE
8
EARS
10
79.4354
20
108.0313
30
0
11
79.7463
21
107.6213
31
0
0
LINE
8
EARS
10
79.7463
20
107.6213
30
0
11
79.9100
21
107.2278
31
0
0
LINE
8
EARS
10
79.9100
20
107.2278
30
0
11
79.9427
21
106.8670
31
0
0
LINE
8
EARS
10
79.9427
20
106.8670
30
0
11
80.0409
21
106.6046
31
0
0
LINE
8
EARS
10
80.0409
20
106.6046
30
0
11
80.0409
21
104.5385
31
0
0
LINE
8
EARS
10
80.0409
20
104.5385
30
0
11
79.9591
21
104.4565
31
0
0
LINE
8
EARS
10
79.9591
20
104.4565
30
0
11
73.6749
21
104.4565
31
0
0
LINE
8
EARS
10
73.6749
20
104.4565
30
0
11
73.5931
21
104.5385
31
0
0
LINE
8
EARS
10
73.5931
20
104.5385
30
0
11
73.5931
21
104.8336
31
0
0
LINE
8
EARS
10
73.5931
20
104.8336
30
0
11
76.7843
21
108.0313
31
0
0
LINE
8
EARS
10
76.7843
20
108.0313
30
0
11
77.3407
21
108.3920
31
0
0
LINE
8
EARS
10
77.3407
20
108.3920
30
0
11
77.8644
21
108.5232
31
0
0
CIRCLE
8
HOLES
10
-78.5330
20
-105.4302
30
0
40
1.1991
0
POINT
8
HOLE_CENTERS
10
-78.5330
20
-105.4302
30
0
0
LINE
8
HOLE_CENTERS
10
-80.0330
20
-105.4302
30
0
11
-77.0330
21
-105.4302
31
0
0
LINE
8
HOLE_CENTERS
10
-78.5330
20
-106.9302
30
0
11
-78.5330
21
-103.9302
31
0
0
LINE
8
EARS
10
-81.1716
20
-104.4478
30
0
11
-76.6712
21
-104.4478
31
0
0
LINE
8
EARS
10
-76.6712
20
-104.4478
30
0
11
-76.6303
21
-104.4888
31
0
0
LINE
8
EARS
10
-76.6303
20
-104.4888
30
0
11
-76.6303
21
-105.4563
31
0
0
LINE
8
EARS
10
-76.6303
20
-105.4563
30
0
11
-76.7612
21
-106.0794
31
0
0
LINE
8
EARS
10
-76.7612
20
-106.0794
30
0
11
-76.8758
21
-106.3746
31
0
0
LINE
8
EARS
10
-76.8758
20
-106.3746
30
0
11
-77.2440
21
-106.8583
31
0
0
LINE
8
EARS
10
-77.2440
20
-106.8583
30
0
11
-77.5222
21
-107.0387
31
0
0
LINE
8
EARS
10
-77.5222
20
-107.0387
30
0
11
-77.9150
21
-107.2027
31
0
0
LINE
8
EARS
10
-77.9150
20
-107.2027
30
0
11
-78.3077
21
-107.2847
31
0
0
LINE
8
EARS
10
-78.3077
20
-107.2847
30
0
11
-78.8151
21
-107.2847
31
0
0
LINE
8
EARS
10
-78.8151
20
-107.2847
30
0
11
-79.3715
21
-107.1371
31
0
0
LINE
8
EARS
10
-79.3715
20
-107.1371
30
0
11
-79.8133
21
-106.8747
31
0
0
LINE
8
EARS
10
-79.8133
20
-106.8747
30
0
11
-80.1815
21
-106.4074
31
0
0
LINE
8
EARS
10
-80.1815
20
-106.4074
30
0
11
-81.1962
21
-104.5380
31
0
0
LINE
8
EARS
10
-81.1962
20
-104.5380
30
0
11
-81.1716
21
-104.4478
31
0
0
CIRCLE
8
HOLES
10
78.4861
20
-107.3170
30
0
40
1.1967
0
POINT
8
HOLE_CENTERS
10
78.4861
20
-107.3170
30
0
0
LINE
8
HOLE_CENTERS
10
76.9861
20
-107.3170
30
0
11
79.9861
21
-107.3170
31
0
0
LINE
8
HOLE_CENTERS
10
78.4861
20
-108.8170
30
0
11
78.4861
21
-105.8170
31
0
0
LINE
8
EARS
10
73.3149
20
-104.4478
30
0
11
80.3355
21
-104.4478
31
0
0
LINE
8
EARS
10
80.3355
20
-104.4478
30
0
11
80.3764
21
-104.4888
31
0
0
LINE
8
EARS
10
80.3764
20
-104.4888
30
0
11
80.3764
21
-107.5880
31
0
0
LINE
8
EARS
10
80.3764
20
-107.5880
30
0
11
80.1146
21
-108.2931
31
0
0
LINE
8
EARS
10
80.1146
20
-108.2931
30
0
11
79.7300
21
-108.7605
31
0
0
LINE
8
EARS
10
79.7300
20
-108.7605
30
0
11
79.5172
21
-108.9081
31
0
0
LINE
8
EARS
10
79.5172
20
-108.9081
30
0
11
79.0263
21
-109.1212
31
0
0
LINE
8
EARS
10
79.0263
20
-109.1212
30
0
11
78.7153
21
-109.1868
31
0
0
LINE
8
EARS
10
78.7153
20
-109.1868
30
0
11
78.2244
21
-109.1868
31
0
0
LINE
8
EARS
10
78.2244
20
-109.1868
30
0
11
77.5534
21
-108.9737
31
0
0
LINE
8
EARS
10
77.5534
20
-108.9737
30
0
11
77.3407
21
-108.8425
31
0
0
LINE
8
EARS
10
77.3407
20
-108.8425
30
0
11
73.3394
21
-104.8987
31
0
0
LINE
8
EARS
10
73.3394
20
-104.8987
30
0
11
73.3394
21
-104.8167
31
0
0
LINE
8
EARS
10
73.3394
20
-104.8167
30
0
11
73.2739
21
-104.7511
31
0
0
LINE
8
EARS
10
73.2739
20
-104.7511
30
0
11
73.2739
21
-104.4888
31
0
0
LINE
8
EARS
10
73.2739
20
-104.4888
30
0
11
73.3149
21
-104.4478
31
0
0
LINE
8
CONNECTOR
10
58.0000
20
26.0000
30
0
11
83.5600
21
26.0000
31
0
0
LINE
8
CONNECTOR
10
83.5600
20
26.0000
30
0
11
83.5600
21
44.0000
31
0
0
LINE
8
CONNECTOR
10
83.5600
20
44.0000
30
0
11
58.0000
21
44.0000
31
0
0
LINE
8
CONNECTOR
10
58.0000
20
44.0000
30
0
11
58.0000
21
26.0000
31
0
0
ENDSEC
0
EOF
