0
SECTION
2
ENTITIES
0
LINE
8
OUTLINE
10
167.1200
20
0.5000
30
0
11
167.1070
21
0.3890
31
0
0
LINE
8
OUTLINE
10
167.1070
20
0.3890
30
0
11
167.0700
21
0.2830
31
0
0
LINE
8
OUTLINE
10
167.0700
20
0.2830
30
0
11
167.0110
21
0.1880
31
0
0
LINE
8
OUTLINE
10
167.0110
20
0.1880
30
0
11
166.9320
21
0.1090
31
0
0
LINE
8
OUTLINE
10
166.9320
20
0.1090
30
0
11
166.8370
21
0.0500
31
0
0
LINE
8
OUTLINE
10
166.8370
20
0.0500
30
0
11
166.7310
21
0.0130
31
0
0
LINE
8
OUTLINE
10
166.7310
20
0.0130
30
0
11
166.6200
21
0.0000
31
0
0
LINE
8
OUTLINE
10
166.6200
20
0.0000
30
0
11
0.5000
21
0.0000
31
0
0
LINE
8
OUTLINE
10
0.5000
20
0.0000
30
0
11
0.3890
21
0.0130
31
0
0
LINE
8
OUTLINE
10
0.3890
20
0.0130
30
0
11
0.2830
21
0.0500
31
0
0
LINE
8
OUTLINE
10
0.2830
20
0.0500
30
0
11
0.1880
21
0.1090
31
0
0
LINE
8
OUTLINE
10
0.1880
20
0.1090
30
0
11
0.1090
21
0.1880
31
0
0
LINE
8
OUTLINE
10
0.1090
20
0.1880
30
0
11
0.0500
21
0.2830
31
0
0
LINE
8
OUTLINE
10
0.0500
20
0.2830
30
0
11
0.0130
21
0.3890
31
0
0
LINE
8
OUTLINE
10
0.0130
20
0.3890
30
0
11
0.0000
21
0.5000
31
0
0
LINE
8
OUTLINE
10
0.0000
20
0.5000
30
0
11
0.0000
21
207.4200
31
0
0
LINE
8
OUTLINE
10
0.0000
20
207.4200
30
0
11
0.0130
21
207.5310
31
0
0
LINE
8
OUTLINE
10
0.0130
20
207.5310
30
0
11
0.0500
21
207.6370
31
0
0
LINE
8
OUTLINE
10
0.0500
20
207.6370
30
0
11
0.1090
21
207.7320
31
0
0
LINE
8
OUTLINE
10
0.1090
20
207.7320
30
0
11
0.1880
21
207.8110
31
0
0
LINE
8
OUTLINE
10
0.1880
20
207.8110
30
0
11
0.2830
21
207.8700
31
0
0
LINE
8
OUTLINE
10
0.2830
20
207.8700
30
0
11
0.3890
21
207.9070
31
0
0
LINE
8
OUTLINE
10
0.3890
20
207.9070
30
0
11
0.5000
21
207.9200
31
0
0
LINE
8
OUTLINE
10
0.5000
20
207.9200
30
0
11
17.7600
21
207.9200
31
0
0
LINE
8
OUTLINE
10
17.7600
20
207.9200
30
0
11
20.8600
21
208.8800
31
0
0
LINE
8
OUTLINE
10
20.8600
20
208.8800
30
0
11
166.6200
21
208.8800
31
0
0
LINE
8
OUTLINE
10
166.6200
20
208.8800
30
0
11
166.7310
21
208.8670
31
0
0
LINE
8
OUTLINE
10
166.7310
20
208.8670
30
0
11
166.8370
21
208.8300
31
0
0
LINE
8
OUTLINE
10
166.8370
20
208.8300
30
0
11
166.9320
21
208.7710
31
0
0
LINE
8
OUTLINE
10
166.9320
20
208.7710
30
0
11
167.0110
21
208.6920
31
0
0
LINE
8
OUTLINE
10
167.0110
20
208.6920
30
0
11
167.0700
21
208.5970
31
0
0
LINE
8
OUTLINE
10
167.0700
20
208.5970
30
0
11
167.1070
21
208.4910
31
0
0
LINE
8
OUTLINE
10
167.1070
20
208.4910
30
0
11
167.1200
21
208.3800
31
0
0
LINE
8
OUTLINE
10
167.1200
20
208.3800
30
0
11
167.1200
21
0.5000
31
0
0
LINE
8
BEZEL
10
6.4860
20
205.8050
30
0
11
158.0940
21
205.8050
31
0
0
LINE
8
BEZEL
10
158.0940
20
205.8050
30
0
11
158.0940
21
4.7950
31
0
0
LINE
8
BEZEL
10
158.0940
20
4.7950
30
0
11
6.4860
21
4.7950
31
0
0
LINE
8
BEZEL
10
6.4860
20
4.7950
30
0
11
6.4860
21
205.8050
31
0
0
LINE
8
ACTIVE
10
8.5320
20
203.6340
30
0
11
155.9880
21
203.6340
31
0
0
LINE
8
ACTIVE
10
155.9880
20
203.6340
30
0
11
155.9880
21
7.0260
31
0
0
LINE
8
ACTIVE
10
155.9880
20
7.0260
30
0
11
8.5320
21
7.0260
31
0
0
LINE
8
ACTIVE
10
8.5320
20
7.0260
30
0
11
8.5320
21
203.6340
31
0
0
LINE
8
EARS
10
0.0000
20
2.8010
30
0
11
-0.4770
21
2.8010
31
0
0
LINE
8
EARS
10
-0.4770
20
2.8010
30
0
11
-0.5450
21
2.8700
31
0
0
LINE
8
EARS
10
-0.5450
20
2.8700
30
0
11
-0.6140
21
2.8700
31
0
0
LINE
8
EARS
10
-0.6140
20
2.8700
30
0
11
-0.6820
21
2.8700
31
0
0
LINE
8
EARS
10
-0.6820
20
2.8700
30
0
11
-0.7500
21
2.8700
31
0
0
LINE
8
EARS
10
-0.7500
20
2.8700
30
0
11
-0.8180
21
2.8700
31
0
0
LINE
8
EARS
10
-0.8180
20
2.8700
30
0
11
-0.8860
21
2.8700
31
0
0
LINE
8
EARS
10
-0.8860
20
2.8700
30
0
11
-0.9550
21
2.8700
31
0
0
LINE
8
EARS
10
-0.9550
20
2.8700
30
0
11
-1.0230
21
2.8700
31
0
0
LINE
8
EARS
10
-1.0230
20
2.8700
30
0
11
-1.0910
21
2.8700
31
0
0
LINE
8
EARS
10
-1.0910
20
2.8700
30
0
11
-1.1590
21
2.8700
31
0
0
LINE
8
EARS
10
-1.1590
20
2.8700
30
0
11
-1.2270
21
2.8700
31
0
0
LINE
8
EARS
10
-1.2270
20
2.8700
30
0
11
-1.2960
21
2.8700
31
0
0
LINE
8
EARS
10
-1.2960
20
2.8700
30
0
11
-1.3640
21
2.8700
31
0
0
LINE
8
EARS
10
-1.3640
20
2.8700
30
0
11
-1.4320
21
2.8700
31
0
0
LINE
8
EARS
10
-1.4320
20
2.8700
30
0
11
-1.5000
21
2.8700
31
0
0
LINE
8
EARS
10
-1.5000
20
2.8700
30
0
11
-1.5680
21
2.8700
31
0
0
LINE
8
EARS
10
-1.5680
20
2.8700
30
0
11
-1.6360
21
2.8700
31
0
0
LINE
8
EARS
10
-1.6360
20
2.8700
30
0
11
-1.7050
21
2.8700
31
0
0
LINE
8
EARS
10
-1.7050
20
2.8700
30
0
11
-1.7730
21
2.8700
31
0
0
LINE
8
EARS
10
-1.7730
20
2.8700
30
0
11
-1.8410
21
2.8700
31
0
0
LINE
8
EARS
10
-1.8410
20
2.8700
30
0
11
-1.9090
21
2.8700
31
0
0
LINE
8
EARS
10
-1.9090
20
2.8700
30
0
11
-1.9770
21
2.8700
31
0
0
LINE
8
EARS
10
-1.9770
20
2.8700
30
0
11
-2.0460
21
2.8700
31
0
0
LINE
8
EARS
10
-2.0460
20
2.8700
30
0
11
-2.1140
21
2.8700
31
0
0
LINE
8
EARS
10
-2.1140
20
2.8700
30
0
11
-2.1820
21
2.8700
31
0
0
LINE
8
EARS
10
-2.1820
20
2.8700
30
0
11
-2.2500
21
2.8700
31
0
0
LINE
8
EARS
10
-2.2500
20
2.8700
30
0
11
-2.3180
21
2.8700
31
0
0
LINE
8
EARS
10
-2.3180
20
2.8700
30
0
11
-2.3860
21
2.8700
31
0
0
LINE
8
EARS
10
-2.3860
20
2.8700
30
0
11
-2.4550
21
2.9380
31
0
0
LINE
8
EARS
10
-2.4550
20
2.9380
30
0
11
-2.5230
21
2.9380
31
0
0
LINE
8
EARS
10
-2.5230
20
2.9380
30
0
11
-2.5910
21
2.9380
31
0
0
LINE
8
EARS
10
-2.5910
20
2.9380
30
0
11
-2.6590
21
2.9380
31
0
0
LINE
8
EARS
10
-2.6590
20
2.9380
30
0
11
-2.7270
21
2.9380
31
0
0
LINE
8
EARS
10
-2.7270
20
2.9380
30
0
11
-2.7960
21
3.0060
31
0
0
LINE
8
EARS
10
-2.7960
20
3.0060
30
0
11
-2.8640
21
3.0060
31
0
0
LINE
8
EARS
10
-2.8640
20
3.0060
30
0
11
-2.9320
21
3.0060
31
0
0
LINE
8
EARS
10
-2.9320
20
3.0060
30
0
11
-3.0000
21
3.0750
31
0
0
LINE
8
EARS
10
-3.0000
20
3.0750
30
0
11
-3.0680
21
3.0750
31
0
0
LINE
8
EARS
10
-3.0680
20
3.0750
30
0
11
-3.1360
21
3.1430
31
0
0
LINE
8
EARS
10
-3.1360
20
3.1430
30
0
11
-3.2050
21
3.1430
31
0
0
LINE
8
EARS
10
-3.2050
20
3.1430
30
0
11
-3.2730
21
3.2110
31
0
0
LINE
8
EARS
10
-3.2730
20
3.2110
30
0
11
-3.3410
21
3.2800
31
0
0
LINE
8
EARS
10
-3.3410
20
3.2800
30
0
11
-3.4090
21
3.2800
31
0
0
LINE
8
EARS
10
-3.4090
20
3.2800
30
0
11
-3.4770
21
3.3480
31
0
0
LINE
8
EARS
10
-3.4770
20
3.3480
30
0
11
-3.5460
21
3.4160
31
0
0
LINE
8
EARS
10
-3.5460
20
3.4160
30
0
11
-3.6140
21
3.4850
31
0
0
LINE
8
EARS
10
-3.6140
20
3.4850
30
0
11
-3.6820
21
3.5530
31
0
0
LINE
8
EARS
10
-3.6820
20
3.5530
30
0
11
-3.7500
21
3.6210
31
0
0
LINE
8
EARS
10
-3.7500
20
3.6210
30
0
11
-3.8180
21
3.6900
31
0
0
LINE
8
EARS
10
-3.8180
20
3.6900
30
0
11
-3.8180
21
3.7580
31
0
0
LINE
8
EARS
10
-3.8180
20
3.7580
30
0
11
-3.8870
21
3.8260
31
0
0
LINE
8
EARS
10
-3.8870
20
3.8260
30
0
11
-3.9550
21
3.8950
31
0
0
LINE
8
EARS
10
-3.9550
20
3.8950
30
0
11
-3.9550
21
3.9630
31
0
0
LINE
8
EARS
10
-3.9550
20
3.9630
30
0
11
-4.0230
21
4.0310
31
0
0
LINE
8
EARS
10
-4.0230
20
4.0310
30
0
11
-4.0230
21
4.1000
31
0
0
LINE
8
EARS
10
-4.0230
20
4.1000
30
0
11
-4.0910
21
4.1680
31
0
0
LINE
8
EARS
10
-4.0910
20
4.1680
30
0
11
-4.0910
21
4.2360
31
0
0
LINE
8
EARS
10
-4.0910
20
4.2360
30
0
11
-4.0910
21
4.3050
31
0
0
LINE
8
EARS
10
-4.0910
20
4.3050
30
0
11
-4.1590
21
4.3730
31
0
0
LINE
8
EARS
10
-4.1590
20
4.3730
30
0
11
-4.1590
21
4.4410
31
0
0
LINE
8
EARS
10
-4.1590
20
4.4410
30
0
11
-4.1590
21
4.5100
31
0
0
LINE
8
EARS
10
-4.1590
20
4.5100
30
0
11
-4.2270
21
4.5780
31
0
0
LINE
8
EARS
10
-4.2270
20
4.5780
30
0
11
-4.2270
21
4.6460
31
0
0
LINE
8
EARS
10
-4.2270
20
4.6460
30
0
11
-4.2270
21
4.7150
31
0
0
LINE
8
EARS
10
-4.2270
20
4.7150
30
0
11
-4.2270
21
4.7830
31
0
0
LINE
8
EARS
10
-4.2270
20
4.7830
30
0
11
-4.2270
21
4.8510
31
0
0
LINE
8
EARS
10
-4.2270
20
4.8510
30
0
11
-4.2270
21
4.9200
31
0
0
LINE
8
EARS
10
-4.2270
20
4.9200
30
0
11
-4.2270
21
4.9880
31
0
0
LINE
8
EARS
10
-4.2270
20
4.9880
30
0
11
-4.2270
21
5.0560
31
0
0
LINE
8
EARS
10
-4.2270
20
5.0560
30
0
11
-4.2270
21
5.1250
31
0
0
LINE
8
EARS
10
-4.2270
20
5.1250
30
0
11
-4.2270
21
5.1930
31
0
0
LINE
8
EARS
10
-4.2270
20
5.1930
30
0
11
-4.2270
21
5.2610
31
0
0
LINE
8
EARS
10
-4.2270
20
5.2610
30
0
11
-4.1590
21
5.3300
31
0
0
LINE
8
EARS
10
-4.1590
20
5.3300
30
0
11
-4.1590
21
5.3980
31
0
0
LINE
8
EARS
10
-4.1590
20
5.3980
30
0
11
-4.1590
21
5.4660
31
0
0
LINE
8
EARS
10
-4.1590
20
5.4660
30
0
11
-4.1590
21
5.5350
31
0
0
LINE
8
EARS
10
-4.1590
20
5.5350
30
0
11
-4.0910
21
5.6030
31
0
0
LINE
8
EARS
10
-4.0910
20
5.6030
30
0
11
-4.0910
21
5.6710
31
0
0
LINE
8
EARS
10
-4.0910
20
5.6710
30
0
11
-4.0910
21
5.7400
31
0
0
LINE
8
EARS
10
-4.0910
20
5.7400
30
0
11
-4.0230
21
5.8080
31
0
0
LINE
8
EARS
10
-4.0230
20
5.8080
30
0
11
-4.0230
21
5.8760
31
0
0
LINE
8
EARS
10
-4.0230
20
5.8760
30
0
11
-3.9550
21
5.9450
31
0
0
LINE
8
EARS
10
-3.9550
20
5.9450
30
0
11
-3.8870
21
6.0130
31
0
0
LINE
8
EARS
10
-3.8870
20
6.0130
30
0
11
-3.8870
21
6.0810
31
0
0
LINE
8
EARS
10
-3.8870
20
6.0810
30
0
11
-3.8180
21
6.1500
31
0
0
LINE
8
EARS
10
-3.8180
20
6.1500
30
0
11
-3.7500
21
6.2180
31
0
0
LINE
8
EARS
10
-3.7500
20
6.2180
30
0
11
-3.6820
21
6.2860
31
0
0
LINE
8
EARS
10
-3.6820
20
6.2860
30
0
11
-3.6140
21
6.3550
31
0
0
LINE
8
EARS
10
-3.6140
20
6.3550
30
0
11
-3.5460
21
6.4230
31
0
0
LINE
8
EARS
10
-3.5460
20
6.4230
30
0
11
-3.4770
21
6.4910
31
0
0
LINE
8
EARS
10
-3.4770
20
6.4910
30
0
11
-3.4090
21
6.5600
31
0
0
LINE
8
EARS
10
-3.4090
20
6.5600
30
0
11
-3.3410
21
6.6280
31
0
0
LINE
8
EARS
10
-3.3410
20
6.6280
30
0
11
-3.2730
21
6.6960
31
0
0
LINE
8
EARS
10
-3.2730
20
6.6960
30
0
11
-3.2050
21
6.7650
31
0
0
LINE
8
EARS
10
-3.2050
20
6.7650
30
0
11
-3.1360
21
6.8330
31
0
0
LINE
8
EARS
10
-3.1360
20
6.8330
30
0
11
-3.0680
21
6.9010
31
0
0
LINE
8
EARS
10
-3.0680
20
6.9010
30
0
11
-3.0000
21
6.9690
31
0
0
LINE
8
EARS
10
-3.0000
20
6.9690
30
0
11
-2.9320
21
7.0380
31
0
0
LINE
8
EARS
10
-2.9320
20
7.0380
30
0
11
-2.8640
21
7.1060
31
0
0
LINE
8
EARS
10
-2.8640
20
7.1060
30
0
11
-2.7960
21
7.1740
31
0
0
LINE
8
EARS
10
-2.7960
20
7.1740
30
0
11
-2.7270
21
7.2430
31
0
0
LINE
8
EARS
10
-2.7270
20
7.2430
30
0
11
-2.6590
21
7.3110
31
0
0
LINE
8
EARS
10
-2.6590
20
7.3110
30
0
11
-2.5910
21
7.3790
31
0
0
LINE
8
EARS
10
-2.5910
20
7.3790
30
0
11
-2.5230
21
7.4480
31
0
0
LINE
8
EARS
10
-2.5230
20
7.4480
30
0
11
-2.4550
21
7.5160
31
0
0
LINE
8
EARS
10
-2.4550
20
7.5160
30
0
11
-2.3860
21
7.5840
31
0
0
LINE
8
EARS
10
-2.3860
20
7.5840
30
0
11
-2.3180
21
7.6530
31
0
0
LINE
8
EARS
10
-2.3180
20
7.6530
30
0
11
-2.2500
21
7.7210
31
0
0
LINE
8
EARS
10
-2.2500
20
7.7210
30
0
11
-2.1820
21
7.7890
31
0
0
LINE
8
EARS
10
-2.1820
20
7.7890
30
0
11
-2.1140
21
7.8580
31
0
0
LINE
8
EARS
10
-2.1140
20
7.8580
30
0
11
-2.0460
21
7.9260
31
0
0
LINE
8
EARS
10
-2.0460
20
7.9260
30
0
11
-1.9770
21
7.9940
31
0
0
LINE
8
EARS
10
-1.9770
20
7.9940
30
0
11
-1.9090
21
8.0630
31
0
0
LINE
8
EARS
10
-1.9090
20
8.0630
30
0
11
-1.8410
21
8.1310
31
0
0
LINE
8
EARS
10
-1.8410
20
8.1310
30
0
11
-1.7730
21
8.1990
31
0
0
LINE
8
EARS
10
-1.7730
20
8.1990
30
0
11
-1.7050
21
8.2680
31
0
0
LINE
8
EARS
10
-1.7050
20
8.2680
30
0
11
-1.6360
21
8.3360
31
0
0
LINE
8
EARS
10
-1.6360
20
8.3360
30
0
11
-1.5680
21
8.4040
31
0
0
LINE
8
EARS
10
-1.5680
20
8.4040
30
0
11
-1.5000
21
8.4730
31
0
0
LINE
8
EARS
10
-1.5000
20
8.4730
30
0
11
-1.4320
21
8.5410
31
0
0
LINE
8
EARS
10
-1.4320
20
8.5410
30
0
11
-1.3640
21
8.6090
31
0
0
LINE
8
EARS
10
-1.3640
20
8.6090
30
0
11
-1.2960
21
8.6780
31
0
0
LINE
8
EARS
10
-1.2960
20
8.6780
30
0
11
-1.2270
21
8.7460
31
0
0
LINE
8
EARS
10
-1.2270
20
8.7460
30
0
11
-1.1590
21
8.8140
31
0
0
LINE
8
EARS
10
-1.1590
20
8.8140
30
0
11
-1.0910
21
8.8830
31
0
0
LINE
8
EARS
10
-1.0910
20
8.8830
30
0
11
-1.0230
21
8.9510
31
0
0
LINE
8
EARS
10
-1.0230
20
8.9510
30
0
11
-0.9550
21
9.0190
31
0
0
LINE
8
EARS
10
-0.9550
20
9.0190
30
0
11
-0.8860
21
9.0880
31
0
0
LINE
8
EARS
10
-0.8860
20
9.0880
30
0
11
-0.8180
21
9.1560
31
0
0
LINE
8
EARS
10
-0.8180
20
9.1560
30
0
11
-0.7500
21
9.2240
31
0
0
LINE
8
EARS
10
-0.7500
20
9.2240
30
0
11
-0.6820
21
9.2930
31
0
0
LINE
8
EARS
10
-0.6820
20
9.2930
30
0
11
-0.6140
21
9.3610
31
0
0
LINE
8
EARS
10
-0.6140
20
9.3610
30
0
11
-0.5450
21
9.4290
31
0
0
LINE
8
EARS
10
-0.5450
20
9.4290
30
0
11
-0.4770
21
9.4980
31
0
0
LINE
8
EARS
10
-0.4770
20
9.4980
30
0
11
0.0000
21
9.5660
31
0
0
LINE
8
EARS
10
0.0000
20
9.5660
30
0
11
0.0000
21
2.8010
31
0
0
LINE
8
EARS
10
2.3180
20
207.9200
30
0
11
2.3860
21
209.3580
31
0
0
LINE
8
EARS
10
2.3860
20
209.3580
30
0
11
2.4550
21
209.4270
31
0
0
LINE
8
EARS
10
2.4550
20
209.4270
30
0
11
2.4550
21
209.4950
31
0
0
LINE
8
EARS
10
2.4550
20
209.4950
30
0
11
2.5230
21
209.5630
31
0
0
LINE
8
EARS
10
2.5230
20
209.5630
30
0
11
2.5230
21
209.6320
31
0
0
LINE
8
EARS
10
2.5230
20
209.6320
30
0
11
2.5910
21
209.7000
31
0
0
LINE
8
EARS
10
2.5910
20
209.7000
30
0
11
2.5910
21
209.7680
31
0
0
LINE
8
EARS
10
2.5910
20
209.7680
30
0
11
2.6590
21
209.8370
31
0
0
LINE
8
EARS
10
2.6590
20
209.8370
30
0
11
2.6590
21
209.9050
31
0
0
LINE
8
EARS
10
2.6590
20
209.9050
30
0
11
2.7270
21
209.9730
31
0
0
LINE
8
EARS
10
2.7270
20
209.9730
30
0
11
2.7270
21
210.0420
31
0
0
LINE
8
EARS
10
2.7270
20
210.0420
30
0
11
2.7960
21
210.1100
31
0
0
LINE
8
EARS
10
2.7960
20
210.1100
30
0
11
2.8640
21
210.1780
31
0
0
LINE
8
EARS
10
2.8640
20
210.1780
30
0
11
2.8640
21
210.2470
31
0
0
LINE
8
EARS
10
2.8640
20
210.2470
30
0
11
2.9320
21
210.3150
31
0
0
LINE
8
EARS
10
2.9320
20
210.3150
30
0
11
2.9320
21
210.3830
31
0
0
LINE
8
EARS
10
2.9320
20
210.3830
30
0
11
3.0000
21
210.4520
31
0
0
LINE
8
EARS
10
3.0000
20
210.4520
30
0
11
3.0000
21
210.5200
31
0
0
LINE
8
EARS
10
3.0000
20
210.5200
30
0
11
3.0680
21
210.5880
31
0
0
LINE
8
EARS
10
3.0680
20
210.5880
30
0
11
3.0680
21
210.6570
31
0
0
LINE
8
EARS
10
3.0680
20
210.6570
30
0
11
3.1360
21
210.7250
31
0
0
LINE
8
EARS
10
3.1360
20
210.7250
30
0
11
3.1360
21
210.7930
31
0
0
LINE
8
EARS
10
3.1360
20
210.7930
30
0
11
3.2050
21
210.8620
31
0
0
LINE
8
EARS
10
3.2050
20
210.8620
30
0
11
3.2730
21
210.9300
31
0
0
LINE
8
EARS
10
3.2730
20
210.9300
30
0
11
3.2730
21
210.9980
31
0
0
LINE
8
EARS
10
3.2730
20
210.9980
30
0
11
3.3410
21
211.0670
31
0
0
LINE
8
EARS
10
3.3410
20
211.0670
30
0
11
3.4090
21
211.1350
31
0
0
LINE
8
EARS
10
3.4090
20
211.1350
30
0
11
3.4770
21
211.2030
31
0
0
LINE
8
EARS
10
3.4770
20
211.2030
30
0
11
3.4770
21
211.2710
31
0
0
LINE
8
EARS
10
3.4770
20
211.2710
30
0
11
3.5460
21
211.3400
31
0
0
LINE
8
EARS
10
3.5460
20
211.3400
30
0
11
3.6140
21
211.4080
31
0
0
LINE
8
EARS
10
3.6140
20
211.4080
30
0
11
3.6820
21
211.4080
31
0
0
LINE
8
EARS
10
3.6820
20
211.4080
30
0
11
3.7500
21
211.4760
31
0
0
LINE
8
EARS
10
3.7500
20
211.4760
30
0
11
3.8180
21
211.5450
31
0
0
LINE
8
EARS
10
3.8180
20
211.5450
30
0
11
3.8870
21
211.6130
31
0
0
LINE
8
EARS
10
3.8870
20
211.6130
30
0
11
3.9550
21
211.6130
31
0
0
LINE
8
EARS
10
3.9550
20
211.6130
30
0
11
4.0230
21
211.6810
31
0
0
LINE
8
EARS
10
4.0230
20
211.6810
30
0
11
4.0910
21
211.6810
31
0
0
LINE
8
EARS
10
4.0910
20
211.6810
30
0
11
4.1590
21
211.7500
31
0
0
LINE
8
EARS
10
4.1590
20
211.7500
30
0
11
4.2270
21
211.7500
31
0
0
LINE
8
EARS
10
4.2270
20
211.7500
30
0
11
4.2960
21
211.8180
31
0
0
LINE
8
EARS
10
4.2960
20
211.8180
30
0
11
4.3640
21
211.8180
31
0
0
LINE
8
EARS
10
4.3640
20
211.8180
30
0
11
4.4320
21
211.8180
31
0
0
LINE
8
EARS
10
4.4320
20
211.8180
30
0
11
4.5000
21
211.8180
31
0
0
LINE
8
EARS
10
4.5000
20
211.8180
30
0
11
4.5680
21
211.8860
31
0
0
LINE
8
EARS
10
4.5680
20
211.8860
30
0
11
4.6370
21
211.8860
31
0
0
LINE
8
EARS
10
4.6370
20
211.8860
30
0
11
4.7050
21
211.8860
31
0
0
LINE
8
EARS
10
4.7050
20
211.8860
30
0
11
4.7730
21
211.8860
31
0
0
LINE
8
EARS
10
4.7730
20
211.8860
30
0
11
4.8410
21
211.8860
31
0
0
LINE
8
EARS
10
4.8410
20
211.8860
30
0
11
4.9090
21
211.8860
31
0
0
LINE
8
EARS
10
4.9090
20
211.8860
30
0
11
4.9770
21
211.8860
31
0
0
LINE
8
EARS
10
4.9770
20
211.8860
30
0
11
5.0460
21
211.8860
31
0
0
LINE
8
EARS
10
5.0460
20
211.8860
30
0
11
5.1140
21
211.8860
31
0
0
LINE
8
EARS
10
5.1140
20
211.8860
30
0
11
5.1820
21
211.8860
31
0
0
LINE
8
EARS
10
5.1820
20
211.8860
30
0
11
5.2500
21
211.8860
31
0
0
LINE
8
EARS
10
5.2500
20
211.8860
30
0
11
5.3180
21
211.8860
31
0
0
LINE
8
EARS
10
5.3180
20
211.8860
30
0
11
5.3870
21
211.8860
31
0
0
LINE
8
EARS
10
5.3870
20
211.8860
30
0
11
5.4550
21
211.8180
31
0
0
LINE
8
EARS
10
5.4550
20
211.8180
30
0
11
5.5230
21
211.8180
31
0
0
LINE
8
EARS
10
5.5230
20
211.8180
30
0
11
5.5910
21
211.8180
31
0
0
LINE
8
EARS
10
5.5910
20
211.8180
30
0
11
5.6590
21
211.8180
31
0
0
LINE
8
EARS
10
5.6590
20
211.8180
30
0
11
5.7270
21
211.7500
31
0
0
LINE
8
EARS
10
5.7270
20
211.7500
30
0
11
5.7960
21
211.7500
31
0
0
LINE
8
EARS
10
5.7960
20
211.7500
30
0
11
5.8640
21
211.6810
31
0
0
LINE
8
EARS
10
5.8640
20
211.6810
30
0
11
5.9320
21
211.6810
31
0
0
LINE
8
EARS
10
5.9320
20
211.6810
30
0
11
6.0000
21
211.6810
31
0
0
LINE
8
EARS
10
6.0000
20
211.6810
30
0
11
6.0680
21
211.6130
31
0
0
LINE
8
EARS
10
6.0680
20
211.6130
30
0
11
6.1370
21
211.5450
31
0
0
LINE
8
EARS
10
6.1370
20
211.5450
30
0
11
6.2050
21
211.5450
31
0
0
LINE
8
EARS
10
6.2050
20
211.5450
30
0
11
6.2730
21
211.4760
31
0
0
LINE
8
EARS
10
6.2730
20
211.4760
30
0
11
6.3410
21
211.4080
31
0
0
LINE
8
EARS
10
6.3410
20
211.4080
30
0
11
6.4090
21
211.3400
31
0
0
LINE
8
EARS
10
6.4090
20
211.3400
30
0
11
6.4780
21
211.2710
31
0
0
LINE
8
EARS
10
6.4780
20
211.2710
30
0
11
6.5460
21
211.2030
31
0
0
LINE
8
EARS
10
6.5460
20
211.2030
30
0
11
6.6140
21
211.1350
31
0
0
LINE
8
EARS
10
6.6140
20
211.1350
30
0
11
6.6820
21
211.0670
31
0
0
LINE
8
EARS
10
6.6820
20
211.0670
30
0
11
6.7500
21
210.9980
31
0
0
LINE
8
EARS
10
6.7500
20
210.9980
30
0
11
6.7500
21
210.9300
31
0
0
LINE
8
EARS
10
6.7500
20
210.9300
30
0
11
6.8180
21
210.8620
31
0
0
LINE
8
EARS
10
6.8180
20
210.8620
30
0
11
6.8180
21
210.7930
31
0
0
LINE
8
EARS
10
6.8180
20
210.7930
30
0
11
6.8870
21
210.7250
31
0
0
LINE
8
EARS
10
6.8870
20
210.7250
30
0
11
6.8870
21
210.6570
31
0
0
LINE
8
EARS
10
6.8870
20
210.6570
30
0
11
6.8870
21
210.5880
31
0
0
LINE
8
EARS
10
6.8870
20
210.5880
30
0
11
6.9550
21
210.5200
31
0
0
LINE
8
EARS
10
6.9550
20
210.5200
30
0
11
6.9550
21
210.4520
31
0
0
LINE
8
EARS
10
6.9550
20
210.4520
30
0
11
6.9550
21
210.3830
31
0
0
LINE
8
EARS
10
6.9550
20
210.3830
30
0
11
6.9550
21
210.3150
31
0
0
LINE
8
EARS
10
6.9550
20
210.3150
30
0
11
7.0230
21
210.2470
31
0
0
LINE
8
EARS
10
7.0230
20
210.2470
30
0
11
7.0230
21
210.1780
31
0
0
LINE
8
EARS
10
7.0230
20
210.1780
30
0
11
7.0230
21
210.1100
31
0
0
LINE
8
EARS
10
7.0230
20
210.1100
30
0
11
7.0230
21
210.0420
31
0
0
LINE
8
EARS
10
7.0230
20
210.0420
30
0
11
7.0230
21
209.9730
31
0
0
LINE
8
EARS
10
7.0230
20
209.9730
30
0
11
7.0910
21
209.9050
31
0
0
LINE
8
EARS
10
7.0910
20
209.9050
30
0
11
7.0910
21
209.8370
31
0
0
LINE
8
EARS
10
7.0910
20
209.8370
30
0
11
7.0910
21
209.7680
31
0
0
LINE
8
EARS
10
7.0910
20
209.7680
30
0
11
7.0910
21
209.7000
31
0
0
LINE
8
EARS
10
7.0910
20
209.7000
30
0
11
7.0910
21
209.6320
31
0
0
LINE
8
EARS
10
7.0910
20
209.6320
30
0
11
7.0910
21
209.5630
31
0
0
LINE
8
EARS
10
7.0910
20
209.5630
30
0
11
7.0910
21
209.4950
31
0
0
LINE
8
EARS
10
7.0910
20
209.4950
30
0
11
7.0910
21
209.4270
31
0
0
LINE
8
EARS
10
7.0910
20
209.4270
30
0
11
7.0910
21
209.3580
31
0
0
LINE
8
EARS
10
7.0910
20
209.3580
30
0
11
7.0910
21
207.9200
31
0
0
LINE
8
EARS
10
7.0910
20
207.9200
30
0
11
2.3180
21
207.9200
31
0
0
LINE
8
EARS
10
156.6880
20
208.8800
30
0
11
156.6880
21
209.3580
31
0
0
LINE
8
EARS
10
156.6880
20
209.3580
30
0
11
156.7560
21
209.4270
31
0
0
LINE
8
EARS
10
156.7560
20
209.4270
30
0
11
156.8240
21
209.4950
31
0
0
LINE
8
EARS
10
156.8240
20
209.4950
30
0
11
156.8920
21
209.5630
31
0
0
LINE
8
EARS
10
156.8920
20
209.5630
30
0
11
156.9610
21
209.6320
31
0
0
LINE
8
EARS
10
156.9610
20
209.6320
30
0
11
157.0290
21
209.7000
31
0
0
LINE
8
EARS
10
157.0290
20
209.7000
30
0
11
157.0970
21
209.7680
31
0
0
LINE
8
EARS
10
157.0970
20
209.7680
30
0
11
157.1650
21
209.7680
31
0
0
LINE
8
EARS
10
157.1650
20
209.7680
30
0
11
157.2330
21
209.8370
31
0
0
LINE
8
EARS
10
157.2330
20
209.8370
30
0
11
157.3010
21
209.9050
31
0
0
LINE
8
EARS
10
157.3010
20
209.9050
30
0
11
157.3700
21
209.9730
31
0
0
LINE
8
EARS
10
157.3700
20
209.9730
30
0
11
157.4380
21
210.0420
31
0
0
LINE
8
EARS
10
157.4380
20
210.0420
30
0
11
157.5060
21
210.1100
31
0
0
LINE
8
EARS
10
157.5060
20
210.1100
30
0
11
157.5740
21
210.1780
31
0
0
LINE
8
EARS
10
157.5740
20
210.1780
30
0
11
157.6420
21
210.2470
31
0
0
LINE
8
EARS
10
157.6420
20
210.2470
30
0
11
157.7110
21
210.3150
31
0
0
LINE
8
EARS
10
157.7110
20
210.3150
30
0
11
157.7790
21
210.3830
31
0
0
LINE
8
EARS
10
157.7790
20
210.3830
30
0
11
157.8470
21
210.4520
31
0
0
LINE
8
EARS
10
157.8470
20
210.4520
30
0
11
157.9150
21
210.5200
31
0
0
LINE
8
EARS
10
157.9150
20
210.5200
30
0
11
157.9830
21
210.5880
31
0
0
LINE
8
EARS
10
157.9830
20
210.5880
30
0
11
158.0510
21
210.6570
31
0
0
LINE
8
EARS
10
158.0510
20
210.6570
30
0
11
158.1200
21
210.7250
31
0
0
LINE
8
EARS
10
158.1200
20
210.7250
30
0
11
158.1880
21
210.7930
31
0
0
LINE
8
EARS
10
158.1880
20
210.7930
30
0
11
158.2560
21
210.8620
31
0
0
LINE
8
EARS
10
158.2560
20
210.8620
30
0
11
158.3240
21
210.9300
31
0
0
LINE
8
EARS
10
158.3240
20
210.9300
30
0
11
158.3920
21
210.9980
31
0
0
LINE
8
EARS
10
158.3920
20
210.9980
30
0
11
158.4610
21
211.0670
31
0
0
LINE
8
EARS
10
158.4610
20
211.0670
30
0
11
158.5290
21
211.1350
31
0
0
LINE
8
EARS
10
158.5290
20
211.1350
30
0
11
158.5970
21
211.2030
31
0
0
LINE
8
EARS
10
158.5970
20
211.2030
30
0
11
158.6650
21
211.2710
31
0
0
LINE
8
EARS
10
158.6650
20
211.2710
30
0
11
158.7330
21
211.3400
31
0
0
LINE
8
EARS
10
158.7330
20
211.3400
30
0
11
158.8020
21
211.4080
31
0
0
LINE
8
EARS
10
158.8020
20
211.4080
30
0
11
158.8700
21
211.4760
31
0
0
LINE
8
EARS
10
158.8700
20
211.4760
30
0
11
158.9380
21
211.5450
31
0
0
LINE
8
EARS
10
158.9380
20
211.5450
30
0
11
159.0060
21
211.6130
31
0
0
LINE
8
EARS
10
159.0060
20
211.6130
30
0
11
159.0740
21
211.6810
31
0
0
LINE
8
EARS
10
159.0740
20
211.6810
30
0
11
159.1420
21
211.7500
31
0
0
LINE
8
EARS
10
159.1420
20
211.7500
30
0
11
159.2110
21
211.8180
31
0
0
LINE
8
EARS
10
159.2110
20
211.8180
30
0
11
159.2790
21
211.8860
31
0
0
LINE
8
EARS
10
159.2790
20
211.8860
30
0
11
159.3470
21
211.9550
31
0
0
LINE
8
EARS
10
159.3470
20
211.9550
30
0
11
159.4150
21
212.0230
31
0
0
LINE
8
EARS
10
159.4150
20
212.0230
30
0
11
159.4830
21
212.0910
31
0
0
LINE
8
EARS
10
159.4830
20
212.0910
30
0
11
159.5520
21
212.1600
31
0
0
LINE
8
EARS
10
159.5520
20
212.1600
30
0
11
159.6200
21
212.2280
31
0
0
LINE
8
EARS
10
159.6200
20
212.2280
30
0
11
159.6880
21
212.2960
31
0
0
LINE
8
EARS
10
159.6880
20
212.2960
30
0
11
159.7560
21
212.3650
31
0
0
LINE
8
EARS
10
159.7560
20
212.3650
30
0
11
159.8240
21
212.4330
31
0
0
LINE
8
EARS
10
159.8240
20
212.4330
30
0
11
159.8920
21
212.5010
31
0
0
LINE
8
EARS
10
159.8920
20
212.5010
30
0
11
159.9610
21
212.5700
31
0
0
LINE
8
EARS
10
159.9610
20
212.5700
30
0
11
160.0290
21
212.6380
31
0
0
LINE
8
EARS
10
160.0290
20
212.6380
30
0
11
160.0970
21
212.7060
31
0
0
LINE
8
EARS
10
160.0970
20
212.7060
30
0
11
160.1650
21
212.7750
31
0
0
LINE
8
EARS
10
160.1650
20
212.7750
30
0
11
160.2330
21
212.8430
31
0
0
LINE
8
EARS
10
160.2330
20
212.8430
30
0
11
160.3020
21
212.9110
31
0
0
LINE
8
EARS
10
160.3020
20
212.9110
30
0
11
160.3700
21
212.9800
31
0
0
LINE
8
EARS
10
160.3700
20
212.9800
30
0
11
160.4380
21
213.0480
31
0
0
LINE
8
EARS
10
160.4380
20
213.0480
30
0
11
160.5060
21
213.1160
31
0
0
LINE
8
EARS
10
160.5060
20
213.1160
30
0
11
160.5740
21
213.1850
31
0
0
LINE
8
EARS
10
160.5740
20
213.1850
30
0
11
160.6420
21
213.2530
31
0
0
LINE
8
EARS
10
160.6420
20
213.2530
30
0
11
160.7110
21
213.3210
31
0
0
LINE
8
EARS
10
160.7110
20
213.3210
30
0
11
160.7790
21
213.3900
31
0
0
LINE
8
EARS
10
160.7790
20
213.3900
30
0
11
160.8470
21
213.4580
31
0
0
LINE
8
EARS
10
160.8470
20
213.4580
30
0
11
160.9150
21
213.4580
31
0
0
LINE
8
EARS
10
160.9150
20
213.4580
30
0
11
160.9830
21
213.5260
31
0
0
LINE
8
EARS
10
160.9830
20
213.5260
30
0
11
161.0520
21
213.5260
31
0
0
LINE
8
EARS
10
161.0520
20
213.5260
30
0
11
161.1200
21
213.5950
31
0
0
LINE
8
EARS
10
161.1200
20
213.5950
30
0
11
161.1880
21
213.5950
31
0
0
LINE
8
EARS
10
161.1880
20
213.5950
30
0
11
161.2560
21
213.6630
31
0
0
LINE
8
EARS
10
161.2560
20
213.6630
30
0
11
161.3240
21
213.6630
31
0
0
LINE
8
EARS
10
161.3240
20
213.6630
30
0
11
161.3930
21
213.7310
31
0
0
LINE
8
EARS
10
161.3930
20
213.7310
30
0
11
161.4610
21
213.7310
31
0
0
LINE
8
EARS
10
161.4610
20
213.7310
30
0
11
161.5290
21
213.7310
31
0
0
LINE
8
EARS
10
161.5290
20
213.7310
30
0
11
161.5970
21
213.7310
31
0
0
LINE
8
EARS
10
161.5970
20
213.7310
30
0
11
161.6650
21
213.8000
31
0
0
LINE
8
EARS
10
161.6650
20
213.8000
30
0
11
161.7330
21
213.8000
31
0
0
LINE
8
EARS
10
161.7330
20
213.8000
30
0
11
161.8020
21
213.8000
31
0
0
LINE
8
EARS
10
161.8020
20
213.8000
30
0
11
161.8700
21
213.8000
31
0
0
LINE
8
EARS
10
161.8700
20
213.8000
30
0
11
161.9380
21
213.8000
31
0
0
LINE
8
EARS
10
161.9380
20
213.8000
30
0
11
162.0060
21
213.8000
31
0
0
LINE
8
EARS
10
162.0060
20
213.8000
30
0
11
162.0740
21
213.8000
31
0
0
LINE
8
EARS
10
162.0740
20
213.8000
30
0
11
162.1430
21
213.8000
31
0
0
LINE
8
EARS
10
162.1430
20
213.8000
30
0
11
162.2110
21
213.8000
31
0
0
LINE
8
EARS
10
162.2110
20
213.8000
30
0
11
162.2790
21
213.8000
31
0
0
LINE
8
EARS
10
162.2790
20
213.8000
30
0
11
162.3470
21
213.8000
31
0
0
LINE
8
EARS
10
162.3470
20
213.8000
30
0
11
162.4150
21
213.7310
31
0
0
LINE
8
EARS
10
162.4150
20
213.7310
30
0
11
162.4830
21
213.7310
31
0
0
LINE
8
EARS
10
162.4830
20
213.7310
30
0
11
162.5520
21
213.7310
31
0
0
LINE
8
EARS
10
162.5520
20
213.7310
30
0
11
162.6200
21
213.7310
31
0
0
LINE
8
EARS
10
162.6200
20
213.7310
30
0
11
162.6880
21
213.6630
31
0
0
LINE
8
EARS
10
162.6880
20
213.6630
30
0
11
162.7560
21
213.6630
31
0
0
LINE
8
EARS
10
162.7560
20
213.6630
30
0
11
162.8240
21
213.5950
31
0
0
LINE
8
EARS
10
162.8240
20
213.5950
30
0
11
162.8930
21
213.5950
31
0
0
LINE
8
EARS
10
162.8930
20
213.5950
30
0
11
162.9610
21
213.5260
31
0
0
LINE
8
EARS
10
162.9610
20
213.5260
30
0
11
163.0290
21
213.5260
31
0
0
LINE
8
EARS
10
163.0290
20
213.5260
30
0
11
163.0970
21
213.4580
31
0
0
LINE
8
EARS
10
163.0970
20
213.4580
30
0
11
163.1650
21
213.4580
31
0
0
LINE
8
EARS
10
163.1650
20
213.4580
30
0
11
163.2330
21
213.3900
31
0
0
LINE
8
EARS
10
163.2330
20
213.3900
30
0
11
163.3020
21
213.3210
31
0
0
LINE
8
EARS
10
163.3020
20
213.3210
30
0
11
163.3700
21
213.2530
31
0
0
LINE
8
EARS
10
163.3700
20
213.2530
30
0
11
163.4380
21
213.1850
31
0
0
LINE
8
EARS
10
163.4380
20
213.1850
30
0
11
163.5060
21
213.1160
31
0
0
LINE
8
EARS
10
163.5060
20
213.1160
30
0
11
163.5740
21
213.0480
31
0
0
LINE
8
EARS
10
163.5740
20
213.0480
30
0
11
163.6430
21
212.9800
31
0
0
LINE
8
EARS
10
163.6430
20
212.9800
30
0
11
163.7110
21
212.9110
31
0
0
LINE
8
EARS
10
163.7110
20
212.9110
30
0
11
163.7110
21
212.8430
31
0
0
LINE
8
EARS
10
163.7110
20
212.8430
30
0
11
163.7790
21
212.7750
31
0
0
LINE
8
EARS
10
163.7790
20
212.7750
30
0
11
163.8470
21
212.7060
31
0
0
LINE
8
EARS
10
163.8470
20
212.7060
30
0
11
163.8470
21
212.6380
31
0
0
LINE
8
EARS
10
163.8470
20
212.6380
30
0
11
163.9150
21
212.5700
31
0
0
LINE
8
EARS
10
163.9150
20
212.5700
30
0
11
163.9150
21
212.5010
31
0
0
LINE
8
EARS
10
163.9150
20
212.5010
30
0
11
163.9150
21
212.4330
31
0
0
LINE
8
EARS
10
163.9150
20
212.4330
30
0
11
163.9840
21
212.3650
31
0
0
LINE
8
EARS
10
163.9840
20
212.3650
30
0
11
163.9840
21
212.2960
31
0
0
LINE
8
EARS
10
163.9840
20
212.2960
30
0
11
164.0520
21
212.2280
31
0
0
LINE
8
EARS
10
164.0520
20
212.2280
30
0
11
164.0520
21
212.1600
31
0
0
LINE
8
EARS
10
164.0520
20
212.1600
30
0
11
164.0520
21
212.0910
31
0
0
LINE
8
EARS
10
164.0520
20
212.0910
30
0
11
164.0520
21
212.0230
31
0
0
LINE
8
EARS
10
164.0520
20
212.0230
30
0
11
164.0520
21
211.9550
31
0
0
LINE
8
EARS
10
164.0520
20
211.9550
30
0
11
164.0520
21
211.8860
31
0
0
LINE
8
EARS
10
164.0520
20
211.8860
30
0
11
164.0520
21
211.8180
31
0
0
LINE
8
EARS
10
164.0520
20
211.8180
30
0
11
164.0520
21
211.7500
31
0
0
LINE
8
EARS
10
164.0520
20
211.7500
30
0
11
164.0520
21
211.6810
31
0
0
LINE
8
EARS
10
164.0520
20
211.6810
30
0
11
164.0520
21
211.6130
31
0
0
LINE
8
EARS
10
164.0520
20
211.6130
30
0
11
164.0520
21
211.5450
31
0
0
LINE
8
EARS
10
164.0520
20
211.5450
30
0
11
164.0520
21
211.4760
31
0
0
LINE
8
EARS
10
164.0520
20
211.4760
30
0
11
164.0520
21
211.4080
31
0
0
LINE
8
EARS
10
164.0520
20
211.4080
30
0
11
164.0520
21
211.3400
31
0
0
LINE
8
EARS
10
164.0520
20
211.3400
30
0
11
164.0520
21
211.2710
31
0
0
LINE
8
EARS
10
164.0520
20
211.2710
30
0
11
164.0520
21
211.2030
31
0
0
LINE
8
EARS
10
164.0520
20
211.2030
30
0
11
164.0520
21
211.1350
31
0
0
LINE
8
EARS
10
164.0520
20
211.1350
30
0
11
164.0520
21
211.0670
31
0
0
LINE
8
EARS
10
164.0520
20
211.0670
30
0
11
164.0520
21
210.9980
31
0
0
LINE
8
EARS
10
164.0520
20
210.9980
30
0
11
164.0520
21
210.9300
31
0
0
LINE
8
EARS
10
164.0520
20
210.9300
30
0
11
164.0520
21
210.8620
31
0
0
LINE
8
EARS
10
164.0520
20
210.8620
30
0
11
164.0520
21
210.7930
31
0
0
LINE
8
EARS
10
164.0520
20
210.7930
30
0
11
164.0520
21
210.7250
31
0
0
LINE
8
EARS
10
164.0520
20
210.7250
30
0
11
164.0520
21
210.6570
31
0
0
LINE
8
EARS
10
164.0520
20
210.6570
30
0
11
164.0520
21
210.5880
31
0
0
LINE
8
EARS
10
164.0520
20
210.5880
30
0
11
164.0520
21
210.5200
31
0
0
LINE
8
EARS
10
164.0520
20
210.5200
30
0
11
164.0520
21
210.4520
31
0
0
LINE
8
EARS
10
164.0520
20
210.4520
30
0
11
164.0520
21
210.3830
31
0
0
LINE
8
EARS
10
164.0520
20
210.3830
30
0
11
164.0520
21
210.3150
31
0
0
LINE
8
EARS
10
164.0520
20
210.3150
30
0
11
164.0520
21
210.2470
31
0
0
LINE
8
EARS
10
164.0520
20
210.2470
30
0
11
164.0520
21
210.1780
31
0
0
LINE
8
EARS
10
164.0520
20
210.1780
30
0
11
164.0520
21
210.1100
31
0
0
LINE
8
EARS
10
164.0520
20
210.1100
30
0
11
164.0520
21
210.0420
31
0
0
LINE
8
EARS
10
164.0520
20
210.0420
30
0
11
164.0520
21
209.9730
31
0
0
LINE
8
EARS
10
164.0520
20
209.9730
30
0
11
164.0520
21
209.9050
31
0
0
LINE
8
EARS
10
164.0520
20
209.9050
30
0
11
164.0520
21
209.8370
31
0
0
LINE
8
EARS
10
164.0520
20
209.8370
30
0
11
164.0520
21
209.7680
31
0
0
LINE
8
EARS
10
164.0520
20
209.7680
30
0
11
164.0520
21
209.7000
31
0
0
LINE
8
EARS
10
164.0520
20
209.7000
30
0
11
164.0520
21
209.6320
31
0
0
LINE
8
EARS
10
164.0520
20
209.6320
30
0
11
164.0520
21
209.5630
31
0
0
LINE
8
EARS
10
164.0520
20
209.5630
30
0
11
164.0520
21
209.4950
31
0
0
LINE
8
EARS
10
164.0520
20
209.4950
30
0
11
164.0520
21
209.4270
31
0
0
LINE
8
EARS
10
164.0520
20
209.4270
30
0
11
164.0520
21
209.3580
31
0
0
LINE
8
EARS
10
164.0520
20
209.3580
30
0
11
164.0520
21
208.8800
31
0
0
LINE
8
EARS
10
164.0520
20
208.8800
30
0
11
156.6880
21
208.8800
31
0
0
LINE
8
EARS
10
163.7110
20
0.0000
30
0
11
163.7110
21
-0.4780
31
0
0
LINE
8
EARS
10
163.7110
20
-0.4780
30
0
11
163.7110
21
-0.5470
31
0
0
LINE
8
EARS
10
163.7110
20
-0.5470
30
0
11
163.7110
21
-0.6150
31
0
0
LINE
8
EARS
10
163.7110
20
-0.6150
30
0
11
163.7110
21
-0.6830
31
0
0
LINE
8
EARS
10
163.7110
20
-0.6830
30
0
11
163.7110
21
-0.7520
31
0
0
LINE
8
EARS
10
163.7110
20
-0.7520
30
0
11
163.7110
21
-0.8200
31
0
0
LINE
8
EARS
10
163.7110
20
-0.8200
30
0
11
163.7110
21
-0.8880
31
0
0
LINE
8
EARS
10
163.7110
20
-0.8880
30
0
11
163.7110
21
-0.9570
31
0
0
LINE
8
EARS
10
163.7110
20
-0.9570
30
0
11
163.7110
21
-1.0250
31
0
0
LINE
8
EARS
10
163.7110
20
-1.0250
30
0
11
163.7110
21
-1.0930
31
0
0
LINE
8
EARS
10
163.7110
20
-1.0930
30
0
11
163.7110
21
-1.1620
31
0
0
LINE
8
EARS
10
163.7110
20
-1.1620
30
0
11
163.7110
21
-1.2300
31
0
0
LINE
8
EARS
10
163.7110
20
-1.2300
30
0
11
163.7110
21
-1.2980
31
0
0
LINE
8
EARS
10
163.7110
20
-1.2980
30
0
11
163.7110
21
-1.3670
31
0
0
LINE
8
EARS
10
163.7110
20
-1.3670
30
0
11
163.7110
21
-1.4350
31
0
0
LINE
8
EARS
10
163.7110
20
-1.4350
30
0
11
163.7110
21
-1.5030
31
0
0
LINE
8
EARS
10
163.7110
20
-1.5030
30
0
11
163.7110
21
-1.5720
31
0
0
LINE
8
EARS
10
163.7110
20
-1.5720
30
0
11
163.7110
21
-1.6400
31
0
0
LINE
8
EARS
10
163.7110
20
-1.6400
30
0
11
163.7110
21
-1.7080
31
0
0
LINE
8
EARS
10
163.7110
20
-1.7080
30
0
11
163.7110
21
-1.7770
31
0
0
LINE
8
EARS
10
163.7110
20
-1.7770
30
0
11
163.7110
21
-1.8450
31
0
0
LINE
8
EARS
10
163.7110
20
-1.8450
30
0
11
163.7110
21
-1.9130
31
0
0
LINE
8
EARS
10
163.7110
20
-1.9130
30
0
11
163.7110
21
-1.9820
31
0
0
LINE
8
EARS
10
163.7110
20
-1.9820
30
0
11
163.7110
21
-2.0500
31
0
0
LINE
8
EARS
10
163.7110
20
-2.0500
30
0
11
163.7110
21
-2.1180
31
0
0
LINE
8
EARS
10
163.7110
20
-2.1180
30
0
11
163.7110
21
-2.1870
31
0
0
LINE
8
EARS
10
163.7110
20
-2.1870
30
0
11
163.7110
21
-2.2550
31
0
0
LINE
8
EARS
10
163.7110
20
-2.2550
30
0
11
163.6430
21
-2.3230
31
0
0
LINE
8
EARS
10
163.6430
20
-2.3230
30
0
11
163.6430
21
-2.3910
31
0
0
LINE
8
EARS
10
163.6430
20
-2.3910
30
0
11
163.6430
21
-2.4600
31
0
0
LINE
8
EARS
10
163.6430
20
-2.4600
30
0
11
163.6430
21
-2.5280
31
0
0
LINE
8
EARS
10
163.6430
20
-2.5280
30
0
11
163.6430
21
-2.5960
31
0
0
LINE
8
EARS
10
163.6430
20
-2.5960
30
0
11
163.6430
21
-2.6650
31
0
0
LINE
8
EARS
10
163.6430
20
-2.6650
30
0
11
163.5740
21
-2.7330
31
0
0
LINE
8
EARS
10
163.5740
20
-2.7330
30
0
11
163.5740
21
-2.8010
31
0
0
LINE
8
EARS
10
163.5740
20
-2.8010
30
0
11
163.5740
21
-2.8700
31
0
0
LINE
8
EARS
10
163.5740
20
-2.8700
30
0
11
163.5060
21
-2.9380
31
0
0
LINE
8
EARS
10
163.5060
20
-2.9380
30
0
11
163.5060
21
-3.0060
31
0
0
LINE
8
EARS
10
163.5060
20
-3.0060
30
0
11
163.5060
21
-3.0750
31
0
0
LINE
8
EARS
10
163.5060
20
-3.0750
30
0
11
163.4380
21
-3.1430
31
0
0
LINE
8
EARS
10
163.4380
20
-3.1430
30
0
11
163.4380
21
-3.2110
31
0
0
LINE
8
EARS
10
163.4380
20
-3.2110
30
0
11
163.3700
21
-3.2800
31
0
0
LINE
8
EARS
10
163.3700
20
-3.2800
30
0
11
163.3020
21
-3.3480
31
0
0
LINE
8
EARS
10
163.3020
20
-3.3480
30
0
11
163.3020
21
-3.4160
31
0
0
LINE
8
EARS
10
163.3020
20
-3.4160
30
0
11
163.2330
21
-3.4850
31
0
0
LINE
8
EARS
10
163.2330
20
-3.4850
30
0
11
163.1650
21
-3.5530
31
0
0
LINE
8
EARS
10
163.1650
20
-3.5530
30
0
11
163.0970
21
-3.6210
31
0
0
LINE
8
EARS
10
163.0970
20
-3.6210
30
0
11
163.0290
21
-3.6900
31
0
0
LINE
8
EARS
10
163.0290
20
-3.6900
30
0
11
162.9610
21
-3.7580
31
0
0
LINE
8
EARS
10
162.9610
20
-3.7580
30
0
11
162.8930
21
-3.8260
31
0
0
LINE
8
EARS
10
162.8930
20
-3.8260
30
0
11
162.8240
21
-3.8260
31
0
0
LINE
8
EARS
10
162.8240
20
-3.8260
30
0
11
162.7560
21
-3.8950
31
0
0
LINE
8
EARS
10
162.7560
20
-3.8950
30
0
11
162.6880
21
-3.9630
31
0
0
LINE
8
EARS
10
162.6880
20
-3.9630
30
0
11
162.6200
21
-3.9630
31
0
0
LINE
8
EARS
10
162.6200
20
-3.9630
30
0
11
162.5520
21
-4.0310
31
0
0
LINE
8
EARS
10
162.5520
20
-4.0310
30
0
11
162.4830
21
-4.0310
31
0
0
LINE
8
EARS
10
162.4830
20
-4.0310
30
0
11
162.4150
21
-4.0310
31
0
0
LINE
8
EARS
10
162.4150
20
-4.0310
30
0
11
162.3470
21
-4.1000
31
0
0
LINE
8
EARS
10
162.3470
20
-4.1000
30
0
11
162.2790
21
-4.1000
31
0
0
LINE
8
EARS
10
162.2790
20
-4.1000
30
0
11
162.2110
21
-4.1680
31
0
0
LINE
8
EARS
10
162.2110
20
-4.1680
30
0
11
162.1430
21
-4.1680
31
0
0
LINE
8
EARS
10
162.1430
20
-4.1680
30
0
11
162.0740
21
-4.1680
31
0
0
LINE
8
EARS
10
162.0740
20
-4.1680
30
0
11
162.0060
21
-4.1680
31
0
0
LINE
8
EARS
10
162.0060
20
-4.1680
30
0
11
161.9380
21
-4.1680
31
0
0
LINE
8
EARS
10
161.9380
20
-4.1680
30
0
11
161.8700
21
-4.2360
31
0
0
LINE
8
EARS
10
161.8700
20
-4.2360
30
0
11
161.8020
21
-4.2360
31
0
0
LINE
8
EARS
10
161.8020
20
-4.2360
30
0
11
161.7330
21
-4.2360
31
0
0
LINE
8
EARS
10
161.7330
20
-4.2360
30
0
11
161.6650
21
-4.2360
31
0
0
LINE
8
EARS
10
161.6650
20
-4.2360
30
0
11
161.5970
21
-4.2360
31
0
0
LINE
8
EARS
10
161.5970
20
-4.2360
30
0
11
161.5290
21
-4.2360
31
0
0
LINE
8
EARS
10
161.5290
20
-4.2360
30
0
11
161.4610
21
-4.2360
31
0
0
LINE
8
EARS
10
161.4610
20
-4.2360
30
0
11
161.3930
21
-4.2360
31
0
0
LINE
8
EARS
10
161.3930
20
-4.2360
30
0
11
161.3240
21
-4.2360
31
0
0
LINE
8
EARS
10
161.3240
20
-4.2360
30
0
11
161.2560
21
-4.1680
31
0
0
LINE
8
EARS
10
161.2560
20
-4.1680
30
0
11
161.1880
21
-4.1680
31
0
0
LINE
8
EARS
10
161.1880
20
-4.1680
30
0
11
161.1200
21
-4.1680
31
0
0
LINE
8
EARS
10
161.1200
20
-4.1680
30
0
11
161.0520
21
-4.1680
31
0
0
LINE
8
EARS
10
161.0520
20
-4.1680
30
0
11
160.9830
21
-4.1000
31
0
0
LINE
8
EARS
10
160.9830
20
-4.1000
30
0
11
160.9150
21
-4.1000
31
0
0
LINE
8
EARS
10
160.9150
20
-4.1000
30
0
11
160.8470
21
-4.1000
31
0
0
LINE
8
EARS
10
160.8470
20
-4.1000
30
0
11
160.7790
21
-4.0310
31
0
0
LINE
8
EARS
10
160.7790
20
-4.0310
30
0
11
160.7110
21
-4.0310
31
0
0
LINE
8
EARS
10
160.7110
20
-4.0310
30
0
11
160.6420
21
-3.9630
31
0
0
LINE
8
EARS
10
160.6420
20
-3.9630
30
0
11
160.5740
21
-3.8950
31
0
0
LINE
8
EARS
10
160.5740
20
-3.8950
30
0
11
160.5060
21
-3.8950
31
0
0
LINE
8
EARS
10
160.5060
20
-3.8950
30
0
11
160.4380
21
-3.8260
31
0
0
LINE
8
EARS
10
160.4380
20
-3.8260
30
0
11
160.3700
21
-3.7580
31
0
0
LINE
8
EARS
10
160.3700
20
-3.7580
30
0
11
160.3020
21
-3.6900
31
0
0
LINE
8
EARS
10
160.3020
20
-3.6900
30
0
11
160.2330
21
-3.6210
31
0
0
LINE
8
EARS
10
160.2330
20
-3.6210
30
0
11
160.1650
21
-3.6210
31
0
0
LINE
8
EARS
10
160.1650
20
-3.6210
30
0
11
160.0970
21
-3.5530
31
0
0
LINE
8
EARS
10
160.0970
20
-3.5530
30
0
11
160.0290
21
-3.4850
31
0
0
LINE
8
EARS
10
160.0290
20
-3.4850
30
0
11
159.9610
21
-3.4160
31
0
0
LINE
8
EARS
10
159.9610
20
-3.4160
30
0
11
159.8920
21
-3.3480
31
0
0
LINE
8
EARS
10
159.8920
20
-3.3480
30
0
11
159.8240
21
-3.2800
31
0
0
LINE
8
EARS
10
159.8240
20
-3.2800
30
0
11
159.7560
21
-3.2110
31
0
0
LINE
8
EARS
10
159.7560
20
-3.2110
30
0
11
159.6880
21
-3.1430
31
0
0
LINE
8
EARS
10
159.6880
20
-3.1430
30
0
11
159.6200
21
-3.0750
31
0
0
LINE
8
EARS
10
159.6200
20
-3.0750
30
0
11
159.5520
21
-3.0060
31
0
0
LINE
8
EARS
10
159.5520
20
-3.0060
30
0
11
159.4830
21
-2.9380
31
0
0
LINE
8
EARS
10
159.4830
20
-2.9380
30
0
11
159.4150
21
-2.8700
31
0
0
LINE
8
EARS
10
159.4150
20
-2.8700
30
0
11
159.3470
21
-2.8010
31
0
0
LINE
8
EARS
10
159.3470
20
-2.8010
30
0
11
159.2790
21
-2.7330
31
0
0
LINE
8
EARS
10
159.2790
20
-2.7330
30
0
11
159.2110
21
-2.6650
31
0
0
LINE
8
EARS
10
159.2110
20
-2.6650
30
0
11
159.1420
21
-2.5960
31
0
0
LINE
8
EARS
10
159.1420
20
-2.5960
30
0
11
159.0740
21
-2.5280
31
0
0
LINE
8
EARS
10
159.0740
20
-2.5280
30
0
11
159.0060
21
-2.4600
31
0
0
LINE
8
EARS
10
159.0060
20
-2.4600
30
0
11
158.9380
21
-2.3910
31
0
0
LINE
8
EARS
10
158.9380
20
-2.3910
30
0
11
158.8700
21
-2.3230
31
0
0
LINE
8
EARS
10
158.8700
20
-2.3230
30
0
11
158.8020
21
-2.2550
31
0
0
LINE
8
EARS
10
158.8020
20
-2.2550
30
0
11
158.7330
21
-2.1870
31
0
0
LINE
8
EARS
10
158.7330
20
-2.1870
30
0
11
158.6650
21
-2.1180
31
0
0
LINE
8
EARS
10
158.6650
20
-2.1180
30
0
11
158.5970
21
-2.0500
31
0
0
LINE
8
EARS
10
158.5970
20
-2.0500
30
0
11
158.5290
21
-1.9820
31
0
0
LINE
8
EARS
10
158.5290
20
-1.9820
30
0
11
158.4610
21
-1.9130
31
0
0
LINE
8
EARS
10
158.4610
20
-1.9130
30
0
11
158.3920
21
-1.8450
31
0
0
LINE
8
EARS
10
158.3920
20
-1.8450
30
0
11
158.3240
21
-1.7770
31
0
0
LINE
8
EARS
10
158.3240
20
-1.7770
30
0
11
158.2560
21
-1.7080
31
0
0
LINE
8
EARS
10
158.2560
20
-1.7080
30
0
11
158.1880
21
-1.6400
31
0
0
LINE
8
EARS
10
158.1880
20
-1.6400
30
0
11
158.1200
21
-1.5720
31
0
0
LINE
8
EARS
10
158.1200
20
-1.5720
30
0
11
158.0510
21
-1.5030
31
0
0
LINE
8
EARS
10
158.0510
20
-1.5030
30
0
11
157.9830
21
-1.4350
31
0
0
LINE
8
EARS
10
157.9830
20
-1.4350
30
0
11
157.9150
21
-1.3670
31
0
0
LINE
8
EARS
10
157.9150
20
-1.3670
30
0
11
157.8470
21
-1.2980
31
0
0
LINE
8
EARS
10
157.8470
20
-1.2980
30
0
11
157.7790
21
-1.2300
31
0
0
LINE
8
EARS
10
157.7790
20
-1.2300
30
0
11
157.7110
21
-1.1620
31
0
0
LINE
8
EARS
10
157.7110
20
-1.1620
30
0
11
157.6420
21
-1.0930
31
0
0
LINE
8
EARS
10
157.6420
20
-1.0930
30
0
11
157.5740
21
-1.0250
31
0
0
LINE
8
EARS
10
157.5740
20
-1.0250
30
0
11
157.5060
21
-0.9570
31
0
0
LINE
8
EARS
10
157.5060
20
-0.9570
30
0
11
157.4380
21
-0.8880
31
0
0
LINE
8
EARS
10
157.4380
20
-0.8880
30
0
11
157.3700
21
-0.8200
31
0
0
LINE
8
EARS
10
157.3700
20
-0.8200
30
0
11
157.3010
21
-0.7520
31
0
0
LINE
8
EARS
10
157.3010
20
-0.7520
30
0
11
157.2330
21
-0.6830
31
0
0
LINE
8
EARS
10
157.2330
20
-0.6830
30
0
11
157.1650
21
-0.6150
31
0
0
LINE
8
EARS
10
157.1650
20
-0.6150
30
0
11
157.0970
21
-0.5470
31
0
0
LINE
8
EARS
10
157.0970
20
-0.5470
30
0
11
157.0290
21
-0.4780
31
0
0
LINE
8
EARS
10
157.0290
20
-0.4780
30
0
11
157.0290
21
0.0000
31
0
0
LINE
8
EARS
10
157.0290
20
0.0000
30
0
11
163.7110
21
0.0000
31
0
0
CIRCLE
8
HOLES
10
-2.1480
20
4.8850
30
0
40
1.2000
0
POINT
8
HOLE_CENTERS
10
-2.1480
20
4.8850
30
0
0
CIRCLE
8
HOLES
10
5.0120
20
209.9390
30
0
40
1.2000
0
POINT
8
HOLE_CENTERS
10
5.0120
20
209.9390
30
0
0
CIRCLE
8
HOLES
10
162.0400
20
211.7840
30
0
40
1.2000
0
POINT
8
HOLE_CENTERS
10
162.0400
20
211.7840
30
0
0
CIRCLE
8
HOLES
10
161.6310
20
-2.1520
30
0
40
1.2000
0
POINT
8
HOLE_CENTERS
10
161.6310
20
-2.1520
30
0
0
LINE
8
CONNECTOR
10
141.5600
20
78.4400
30
0
11
167.1200
21
78.4400
31
0
0
LINE
8
CONNECTOR
10
167.1200
20
78.4400
30
0
11
167.1200
21
60.4400
31
0
0
LINE
8
CONNECTOR
10
167.1200
20
60.4400
30
0
11
141.5600
21
60.4400
31
0
0
LINE
8
CONNECTOR
10
141.5600
20
60.4400
30
0
11
141.5600
21
78.4400
31
0
0
ENDSEC
0
EOF
