0
SECTION
2
ENTITIES
0
LINE
8
OUTLINE
10
-0.0008
20
208.8797
30
0
11
167.1192
21
208.8797
31
0
0
LINE
8
OUTLINE
10
167.1192
20
208.8797
30
0
11
167.1192
21
-0.0003
31
0
0
LINE
8
OUTLINE
10
167.1192
20
-0.0003
30
0
11
-0.0008
21
-0.0003
31
0
0
LINE
8
OUTLINE
10
-0.0008
20
-0.0003
30
0
11
-0.0008
21
208.8797
31
0
0
LINE
8
BEZEL
10
6.4869
20
205.8029
30
0
11
158.0949
21
205.8029
31
0
0
LINE
8
BEZEL
10
158.0949
20
205.8029
30
0
11
158.0949
21
4.7929
31
0
0
LINE
8
BEZEL
10
158.0949
20
4.7929
30
0
11
6.4869
21
4.7929
31
0
0
LINE
8
BEZEL
10
6.4869
20
4.7929
30
0
11
6.4869
21
205.8029
31
0
0
LINE
8
ACTIVE
10
8.5275
20
203.6292
30
0
11
155.9835
21
203.6292
31
0
0
LINE
8
ACTIVE
10
155.9835
20
203.6292
30
0
11
155.9835
21
7.0212
31
0
0
LINE
8
ACTIVE
10
155.9835
20
7.0212
30
0
11
8.5275
21
7.0212
31
0
0
LINE
8
ACTIVE
10
8.5275
20
7.0212
30
0
11
8.5275
21
203.6292
31
0
0
CIRCLE
8
HOLES
10
-2.1277
20
4.9466
30
0
40
1.1936
0
POINT
8
HOLE_CENTERS
10
-2.1277
20
4.9466
30
0
0
LINE
8
HOLE_CENTERS
10
-3.6277
20
4.9466
30
0
11
-0.6277
21
4.9466
31
0
0
LINE
8
HOLE_CENTERS
10
-2.1277
20
3.4466
30
0
11
-2.1277
21
6.4466
31
0
0
LINE
8
EARS
10
-2.5539
20
3.0664
30
0
11
-0.0991
21
3.0664
31
0
0
LINE
8
EARS
10
-0.0991
20
3.0664
30
0
11
-0.0173
21
3.1484
31
0
0
LINE
8
EARS
10
-0.0173
20
3.1484
30
0
11
-0.0173
21
9.3797
31
0
0
LINE
8
EARS
10
-0.0173
20
9.3797
30
0
11
-0.0991
21
9.4616
31
0
0
LINE
8
EARS
10
-0.0991
20
9.4616
30
0
11
-0.3937
21
9.4289
31
0
0
LINE
8
EARS
10
-0.3937
20
9.4289
30
0
11
-3.6831
21
6.1328
31
0
0
LINE
8
EARS
10
-3.6831
20
6.1328
30
0
11
-3.9449
21
5.6737
31
0
0
LINE
8
EARS
10
-3.9449
20
5.6737
30
0
11
-4.0431
21
5.3457
31
0
0
LINE
8
EARS
10
-4.0431
20
5.3457
30
0
11
-4.0758
21
4.7554
31
0
0
LINE
8
EARS
10
-4.0758
20
4.7554
30
0
11
-4.0104
21
4.3946
31
0
0
LINE
8
EARS
10
-4.0104
20
4.3946
30
0
11
-3.7813
21
3.8699
31
0
0
LINE
8
EARS
10
-3.7813
20
3.8699
30
0
11
-3.6176
21
3.6403
31
0
0
LINE
8
EARS
10
-3.6176
20
3.6403
30
0
11
-3.3394
21
3.3943
31
0
0
LINE
8
EARS
10
-3.3394
20
3.3943
30
0
11
-2.9794
21
3.1976
31
0
0
LINE
8
EARS
10
-2.9794
20
3.1976
30
0
11
-2.5539
21
3.0664
31
0
0
CIRCLE
8
HOLES
10
161.6712
20
-2.1426
30
0
40
1.2007
0
POINT
8
HOLE_CENTERS
10
161.6712
20
-2.1426
30
0
0
LINE
8
HOLE_CENTERS
10
160.1712
20
-2.1426
30
0
11
163.1712
21
-2.1426
31
0
0
LINE
8
HOLE_CENTERS
10
161.6712
20
-3.6426
30
0
11
161.6712
21
-0.6426
31
0
0
LINE
8
EARS
10
161.4244
20
-4.0832
30
0
11
162.0462
21
-4.0504
31
0
0
LINE
8
EARS
10
162.0462
20
-4.0504
30
0
11
162.5372
21
-3.8864
31
0
0
LINE
8
EARS
10
162.5372
20
-3.8864
30
0
11
162.9954
21
-3.5913
31
0
0
LINE
8
EARS
10
162.9954
20
-3.5913
30
0
11
163.3063
21
-3.1813
31
0
0
LINE
8
EARS
10
163.3063
20
-3.1813
30
0
11
163.4700
21
-2.7878
31
0
0
LINE
8
EARS
10
163.4700
20
-2.7878
30
0
11
163.5027
21
-2.4270
31
0
0
LINE
8
EARS
10
163.5027
20
-2.4270
30
0
11
163.6009
21
-2.1646
31
0
0
LINE
8
EARS
10
163.6009
20
-2.1646
30
0
11
163.6009
21
-0.0985
31
0
0
LINE
8
EARS
10
163.6009
20
-0.0985
30
0
11
163.5191
21
-0.0165
31
0
0
LINE
8
EARS
10
163.5191
20
-0.0165
30
0
11
157.2349
21
-0.0165
31
0
0
LINE
8
EARS
10
157.2349
20
-0.0165
30
0
11
157.1531
21
-0.0985
31
0
0
LINE
8
EARS
10
157.1531
20
-0.0985
30
0
11
157.1531
21
-0.3936
31
0
0
LINE
8
EARS
10
157.1531
20
-0.3936
30
0
11
160.3443
21
-3.5913
31
0
0
LINE
8
EARS
10
160.3443
20
-3.5913
30
0
11
160.9007
21
-3.9520
31
0
0
LINE
8
EARS
10
160.9007
20
-3.9520
30
0
11
161.4244
21
-4.0832
31
0
0
CIRCLE
8
HOLES
10
5.0270
20
209.8702
30
0
40
1.1991
0
POINT
8
HOLE_CENTERS
10
5.0270
20
209.8702
30
0
0
LINE
8
HOLE_CENTERS
10
3.5270
20
209.8702
30
0
11
6.5270
21
209.8702
31
0
0
LINE
8
HOLE_CENTERS
10
5.0270
20
208.3702
30
0
11
5.0270
21
211.3702
31
0
0
LINE
8
EARS
10
2.4211
20
208.8960
30
0
11
6.8397
21
208.8960
31
0
0
LINE
8
EARS
10
6.8397
20
208.8960
30
0
11
6.9215
21
208.9780
31
0
0
LINE
8
EARS
10
6.9215
20
208.9780
30
0
11
6.9215
21
209.9946
31
0
0
LINE
8
EARS
10
6.9215
20
209.9946
30
0
11
6.7251
21
210.7490
31
0
0
LINE
8
EARS
10
6.7251
20
210.7490
30
0
11
6.5615
21
211.0441
31
0
0
LINE
8
EARS
10
6.5615
20
211.0441
30
0
11
6.2505
21
211.3557
31
0
0
LINE
8
EARS
10
6.2505
20
211.3557
30
0
11
5.6614
21
211.6509
31
0
0
LINE
8
EARS
10
5.6614
20
211.6509
30
0
11
5.1377
21
211.7492
31
0
0
LINE
8
EARS
10
5.1377
20
211.7492
30
0
11
4.8431
21
211.7492
31
0
0
LINE
8
EARS
10
4.8431
20
211.7492
30
0
11
4.1558
21
211.5853
31
0
0
LINE
8
EARS
10
4.1558
20
211.5853
30
0
11
3.7303
21
211.3229
31
0
0
LINE
8
EARS
10
3.7303
20
211.3229
30
0
11
3.2884
21
210.7490
31
0
0
LINE
8
EARS
10
3.2884
20
210.7490
30
0
11
2.3393
21
208.9780
31
0
0
LINE
8
EARS
10
2.3393
20
208.9780
30
0
11
2.4211
21
208.8960
31
0
0
CIRCLE
8
HOLES
10
162.0461
20
211.7570
30
0
40
1.1967
0
POINT
8
HOLE_CENTERS
10
162.0461
20
211.7570
30
0
0
LINE
8
HOLE_CENTERS
10
160.5461
20
211.7570
30
0
11
163.5461
21
211.7570
31
0
0
LINE
8
HOLE_CENTERS
10
162.0461
20
210.2570
30
0
11
162.0461
21
213.2570
31
0
0
LINE
8
EARS
10
156.8749
20
208.8960
30
0
11
163.8791
21
208.8960
31
0
0
LINE
8
EARS
10
163.8791
20
208.8960
30
0
11
163.9609
21
208.9780
31
0
0
LINE
8
EARS
10
163.9609
20
208.9780
30
0
11
163.9609
21
211.9952
31
0
0
LINE
8
EARS
10
163.9609
20
211.9952
30
0
11
163.7318
21
212.6511
31
0
0
LINE
8
EARS
10
163.7318
20
212.6511
30
0
11
163.3554
21
213.1595
31
0
0
LINE
8
EARS
10
163.3554
20
213.1595
30
0
11
163.0281
21
213.3891
31
0
0
LINE
8
EARS
10
163.0281
20
213.3891
30
0
11
162.6681
21
213.5530
31
0
0
LINE
8
EARS
10
162.6681
20
213.5530
30
0
11
162.1771
21
213.6514
31
0
0
LINE
8
EARS
10
162.1771
20
213.6514
30
0
11
161.8826
21
213.6514
31
0
0
LINE
8
EARS
10
161.8826
20
213.6514
30
0
11
161.4898
21
213.5858
31
0
0
LINE
8
EARS
10
161.4898
20
213.5858
30
0
11
161.0316
21
213.3891
31
0
0
LINE
8
EARS
10
161.0316
20
213.3891
30
0
11
160.5079
21
212.9299
31
0
0
LINE
8
EARS
10
160.5079
20
212.9299
30
0
11
156.8585
21
209.3059
31
0
0
LINE
8
EARS
10
156.8585
20
209.3059
30
0
11
156.7930
21
209.1747
31
0
0
LINE
8
EARS
10
156.7930
20
209.1747
30
0
11
156.7930
21
208.9780
31
0
0
LINE
8
EARS
10
156.7930
20
208.9780
30
0
11
156.8749
21
208.8960
31
0
0
ENDSEC
0
EOF
