0
SECTION
2
ENTITIES
0
LINE
8
OUTLINE
10
-0.0008
20
208.8797
30
0
11
167.1192
21
208.8797
31
0
0
LINE
8
OUTLINE
10
167.1192
20
208.8797
30
0
11
167.1192
21
-0.0003
31
0
0
LINE
8
OUTLINE
10
167.1192
20
-0.0003
30
0
11
-0.0008
21
-0.0003
31
0
0
LINE
8
OUTLINE
10
-0.0008
20
-0.0003
30
0
11
-0.0008
21
208.8797
31
0
0
LINE
8
BEZEL
10
6.4869
20
205.8029
30
0
11
158.0949
21
205.8029
31
0
0
LINE
8
BEZEL
10
158.0949
20
205.8029
30
0
11
158.0949
21
4.7929
31
0
0
LINE
8
BEZEL
10
158.0949
20
4.7929
30
0
11
6.4869
21
4.7929
31
0
0
LINE
8
BEZEL
10
6.4869
20
4.7929
30
0
11
6.4869
21
205.8029
31
0
0
LINE
8
ACTIVE
10
8.5275
20
203.6292
30
0
11
155.9835
21
203.6292
31
0
0
LINE
8
ACTIVE
10
155.9835
20
203.6292
30
0
11
155.9835
21
7.0212
31
0
0
LINE
8
ACTIVE
10
155.9835
20
7.0212
30
0
11
8.5275
21
7.0212
31
0
0
LINE
8
ACTIVE
10
8.5275
20
7.0212
30
0
11
8.5275
21
203.6292
31
0
0
CIRCLE
8
HOLES
10
-2.1277
20
4.9466
30
0
40
1.1936
0
POINT
8
HOLE_CENTERS
10
-2.1277
20
4.9466
30
0
0
LINE
8
HOLE_CENTERS
10
-3.6277
20
4.9466
30
0
11
-0.6277
21
4.9466
31
0
0
LINE
8
HOLE_CENTERS
10
-2.1277
20
3.4466
30
0
11
-2.1277
21
6.4466
31
0
0
LINE
8
EARS
10
-2.5539
20
2.8040
30
0
11
1.0000
21
2.8040
31
0
0
LINE
8
EARS
10
1.0000
20
2.8040
30
0
11
1.0000
21
3.0172
31
0
0
LINE
8
EARS
10
1.0000
20
3.0172
30
0
11
1.0000
21
9.5108
31
0
0
LINE
8
EARS
10
1.0000
20
9.5108
30
0
11
1.0000
21
9.7240
31
0
0
LINE
8
EARS
10
1.0000
20
9.7240
30
0
11
1.0000
21
9.6912
31
0
0
LINE
8
EARS
10
1.0000
20
9.6912
30
0
11
-3.9449
21
6.1328
31
0
0
LINE
8
EARS
10
-3.9449
20
6.1328
30
0
11
-4.2068
21
5.6737
31
0
0
LINE
8
EARS
10
-4.2068
20
5.6737
30
0
11
-4.3377
21
4.7554
31
0
0
LINE
8
EARS
10
-4.3377
20
4.7554
30
0
11
-4.0431
21
3.8699
31
0
0
LINE
8
EARS
10
-4.0431
20
3.8699
30
0
11
-3.3394
21
3.1320
31
0
0
LINE
8
EARS
10
-3.3394
20
3.1320
30
0
11
-2.5539
21
2.8040
31
0
0
CIRCLE
8
HOLES
10
161.6712
20
-2.1426
30
0
40
1.2007
0
POINT
8
HOLE_CENTERS
10
161.6712
20
-2.1426
30
0
0
LINE
8
HOLE_CENTERS
10
160.1712
20
-2.1426
30
0
11
163.1712
21
-2.1426
31
0
0
LINE
8
HOLE_CENTERS
10
161.6712
20
-3.6426
30
0
11
161.6712
21
-0.6426
31
0
0
LINE
8
EARS
10
161.4244
20
-4.3456
30
0
11
162.0462
21
-4.3128
31
0
0
LINE
8
EARS
10
162.0462
20
-4.3128
30
0
11
162.6681
21
-4.0832
31
0
0
LINE
8
EARS
10
162.6681
20
-4.0832
30
0
11
162.9954
21
-3.8537
31
0
0
LINE
8
EARS
10
162.9954
20
-3.8537
30
0
11
163.5682
21
-3.1813
31
0
0
LINE
8
EARS
10
163.5682
20
-3.1813
30
0
11
163.8627
21
-2.1646
31
0
0
LINE
8
EARS
10
163.8627
20
-2.1646
30
0
11
163.8627
21
1.0000
31
0
0
LINE
8
EARS
10
163.8627
20
1.0000
30
0
11
163.6500
21
1.0000
31
0
0
LINE
8
EARS
10
163.6500
20
1.0000
30
0
11
157.1040
21
1.0000
31
0
0
LINE
8
EARS
10
157.1040
20
1.0000
30
0
11
156.8912
21
1.0000
31
0
0
LINE
8
EARS
10
156.8912
20
1.0000
30
0
11
156.8912
21
1.0000
31
0
0
LINE
8
EARS
10
156.8912
20
1.0000
30
0
11
160.3443
21
-3.8537
31
0
0
LINE
8
EARS
10
160.3443
20
-3.8537
30
0
11
160.9007
21
-4.2144
31
0
0
LINE
8
EARS
10
160.9007
20
-4.2144
30
0
11
161.4244
21
-4.3456
31
0
0
CIRCLE
8
HOLES
10
5.0270
20
209.8702
30
0
40
1.1991
0
POINT
8
HOLE_CENTERS
10
5.0270
20
209.8702
30
0
0
LINE
8
HOLE_CENTERS
10
3.5270
20
209.8702
30
0
11
6.5270
21
209.8702
31
0
0
LINE
8
HOLE_CENTERS
10
5.0270
20
208.3702
30
0
11
5.0270
21
211.3702
31
0
0
LINE
8
EARS
10
2.3556
20
207.8800
30
0
11
6.9706
21
207.8800
31
0
0
LINE
8
EARS
10
6.9706
20
207.8800
30
0
11
7.1833
21
207.8800
31
0
0
LINE
8
EARS
10
7.1833
20
207.8800
30
0
11
7.1833
21
209.9946
31
0
0
LINE
8
EARS
10
7.1833
20
209.9946
30
0
11
7.0524
21
210.5850
31
0
0
LINE
8
EARS
10
7.0524
20
210.5850
30
0
11
6.6924
21
211.2081
31
0
0
LINE
8
EARS
10
6.6924
20
211.2081
30
0
11
6.2505
21
211.6181
31
0
0
LINE
8
EARS
10
6.2505
20
211.6181
30
0
11
5.7596
21
211.8804
31
0
0
LINE
8
EARS
10
5.7596
20
211.8804
30
0
11
5.1377
21
212.0116
31
0
0
LINE
8
EARS
10
5.1377
20
212.0116
30
0
11
4.3194
21
211.9132
31
0
0
LINE
8
EARS
10
4.3194
20
211.9132
30
0
11
3.7303
21
211.5853
31
0
0
LINE
8
EARS
10
3.7303
20
211.5853
30
0
11
3.0266
21
210.7490
31
0
0
LINE
8
EARS
10
3.0266
20
210.7490
30
0
11
2.1429
21
207.8800
31
0
0
LINE
8
EARS
10
2.1429
20
207.8800
30
0
11
2.3556
21
207.8800
31
0
0
CIRCLE
8
HOLES
10
162.0461
20
211.7570
30
0
40
1.1967
0
POINT
8
HOLE_CENTERS
10
162.0461
20
211.7570
30
0
0
LINE
8
HOLE_CENTERS
10
160.5461
20
211.7570
30
0
11
163.5461
21
211.7570
31
0
0
LINE
8
HOLE_CENTERS
10
162.0461
20
210.2570
30
0
11
162.0461
21
213.2570
31
0
0
LINE
8
EARS
10
156.7439
20
207.8800
30
0
11
164.0100
21
207.8800
31
0
0
LINE
8
EARS
10
164.0100
20
207.8800
30
0
11
164.2228
21
207.8800
31
0
0
LINE
8
EARS
10
164.2228
20
207.8800
30
0
11
164.2228
21
211.9952
31
0
0
LINE
8
EARS
10
164.2228
20
211.9952
30
0
11
163.9937
21
212.6511
31
0
0
LINE
8
EARS
10
163.9937
20
212.6511
30
0
11
163.3554
21
213.4219
31
0
0
LINE
8
EARS
10
163.3554
20
213.4219
30
0
11
162.6681
21
213.8154
31
0
0
LINE
8
EARS
10
162.6681
20
213.8154
30
0
11
161.8826
21
213.9138
31
0
0
LINE
8
EARS
10
161.8826
20
213.9138
30
0
11
161.0316
21
213.6514
31
0
0
LINE
8
EARS
10
161.0316
20
213.6514
30
0
11
156.5966
21
207.8800
31
0
0
LINE
8
EARS
10
156.5966
20
207.8800
30
0
11
156.5312
21
207.8800
31
0
0
LINE
8
EARS
10
156.5312
20
207.8800
30
0
11
156.7439
21
207.8800
31
0
0
ENDSEC
0
EOF
